<?xml version="1.0" standalone="no"?>
<!DOCTYPE svg PUBLIC "-//W3C//DTD SVG 20010904//EN"
 "http://www.w3.org/TR/2001/REC-SVG-20010904/DTD/svg10.dtd">
<svg version="1.0" xmlns="http://www.w3.org/2000/svg"
 width="87.000000pt" height="87.000000pt" viewBox="0 0 87.000000 87.000000"
 preserveAspectRatio="xMidYMid meet">

<g transform="translate(0.000000,87.000000) scale(0.100000,-0.100000)"
fill="#000000" stroke="none">
<path d="M323 845 c-79 -22 -131 -52 -189 -109 -206 -206 -148 -544 115 -674
72 -36 79 -37 181 -37 102 0 109 1 181 37 93 46 158 112 202 206 30 62 32 75
32 173 0 101 -1 108 -38 181 -90 184 -289 275 -484 223z m195 -192 c62 -46 67
-62 67 -213 0 -151 -5 -167 -69 -214 -39 -29 -133 -29 -172 0 -60 44 -69 66
-72 186 -2 60 -1 126 3 145 7 40 66 110 98 117 44 9 119 -1 145 -21z"/>
<path d="M396 568 c-12 -17 -16 -48 -16 -128 0 -113 12 -150 50 -150 37 0 50
37 50 145 0 60 -5 110 -13 125 -17 33 -51 37 -71 8z"/>
</g>
</svg>
