<?xml version="1.0" encoding="UTF-8" standalone="no"?>
<svg
   xmlns:dc="http://purl.org/dc/elements/1.1/"
   xmlns:cc="http://creativecommons.org/ns#"
   xmlns:rdf="http://www.w3.org/1999/02/22-rdf-syntax-ns#"
   xmlns:svg="http://www.w3.org/2000/svg"
   xmlns="http://www.w3.org/2000/svg"
   xmlns:sodipodi="http://sodipodi.sourceforge.net/DTD/sodipodi-0.dtd"
   xmlns:inkscape="http://www.inkscape.org/namespaces/inkscape"
   version="1.1"
   id="Layer_1"
   x="0px"
   y="0px"
   width="80px"
   height="80px"
   viewBox="0 0 80 80"
   style="enable-background:new 0 0 80 80;"
   xml:space="preserve"
   sodipodi:docname="btn-nofilter.svg"
   inkscape:version="1.0 (4035a4fb49, 2020-05-01)"><metadata
   id="metadata1376"><rdf:RDF><cc:Work
       rdf:about=""><dc:format>image/svg+xml</dc:format><dc:type
         rdf:resource="http://purl.org/dc/dcmitype/StillImage" /><dc:title>Accuracy</dc:title></cc:Work></rdf:RDF></metadata><defs
   id="defs1374" /><sodipodi:namedview
   inkscape:document-rotation="0"
   pagecolor="#ffffff"
   bordercolor="#666666"
   borderopacity="1"
   objecttolerance="10"
   gridtolerance="10"
   guidetolerance="10"
   inkscape:pageopacity="0"
   inkscape:pageshadow="2"
   inkscape:window-width="1366"
   inkscape:window-height="705"
   id="namedview1372"
   showgrid="false"
   inkscape:zoom="4.7552931"
   inkscape:cx="36.90869"
   inkscape:cy="30.074104"
   inkscape:window-x="-8"
   inkscape:window-y="-8"
   inkscape:window-maximized="1"
   inkscape:current-layer="Layer_1" />
<style
   type="text/css"
   id="style1347">
	.st0{fill:#808285;}
	.st1{fill:#0E9DD8;}
</style>
<title
   id="title1349">Accuracy</title>










<g
   id="g1435"
   transform="matrix(0.18827743,0,0,0.18827743,25.166779,25.366927)" /><g
   id="g1437"
   transform="matrix(0.18827743,0,0,0.18827743,25.166779,25.366927)" /><g
   id="g1439"
   transform="matrix(0.18827743,0,0,0.18827743,25.166779,25.366927)" /><g
   id="g1441"
   transform="matrix(0.18827743,0,0,0.18827743,25.166779,25.366927)" /><g
   id="g1443"
   transform="matrix(0.18827743,0,0,0.18827743,25.166779,25.366927)" /><g
   id="g1445"
   transform="matrix(0.18827743,0,0,0.18827743,25.166779,25.366927)" /><g
   id="g1447"
   transform="matrix(0.18827743,0,0,0.18827743,25.166779,25.366927)" /><g
   id="g1449"
   transform="matrix(0.18827743,0,0,0.18827743,25.166779,25.366927)" /><g
   id="g1451"
   transform="matrix(0.18827743,0,0,0.18827743,25.166779,25.366927)" /><g
   id="g1453"
   transform="matrix(0.18827743,0,0,0.18827743,25.166779,25.366927)" /><g
   id="g1455"
   transform="matrix(0.18827743,0,0,0.18827743,25.166779,25.366927)" /><g
   id="g1457"
   transform="matrix(0.18827743,0,0,0.18827743,25.166779,25.366927)" /><g
   id="g1459"
   transform="matrix(0.18827743,0,0,0.18827743,25.166779,25.366927)" /><g
   id="g1461"
   transform="matrix(0.18827743,0,0,0.18827743,25.166779,25.366927)" /><g
   id="g1463"
   transform="matrix(0.18827743,0,0,0.18827743,25.166779,25.366927)" /><g
   style="fill:#000080"
   transform="matrix(0.12174542,0,0,0.12174542,10.335762,8.7279636)"
   id="g1006"><path
     style="fill:#000080"
     d="M 361.183,0 C 307.124,0 261.347,36.049 246.678,85.331 H 53.73 c -18.024,0 -28.614,20.339 -18.285,35.119 0.16,0.231 -5.363,-7.31 129.747,177.039 2.714,3.951 4.148,8.57 4.148,13.367 v 177.688 c 0,19.435 22.224,30.24 37.473,18.754 l 57.593,-43.518 c 8.614,-6.415 13.754,-16.655 13.754,-27.409 V 310.856 c 0,-4.798 1.435,-9.417 4.149,-13.369 l 46.497,-63.451 c 76.139,21.439 151.81,-36.022 151.81,-114.791 C 480.617,53.493 427.039,0 361.183,0 Z M 257.991,279.919 c -5.835,7.968 -9.831,19.1 -9.831,30.938 0,136.483 0.734,127.081 -1.68,128.869 -1.91,1.421 10.835,-8.188 -47.14,35.618 V 310.856 c 0,-11.012 -3.327,-21.608 -9.622,-30.646 -0.169,-0.242 4.923,6.71 -120.835,-164.88 h 172.938 c -1.457,44.852 22.126,84.961 58.678,106.581 z m 103.192,-71.428 c -49.314,0 -89.434,-40.035 -89.434,-89.246 0,-49.21 40.12,-89.245 89.434,-89.245 49.313,0 89.433,40.035 89.433,89.245 0.001,49.211 -40.119,89.246 -89.433,89.246 z"
     id="path1002" /><path
     style="fill:#000080"
     d="m 400.201,80.298 c -5.854,-5.864 -15.35,-5.872 -21.213,-0.02 L 361.183,98.051 343.378,80.278 c -5.863,-5.853 -15.361,-5.846 -21.213,0.02 -5.853,5.862 -5.844,15.36 0.019,21.213 l 17.767,17.735 -17.767,17.735 c -5.863,5.853 -5.872,15.351 -0.019,21.213 5.833,5.844 15.331,5.891 21.213,0.02 l 17.805,-17.773 17.805,17.773 c 5.845,5.834 15.343,5.862 21.213,-0.02 5.853,-5.862 5.844,-15.36 -0.019,-21.213 l -17.767,-17.735 17.767,-17.735 c 5.863,-5.853 5.872,-15.351 0.019,-21.213 z"
     id="path1004" /></g></svg>
