<?xml version="1.0" encoding="UTF-8" standalone="no"?>
<svg
   xmlns:dc="http://purl.org/dc/elements/1.1/"
   xmlns:cc="http://creativecommons.org/ns#"
   xmlns:rdf="http://www.w3.org/1999/02/22-rdf-syntax-ns#"
   xmlns:svg="http://www.w3.org/2000/svg"
   xmlns="http://www.w3.org/2000/svg"
   xmlns:sodipodi="http://sodipodi.sourceforge.net/DTD/sodipodi-0.dtd"
   xmlns:inkscape="http://www.inkscape.org/namespaces/inkscape"
   inkscape:version="1.0 (4035a4fb49, 2020-05-01)"
   sodipodi:docname="btn-add.svg"
   xml:space="preserve"
   style="enable-background:new 0 0 80 80;"
   viewBox="0 0 80 80"
   height="80px"
   width="80px"
   y="0px"
   x="0px"
   id="Layer_1"
   version="1.1"><metadata
   id="metadata1376"><rdf:RDF><cc:Work
       rdf:about=""><dc:format>image/svg+xml</dc:format><dc:type
         rdf:resource="http://purl.org/dc/dcmitype/StillImage" /><dc:title>Accuracy</dc:title></cc:Work></rdf:RDF></metadata><defs
   id="defs1374" /><sodipodi:namedview
   inkscape:current-layer="Layer_1"
   inkscape:window-maximized="1"
   inkscape:window-y="-8"
   inkscape:window-x="-8"
   inkscape:cy="29.181835"
   inkscape:cx="38.915985"
   inkscape:zoom="4.7552931"
   showgrid="false"
   id="namedview1372"
   inkscape:window-height="705"
   inkscape:window-width="1366"
   inkscape:pageshadow="2"
   inkscape:pageopacity="0"
   guidetolerance="10"
   gridtolerance="10"
   objecttolerance="10"
   borderopacity="1"
   bordercolor="#666666"
   pagecolor="#ffffff"
   inkscape:document-rotation="0" />
<style
   id="style1347"
   type="text/css">
	.st0{fill:#808285;}
	.st1{fill:#0E9DD8;}
</style>
<title
   id="title1349">Accuracy</title>










<g
   transform="matrix(0.18827743,0,0,0.18827743,25.166779,25.366927)"
   id="g1435" /><g
   transform="matrix(0.18827743,0,0,0.18827743,25.166779,25.366927)"
   id="g1437" /><g
   transform="matrix(0.18827743,0,0,0.18827743,25.166779,25.366927)"
   id="g1439" /><g
   transform="matrix(0.18827743,0,0,0.18827743,25.166779,25.366927)"
   id="g1441" /><g
   transform="matrix(0.18827743,0,0,0.18827743,25.166779,25.366927)"
   id="g1443" /><g
   transform="matrix(0.18827743,0,0,0.18827743,25.166779,25.366927)"
   id="g1445" /><g
   transform="matrix(0.18827743,0,0,0.18827743,25.166779,25.366927)"
   id="g1447" /><g
   transform="matrix(0.18827743,0,0,0.18827743,25.166779,25.366927)"
   id="g1449" /><g
   transform="matrix(0.18827743,0,0,0.18827743,25.166779,25.366927)"
   id="g1451" /><g
   transform="matrix(0.18827743,0,0,0.18827743,25.166779,25.366927)"
   id="g1453" /><g
   transform="matrix(0.18827743,0,0,0.18827743,25.166779,25.366927)"
   id="g1455" /><g
   transform="matrix(0.18827743,0,0,0.18827743,25.166779,25.366927)"
   id="g1457" /><g
   transform="matrix(0.18827743,0,0,0.18827743,25.166779,25.366927)"
   id="g1459" /><g
   transform="matrix(0.18827743,0,0,0.18827743,25.166779,25.366927)"
   id="g1461" /><g
   transform="matrix(0.18827743,0,0,0.18827743,25.166779,25.366927)"
   id="g1463" /><g
   transform="matrix(1.4933878,0,0,1.4933878,-21.11164,-22.781797)"
   id="g2137"><polygon
     transform="matrix(0.29164634,0,0,0.29164634,18.065662,18.158526)"
     id="polygon1425"
     points="14.935,124.141 14.935,26.219 131.662,26.219 131.662,75.18 146.596,75.18 146.596,11.284 0,11.284 0,139.075 73.298,139.075 73.298,124.141 "
     style="fill:#cccccc" /><polygon
     id="polygon1427"
     points="104.019,120.378 104.019,135.313 131.662,135.313 131.662,162.956 146.596,162.956 146.596,135.313 174.239,135.313 174.239,120.378 146.596,120.378 146.596,92.735 131.662,92.735 131.662,120.378 "
     style="fill:#008080"
     transform="matrix(0.29164634,0,0,0.29164634,13.710215,16.136724)" /><rect
     id="rect1429"
     height="4.3557382"
     width="18.530043"
     y="31.210018"
     x="28.797066"
     style="fill:#999999;stroke-width:0.291646" /><rect
     id="rect1431"
     height="4.3557382"
     width="14.140474"
     y="39.98653"
     x="28.797066"
     style="fill:#999999;stroke-width:0.291646" /></g></svg>
