<?xml version="1.0" encoding="UTF-8" standalone="no"?>
<svg
   xmlns:dc="http://purl.org/dc/elements/1.1/"
   xmlns:cc="http://creativecommons.org/ns#"
   xmlns:rdf="http://www.w3.org/1999/02/22-rdf-syntax-ns#"
   xmlns:svg="http://www.w3.org/2000/svg"
   xmlns="http://www.w3.org/2000/svg"
   xmlns:sodipodi="http://sodipodi.sourceforge.net/DTD/sodipodi-0.dtd"
   xmlns:inkscape="http://www.inkscape.org/namespaces/inkscape"
   version="1.1"
   id="Layer_1"
   x="0px"
   y="0px"
   width="80px"
   height="80px"
   viewBox="0 0 80 80"
   style="enable-background:new 0 0 80 80;"
   xml:space="preserve"
   sodipodi:docname="btn-user.svg"
   inkscape:version="1.0 (4035a4fb49, 2020-05-01)"><metadata
   id="metadata1376"><rdf:RDF><cc:Work
       rdf:about=""><dc:format>image/svg+xml</dc:format><dc:type
         rdf:resource="http://purl.org/dc/dcmitype/StillImage" /><dc:title>Accuracy</dc:title></cc:Work></rdf:RDF></metadata><defs
   id="defs1374" /><sodipodi:namedview
   inkscape:document-rotation="0"
   pagecolor="#ffffff"
   bordercolor="#666666"
   borderopacity="1"
   objecttolerance="10"
   gridtolerance="10"
   guidetolerance="10"
   inkscape:pageopacity="0"
   inkscape:pageshadow="2"
   inkscape:window-width="1366"
   inkscape:window-height="705"
   id="namedview1372"
   showgrid="false"
   inkscape:zoom="4.7552931"
   inkscape:cx="38.915985"
   inkscape:cy="29.181835"
   inkscape:window-x="-8"
   inkscape:window-y="-8"
   inkscape:window-maximized="1"
   inkscape:current-layer="Layer_1" />
<style
   type="text/css"
   id="style1347">
	.st0{fill:#808285;}
	.st1{fill:#0E9DD8;}
</style>
<title
   id="title1349">Accuracy</title>










<g
   id="g1435"
   transform="matrix(0.18827743,0,0,0.18827743,25.166779,25.366927)" /><g
   id="g1437"
   transform="matrix(0.18827743,0,0,0.18827743,25.166779,25.366927)" /><g
   id="g1439"
   transform="matrix(0.18827743,0,0,0.18827743,25.166779,25.366927)" /><g
   id="g1441"
   transform="matrix(0.18827743,0,0,0.18827743,25.166779,25.366927)" /><g
   id="g1443"
   transform="matrix(0.18827743,0,0,0.18827743,25.166779,25.366927)" /><g
   id="g1445"
   transform="matrix(0.18827743,0,0,0.18827743,25.166779,25.366927)" /><g
   id="g1447"
   transform="matrix(0.18827743,0,0,0.18827743,25.166779,25.366927)" /><g
   id="g1449"
   transform="matrix(0.18827743,0,0,0.18827743,25.166779,25.366927)" /><g
   id="g1451"
   transform="matrix(0.18827743,0,0,0.18827743,25.166779,25.366927)" /><g
   id="g1453"
   transform="matrix(0.18827743,0,0,0.18827743,25.166779,25.366927)" /><g
   id="g1455"
   transform="matrix(0.18827743,0,0,0.18827743,25.166779,25.366927)" /><g
   id="g1457"
   transform="matrix(0.18827743,0,0,0.18827743,25.166779,25.366927)" /><g
   id="g1459"
   transform="matrix(0.18827743,0,0,0.18827743,25.166779,25.366927)" /><g
   id="g1461"
   transform="matrix(0.18827743,0,0,0.18827743,25.166779,25.366927)" /><g
   id="g1463"
   transform="matrix(0.18827743,0,0,0.18827743,25.166779,25.366927)" /><g
   id="g4959"
   transform="matrix(2.2694456,0,0,2.2694456,-51.650424,-53.808075)"><polygon
     style="fill:#cccccc"
     points="14.935,124.141 14.935,26.219 131.662,26.219 131.662,75.18 146.596,75.18 146.596,11.284 0,11.284 0,139.075 73.298,139.075 73.298,124.141 "
     id="polygon1425"
     transform="matrix(0.18827743,0,0,0.18827743,25.861389,25.846803)" /><rect
     style="fill:#999999;stroke-width:0.188277"
     x="32.789234"
     y="34.272423"
     width="11.962395"
     height="2.8119235"
     id="rect1429-0" /><rect
     style="fill:#999999;stroke-width:0.188277"
     x="32.789234"
     y="39.938255"
     width="9.1286316"
     height="2.8119235"
     id="rect1431" /><g
     style="fill:#800080"
     transform="matrix(0.03243553,0,0,0.03243553,39.995568,40.169858)"
     id="g2983"><g
       style="fill:#800080"
       id="g2981"><path
         style="fill:#800080"
         d="M 386.816,323.456 316.832,309.44 C 309.408,307.968 304,301.376 304,293.76 v -16.064 c 4.608,-6.4 8.928,-14.944 13.408,-23.872 3.424,-6.752 8.576,-16.928 10.88,-19.328 13.568,-13.28 28.032,-29.76 32.448,-51.232 4,-19.456 0,-29.568 -4.64,-37.568 0,-15.648 0,-44.288 -5.44,-64.928 C 350.112,55.84 345.536,41.76 334.048,29.216 325.92,20.448 313.952,18.4 304.352,16.768 300.544,16.128 295.328,15.232 293.504,14.24 276.896,5.056 260.032,0.512 239.392,0 c -42.24,1.6 -94.08,28.384 -111.424,76.544 -5.28,14.624 -4.768,38.624 -4.384,57.92 l -0.448,11.232 c -4.064,8 -8.064,18.112 -4.032,37.536 4.416,21.568 18.88,38.016 32.384,51.232 2.336,2.432 7.552,12.672 11.008,19.424 4.544,8.896 8.896,17.44 13.504,23.84 v 16.032 c 0,7.616 -5.408,14.208 -12.864,15.68 L 93.152,323.456 C 48.448,332.384 16,371.968 16,417.568 V 448 c 0,17.632 14.368,32 32,32 h 384 c 17.632,0 32,-14.368 32,-32 v -30.432 c 0,-45.6 -32.448,-85.184 -77.184,-94.112 z"
         id="path2979" /></g></g></g></svg>
