<?xml version="1.0" encoding="UTF-8" standalone="no"?>
<svg
   xmlns:dc="http://purl.org/dc/elements/1.1/"
   xmlns:cc="http://creativecommons.org/ns#"
   xmlns:rdf="http://www.w3.org/1999/02/22-rdf-syntax-ns#"
   xmlns:svg="http://www.w3.org/2000/svg"
   xmlns="http://www.w3.org/2000/svg"
   xmlns:sodipodi="http://sodipodi.sourceforge.net/DTD/sodipodi-0.dtd"
   xmlns:inkscape="http://www.inkscape.org/namespaces/inkscape"
   version="1.1"
   id="Layer_1"
   x="0px"
   y="0px"
   width="80px"
   height="80px"
   viewBox="0 0 80 80"
   style="enable-background:new 0 0 80 80;"
   xml:space="preserve"
   sodipodi:docname="btn-nofilter.svg"
   inkscape:version="1.0 (4035a4fb49, 2020-05-01)"><metadata
   id="metadata1376"><rdf:RDF><cc:Work
       rdf:about=""><dc:format>image/svg+xml</dc:format><dc:type
         rdf:resource="http://purl.org/dc/dcmitype/StillImage" /><dc:title>Accuracy</dc:title></cc:Work></rdf:RDF></metadata><defs
   id="defs1374" /><sodipodi:namedview
   showguides="false"
   inkscape:document-rotation="0"
   pagecolor="#ffffff"
   bordercolor="#666666"
   borderopacity="1"
   objecttolerance="10"
   gridtolerance="10"
   guidetolerance="10"
   inkscape:pageopacity="0"
   inkscape:pageshadow="2"
   inkscape:window-width="1366"
   inkscape:window-height="705"
   id="namedview1372"
   showgrid="false"
   inkscape:zoom="4.7552931"
   inkscape:cx="38.915985"
   inkscape:cy="29.181835"
   inkscape:window-x="-8"
   inkscape:window-y="-8"
   inkscape:window-maximized="1"
   inkscape:current-layer="Layer_1" />
<style
   type="text/css"
   id="style1347">
	.st0{fill:#808285;}
	.st1{fill:#0E9DD8;}
</style>
<title
   id="title1349">Accuracy</title>










<g
   id="g1435"
   transform="matrix(0.18827743,0,0,0.18827743,25.166779,25.366927)" /><g
   id="g1437"
   transform="matrix(0.18827743,0,0,0.18827743,25.166779,25.366927)" /><g
   id="g1439"
   transform="matrix(0.18827743,0,0,0.18827743,25.166779,25.366927)" /><g
   id="g1441"
   transform="matrix(0.18827743,0,0,0.18827743,25.166779,25.366927)" /><g
   id="g1443"
   transform="matrix(0.18827743,0,0,0.18827743,25.166779,25.366927)" /><g
   id="g1445"
   transform="matrix(0.18827743,0,0,0.18827743,25.166779,25.366927)" /><g
   id="g1447"
   transform="matrix(0.18827743,0,0,0.18827743,25.166779,25.366927)" /><g
   id="g1449"
   transform="matrix(0.18827743,0,0,0.18827743,25.166779,25.366927)" /><g
   id="g1451"
   transform="matrix(0.18827743,0,0,0.18827743,25.166779,25.366927)" /><g
   id="g1453"
   transform="matrix(0.18827743,0,0,0.18827743,25.166779,25.366927)" /><g
   id="g1455"
   transform="matrix(0.18827743,0,0,0.18827743,25.166779,25.366927)" /><g
   id="g1457"
   transform="matrix(0.18827743,0,0,0.18827743,25.166779,25.366927)" /><g
   id="g1459"
   transform="matrix(0.18827743,0,0,0.18827743,25.166779,25.366927)" /><g
   id="g1461"
   transform="matrix(0.18827743,0,0,0.18827743,25.166779,25.366927)" /><g
   id="g1463"
   transform="matrix(0.18827743,0,0,0.18827743,25.166779,25.366927)" /><polygon
   style="fill:#b3b3b3"
   points="146.596,11.284 0,11.284 0,139.075 73.298,139.075 73.298,124.141 14.935,124.141 14.935,26.219 131.662,26.219 131.662,75.18 146.596,75.18 "
   id="polygon1425"
   transform="matrix(0.39339048,0,0,0.39339048,7.2638237,8.1895724)" /><path
   style="fill:#000080;stroke-width:0.0765608"
   d="m 24.236151,40.56093 c 0.544718,8.214008 7.670516,14.453479 15.884525,13.908761 3.695437,-0.245066 6.990754,-1.822698 9.448843,-4.231643 l 1.872174,1.639308 -1.512916,1.727829 9.09165,7.960805 c 1.429118,1.25136 3.609834,1.106744 4.861271,-0.322379 1.251284,-1.429113 1.106821,-3.609839 -0.322379,-4.861271 l -9.09165,-7.960804 -1.512835,1.7279 -1.872175,-1.639308 c 2.063252,-2.754743 3.191844,-6.229525 2.946778,-9.924962 C 53.484719,30.371157 46.358921,24.131687 38.144912,24.676405 29.930904,25.221123 23.691433,32.346921 24.236151,40.56093 Z m 37.81019,17.549473 c 0.476297,0.417125 0.52449,1.143852 0.107447,1.62022 -0.417126,0.476296 -1.143929,0.524495 -1.62022,0.107446 l -7.363582,-6.44775 1.512702,-1.727585 z M 51.737646,38.737148 c 0.460915,6.950315 -4.818637,12.979836 -11.768952,13.440751 -6.950315,0.460916 -12.979836,-4.818636 -13.440751,-11.768951 -0.460916,-6.950315 4.818636,-12.979837 11.768951,-13.440752 6.950315,-0.460915 12.979837,4.818637 13.440752,11.768952 z"
   id="path848" /><path
   style="fill:#000080;stroke-width:0.177574"
   d="m 29.600956,34.964348 5.668062,4.963051 -4.963053,5.668062 4.007899,3.509553 4.963053,-5.668062 5.668063,4.963051 3.509363,-4.008064 -5.668062,-4.963051 4.963051,-5.668062 -4.007888,-3.509376 -4.963051,5.668062 -5.668063,-4.963052 z"
   id="path852" /></svg>
