<?xml version="1.0" encoding="UTF-8" standalone="no"?>
<svg
   xmlns:dc="http://purl.org/dc/elements/1.1/"
   xmlns:cc="http://creativecommons.org/ns#"
   xmlns:rdf="http://www.w3.org/1999/02/22-rdf-syntax-ns#"
   xmlns:svg="http://www.w3.org/2000/svg"
   xmlns="http://www.w3.org/2000/svg"
   xmlns:sodipodi="http://sodipodi.sourceforge.net/DTD/sodipodi-0.dtd"
   xmlns:inkscape="http://www.inkscape.org/namespaces/inkscape"
   inkscape:version="1.0 (4035a4fb49, 2020-05-01)"
   sodipodi:docname="btn-edit.svg"
   xml:space="preserve"
   style="enable-background:new 0 0 80 80;"
   viewBox="0 0 80 80"
   height="80px"
   width="80px"
   y="0px"
   x="0px"
   id="Layer_1"
   version="1.1"><metadata
   id="metadata1376"><rdf:RDF><cc:Work
       rdf:about=""><dc:format>image/svg+xml</dc:format><dc:type
         rdf:resource="http://purl.org/dc/dcmitype/StillImage" /><dc:title>Accuracy</dc:title></cc:Work></rdf:RDF></metadata><defs
   id="defs1374" /><sodipodi:namedview
   inkscape:current-layer="Layer_1"
   inkscape:window-maximized="1"
   inkscape:window-y="-8"
   inkscape:window-x="-8"
   inkscape:cy="29.181835"
   inkscape:cx="38.915985"
   inkscape:zoom="4.7552931"
   showgrid="false"
   id="namedview1372"
   inkscape:window-height="705"
   inkscape:window-width="1366"
   inkscape:pageshadow="2"
   inkscape:pageopacity="0"
   guidetolerance="10"
   gridtolerance="10"
   objecttolerance="10"
   borderopacity="1"
   bordercolor="#666666"
   pagecolor="#ffffff"
   inkscape:document-rotation="0" />
<style
   id="style1347"
   type="text/css">
	.st0{fill:#808285;}
	.st1{fill:#0E9DD8;}
</style>
<title
   id="title1349">Accuracy</title>










<g
   transform="matrix(0.18827743,0,0,0.18827743,25.166779,25.366927)"
   id="g1435" /><g
   transform="matrix(0.18827743,0,0,0.18827743,25.166779,25.366927)"
   id="g1437" /><g
   transform="matrix(0.18827743,0,0,0.18827743,25.166779,25.366927)"
   id="g1439" /><g
   transform="matrix(0.18827743,0,0,0.18827743,25.166779,25.366927)"
   id="g1441" /><g
   transform="matrix(0.18827743,0,0,0.18827743,25.166779,25.366927)"
   id="g1443" /><g
   transform="matrix(0.18827743,0,0,0.18827743,25.166779,25.366927)"
   id="g1445" /><g
   transform="matrix(0.18827743,0,0,0.18827743,25.166779,25.366927)"
   id="g1447" /><g
   transform="matrix(0.18827743,0,0,0.18827743,25.166779,25.366927)"
   id="g1449" /><g
   transform="matrix(0.18827743,0,0,0.18827743,25.166779,25.366927)"
   id="g1451" /><g
   transform="matrix(0.18827743,0,0,0.18827743,25.166779,25.366927)"
   id="g1453" /><g
   transform="matrix(0.18827743,0,0,0.18827743,25.166779,25.366927)"
   id="g1455" /><g
   transform="matrix(0.18827743,0,0,0.18827743,25.166779,25.366927)"
   id="g1457" /><g
   transform="matrix(0.18827743,0,0,0.18827743,25.166779,25.366927)"
   id="g1459" /><g
   transform="matrix(0.18827743,0,0,0.18827743,25.166779,25.366927)"
   id="g1461" /><g
   transform="matrix(0.18827743,0,0,0.18827743,25.166779,25.366927)"
   id="g1463" /><g
   transform="matrix(2.2984536,0,0,2.2984536,-52.823952,-54.171125)"
   id="g4280"><polygon
     transform="matrix(0.18827743,0,0,0.18827743,25.861389,25.846803)"
     id="polygon1425-6"
     points="14.935,26.219 131.662,26.219 131.662,75.18 146.596,75.18 146.596,11.284 0,11.284 0,139.075 73.298,139.075 73.298,124.141 14.935,124.141 "
     style="fill:#b3b3b3" /><rect
     id="rect1429"
     height="2.8119235"
     width="11.962395"
     y="34.272423"
     x="32.789234"
     style="fill:#999999;stroke-width:0.188277" /><path
     d="m 53.774599,47.491212 c 1.496824,1.496813 1.496824,3.93374 -7.93e-4,5.431556 -0.748789,0.748782 -1.732646,1.123427 -2.716273,1.123427 -0.983627,0 -1.967499,-0.374645 -2.716281,-1.123427 L 41.339126,45.90761 c -0.156056,-0.156312 -0.26886,-0.350133 -0.327628,-0.562962 l -1.431794,-5.168207 c -0.124542,-0.450173 0.0056,-0.932359 0.33988,-1.258479 0.334127,-0.325874 0.819301,-0.444377 1.266224,-0.308619 l 5.040421,1.531082 c 0.201831,0.06127 0.385394,0.171316 0.534204,0.320622 z m -10.38543,-3.154695 4.706779,4.715534 1.811189,-1.811184 -4.733047,-4.74355 -2.505196,-0.761038 z m 8.573494,4.964628 -0.24659,-0.247343 -1.810936,1.810936 0.247591,0.248094 c 0.498436,0.498442 1.310754,0.498442 1.809935,-0.0011 0.499445,-0.499189 0.499445,-1.311494 0,-1.810686 z"
     id="path1554"
     style="fill:#0088aa;stroke-width:0.0640242"
     sodipodi:nodetypes="cssccccssccccccccccccccsc" /></g></svg>
