<?xml version="1.0" encoding="UTF-8" standalone="no"?>
<svg
   xmlns:dc="http://purl.org/dc/elements/1.1/"
   xmlns:cc="http://creativecommons.org/ns#"
   xmlns:rdf="http://www.w3.org/1999/02/22-rdf-syntax-ns#"
   xmlns:svg="http://www.w3.org/2000/svg"
   xmlns="http://www.w3.org/2000/svg"
   xmlns:sodipodi="http://sodipodi.sourceforge.net/DTD/sodipodi-0.dtd"
   xmlns:inkscape="http://www.inkscape.org/namespaces/inkscape"
   version="1.1"
   id="Layer_1"
   x="0px"
   y="0px"
   width="80px"
   height="80px"
   viewBox="0 0 80 80"
   style="enable-background:new 0 0 80 80;"
   xml:space="preserve"
   sodipodi:docname="btn-filter.svg"
   inkscape:version="1.0 (4035a4fb49, 2020-05-01)"><metadata
   id="metadata1376"><rdf:RDF><cc:Work
       rdf:about=""><dc:format>image/svg+xml</dc:format><dc:type
         rdf:resource="http://purl.org/dc/dcmitype/StillImage" /><dc:title>Accuracy</dc:title></cc:Work></rdf:RDF></metadata><defs
   id="defs1374" /><sodipodi:namedview
   inkscape:document-rotation="0"
   pagecolor="#ffffff"
   bordercolor="#666666"
   borderopacity="1"
   objecttolerance="10"
   gridtolerance="10"
   guidetolerance="10"
   inkscape:pageopacity="0"
   inkscape:pageshadow="2"
   inkscape:window-width="1366"
   inkscape:window-height="705"
   id="namedview1372"
   showgrid="false"
   inkscape:zoom="4.7552931"
   inkscape:cx="59.918217"
   inkscape:cy="25.313122"
   inkscape:window-x="-8"
   inkscape:window-y="-8"
   inkscape:window-maximized="1"
   inkscape:current-layer="Layer_1" />
<style
   type="text/css"
   id="style1347">
	.st0{fill:#808285;}
	.st1{fill:#0E9DD8;}
</style>
<title
   id="title1349">Accuracy</title>










<g
   id="g1435"
   transform="matrix(0.18827743,0,0,0.18827743,25.166779,25.366927)" /><g
   id="g1437"
   transform="matrix(0.18827743,0,0,0.18827743,25.166779,25.366927)" /><g
   id="g1439"
   transform="matrix(0.18827743,0,0,0.18827743,25.166779,25.366927)" /><g
   id="g1441"
   transform="matrix(0.18827743,0,0,0.18827743,25.166779,25.366927)" /><g
   id="g1443"
   transform="matrix(0.18827743,0,0,0.18827743,25.166779,25.366927)" /><g
   id="g1445"
   transform="matrix(0.18827743,0,0,0.18827743,25.166779,25.366927)" /><g
   id="g1447"
   transform="matrix(0.18827743,0,0,0.18827743,25.166779,25.366927)" /><g
   id="g1449"
   transform="matrix(0.18827743,0,0,0.18827743,25.166779,25.366927)" /><g
   id="g1451"
   transform="matrix(0.18827743,0,0,0.18827743,25.166779,25.366927)" /><g
   id="g1453"
   transform="matrix(0.18827743,0,0,0.18827743,25.166779,25.366927)" /><g
   id="g1455"
   transform="matrix(0.18827743,0,0,0.18827743,25.166779,25.366927)" /><g
   id="g1457"
   transform="matrix(0.18827743,0,0,0.18827743,25.166779,25.366927)" /><g
   id="g1459"
   transform="matrix(0.18827743,0,0,0.18827743,25.166779,25.366927)" /><g
   id="g1461"
   transform="matrix(0.18827743,0,0,0.18827743,25.166779,25.366927)" /><g
   id="g1463"
   transform="matrix(0.18827743,0,0,0.18827743,25.166779,25.366927)" /><path
   style="stroke-width:3.53385827;fill:#000080;stroke-miterlimit:4;stroke-dasharray:none"
   d="m 61.999511,17.699369 h -46.1241 c -0.813505,-0.001 -1.559298,0.452911 -1.931172,1.176655 -0.377008,0.733491 -0.310831,1.616752 0.170806,2.286643 l 16.897919,23.803998 c 0.0052,0.0083 0.01179,0.01586 0.01743,0.0241 0.613971,0.828895 0.945838,1.832688 0.947893,2.864707 v 19.407176 c -0.0031,0.574987 0.222094,1.126902 0.627307,1.534682 0.405213,0.40778 0.956106,0.636541 1.530581,0.636541 0.292372,0 0.581144,-0.05843 0.850945,-0.170295 l 9.495341,-3.620758 c 0.850945,-0.259544 1.415684,-1.06228 1.415684,-2.029144 V 47.855477 c 10e-4,-1.031497 0.333913,-2.035812 0.947383,-2.864707 0.0052,-0.0083 0.01179,-0.01586 0.01743,-0.0241 L 63.760357,21.161634 c 0.481647,-0.669369 0.547814,-1.552119 0.170806,-2.28561 C 63.559289,18.15228 62.813496,17.697825 61.99948,17.699369 Z M 44.728175,43.435061 c -0.943793,1.280773 -1.454157,2.829313 -1.457236,4.420416 v 15.439159 l -8.666445,3.304283 V 47.855477 c -0.0031,-1.591103 -0.513443,-3.139643 -1.457747,-4.420416 L 16.741746,20.325559 h 44.391941 z m 0,0"
   id="path1607" /></svg>
