<?xml version="1.0" encoding="UTF-8" standalone="no"?>
<svg
   xmlns:dc="http://purl.org/dc/elements/1.1/"
   xmlns:cc="http://creativecommons.org/ns#"
   xmlns:rdf="http://www.w3.org/1999/02/22-rdf-syntax-ns#"
   xmlns:svg="http://www.w3.org/2000/svg"
   xmlns="http://www.w3.org/2000/svg"
   xmlns:sodipodi="http://sodipodi.sourceforge.net/DTD/sodipodi-0.dtd"
   xmlns:inkscape="http://www.inkscape.org/namespaces/inkscape"
   version="1.1"
   id="Layer_1"
   x="0px"
   y="0px"
   width="80px"
   height="80px"
   viewBox="0 0 80 80"
   style="enable-background:new 0 0 80 80;"
   xml:space="preserve"
   sodipodi:docname="btn-reset.svg"
   inkscape:version="1.0 (4035a4fb49, 2020-05-01)"><metadata
   id="metadata1376"><rdf:RDF><cc:Work
       rdf:about=""><dc:format>image/svg+xml</dc:format><dc:type
         rdf:resource="http://purl.org/dc/dcmitype/StillImage" /><dc:title>Accuracy</dc:title></cc:Work></rdf:RDF></metadata><defs
   id="defs1374" /><sodipodi:namedview
   inkscape:document-rotation="0"
   pagecolor="#ffffff"
   bordercolor="#666666"
   borderopacity="1"
   objecttolerance="10"
   gridtolerance="10"
   guidetolerance="10"
   inkscape:pageopacity="0"
   inkscape:pageshadow="2"
   inkscape:window-width="1366"
   inkscape:window-height="705"
   id="namedview1372"
   showgrid="false"
   inkscape:zoom="3.3625"
   inkscape:cx="51.338093"
   inkscape:cy="36.775668"
   inkscape:window-x="-8"
   inkscape:window-y="-8"
   inkscape:window-maximized="1"
   inkscape:current-layer="g900" />
<style
   type="text/css"
   id="style1347">
	.st0{fill:#808285;}
	.st1{fill:#0E9DD8;}
</style>
<title
   id="title1349">Accuracy</title>










<g
   id="g1435"
   transform="matrix(0.18827743,0,0,0.18827743,25.166779,25.366927)" /><g
   id="g1437"
   transform="matrix(0.18827743,0,0,0.18827743,25.166779,25.366927)" /><g
   id="g1439"
   transform="matrix(0.18827743,0,0,0.18827743,25.166779,25.366927)" /><g
   id="g1441"
   transform="matrix(0.18827743,0,0,0.18827743,25.166779,25.366927)" /><g
   id="g1443"
   transform="matrix(0.18827743,0,0,0.18827743,25.166779,25.366927)" /><g
   id="g1445"
   transform="matrix(0.18827743,0,0,0.18827743,25.166779,25.366927)" /><g
   id="g1447"
   transform="matrix(0.18827743,0,0,0.18827743,25.166779,25.366927)" /><g
   id="g1449"
   transform="matrix(0.18827743,0,0,0.18827743,25.166779,25.366927)" /><g
   id="g1451"
   transform="matrix(0.18827743,0,0,0.18827743,25.166779,25.366927)" /><g
   id="g1453"
   transform="matrix(0.18827743,0,0,0.18827743,25.166779,25.366927)" /><g
   id="g1455"
   transform="matrix(0.18827743,0,0,0.18827743,25.166779,25.366927)" /><g
   id="g1457"
   transform="matrix(0.18827743,0,0,0.18827743,25.166779,25.366927)" /><g
   id="g1459"
   transform="matrix(0.18827743,0,0,0.18827743,25.166779,25.366927)" /><g
   id="g1461"
   transform="matrix(0.18827743,0,0,0.18827743,25.166779,25.366927)" /><g
   id="g1463"
   transform="matrix(0.18827743,0,0,0.18827743,25.166779,25.366927)" /><polygon
   transform="matrix(0.43274694,0,0,0.43274694,6.6172506,5.2365524)"
   id="polygon1425-6"
   points="131.662,75.18 146.596,75.18 146.596,11.284 0,11.284 0,139.075 73.298,139.075 73.298,124.141 14.935,124.141 14.935,26.219 131.662,26.219 "
   style="fill:#b3b3b3" /><rect
   id="rect1429"
   height="6.4630756"
   width="27.495008"
   y="24.602449"
   x="22.540581"
   style="fill:#999999;stroke-width:0.432746" /><g
   transform="matrix(0.0648858,0,0,0.0648858,39.278031,36.94972)"
   id="g900"
   style="fill:#d40000"><path
     class="st0"
     d="m 256,262.6 42.7,42.7 62.4,-62.4 L 407,197 452.9,154.3 298.7,0 256,39.4 l 85.3,78.8 h -82.1 c 0,0 0,0 -3.3,0 h -3.3 c -55.8,0 -108.3,26.3 -144.4,65.6 C 75.4,219.9 59,265.9 59,315.1 59.1,423.4 147.7,512 256,512 c 52.5,0 98.5,-19.7 131.3,-52.5 l -45.9,-46 c -23,19.7 -52.5,32.8 -85.3,32.8 -72.2,0 -131.3,-59.1 -131.3,-131.3 0,-72.2 59.1,-131.3 131.3,-131.3 h 3.3 88.6 l -19.7,19.7 z"
     id="path898"
     style="fill:#d40000" /></g></svg>
