<?xml version="1.0" encoding="UTF-8" standalone="no"?>
<svg
   xmlns:dc="http://purl.org/dc/elements/1.1/"
   xmlns:cc="http://creativecommons.org/ns#"
   xmlns:rdf="http://www.w3.org/1999/02/22-rdf-syntax-ns#"
   xmlns:svg="http://www.w3.org/2000/svg"
   xmlns="http://www.w3.org/2000/svg"
   xmlns:sodipodi="http://sodipodi.sourceforge.net/DTD/sodipodi-0.dtd"
   xmlns:inkscape="http://www.inkscape.org/namespaces/inkscape"
   inkscape:version="1.0 (4035a4fb49, 2020-05-01)"
   sodipodi:docname="counting-main.svg"
   version="1.1"
   viewBox="0 0 130 130"
   height="130"
   width="130"
   data-name="Layer 1"
   id="Layer_1">
  <metadata
     id="metadata2745">
    <rdf:RDF>
      <cc:Work
         rdf:about="">
        <dc:format>image/svg+xml</dc:format>
        <dc:type
           rdf:resource="http://purl.org/dc/dcmitype/StillImage" />
        <dc:title>Finance</dc:title>
      </cc:Work>
    </rdf:RDF>
  </metadata>
  <sodipodi:namedview
     inkscape:current-layer="Layer_1"
     inkscape:window-maximized="0"
     inkscape:window-y="0"
     inkscape:window-x="76"
     inkscape:cy="71.076496"
     inkscape:cx="62.603792"
     inkscape:zoom="3.9615385"
     showgrid="false"
     id="namedview2743"
     inkscape:window-height="728"
     inkscape:window-width="1274"
     inkscape:pageshadow="2"
     inkscape:pageopacity="0"
     guidetolerance="10"
     gridtolerance="10"
     objecttolerance="10"
     borderopacity="1"
     bordercolor="#666666"
     pagecolor="#ffffff"
     inkscape:document-rotation="0" />
  <defs
     id="defs2715">
    <style
       id="style2713">.cls-1{fill:#fff;}</style>
  </defs>
  <title
     id="title2717">Finance</title>
  <ellipse
     ry="62.60194"
     rx="62.223301"
     cy="65.378639"
     cx="65"
     id="path2747"
     style="fill:#0055d4;stroke:#00ccff;stroke-width:1.178;stroke-linejoin:round;stroke-miterlimit:4;stroke-dasharray:none" />
  <g
     id="g1252"
     transform="matrix(0.16418894,0,0,0.16418894,26.401738,21.857896)"
     style="fill:#d5e5ff">
    <path
       d="m 142.317,91.169 c -5.436,-11.684 -0.353,-25.612 11.331,-31.047 5.658,-2.634 12.006,-2.905 17.87,-0.765 5.864,2.14 10.543,6.436 13.177,12.095 l 73.961,158.962 c 1.722,3.701 5.703,5.668 9.694,4.789 3.985,-0.882 6.77,-4.349 6.77,-8.431 V 38.37 c 0,-12.886 10.483,-23.37 23.37,-23.37 12.887,0 23.37,10.484 23.37,23.37 v 127.153 c 0,4.142 3.357,7.5 7.5,7.5 4.143,0 7.5,-3.358 7.5,-7.5 V 38.37 C 336.86,17.213 319.647,0 298.49,0 277.333,0 260.12,17.213 260.12,38.37 V 198.003 L 198.294,65.124 c -4.323,-9.292 -12.006,-16.345 -21.634,-19.858 -9.628,-3.515 -20.048,-3.068 -29.341,1.256 -19.182,8.924 -27.527,31.792 -18.603,50.975 l 48.452,104.136 -60.088,-66.896 c -6.858,-7.635 -16.28,-12.137 -26.529,-12.675 -10.24,-0.535 -20.09,2.951 -27.709,9.825 -15.681,14.144 -16.952,38.428 -2.836,54.133 l 32.641,36.313 c -8.496,0.594 -16.525,3.976 -22.955,9.776 -7.61,6.865 -12.092,16.282 -12.618,26.518 -0.527,10.235 2.964,20.063 9.828,27.673 l 21.019,23.301 c 0,0 0.042,63.343 0.131,65.597 0.16,4.038 3.483,7.203 7.489,7.203 0.1,0 0.201,-0.002 0.302,-0.006 4.139,-0.164 7.361,-3.652 7.197,-7.791 -0.081,-2.052 -0.119,-48.527 -0.119,-48.527 7.371,7.122 16.994,10.749 26.656,10.749 9.164,0 18.359,-3.255 25.683,-9.862 7.61,-6.865 12.092,-16.283 12.618,-26.518 0.527,-10.235 -2.964,-20.063 -9.828,-27.673 L 71.162,175.992 c -8.598,-9.564 -7.823,-24.354 1.727,-32.968 4.64,-4.186 10.625,-6.318 16.875,-5.983 6.242,0.328 11.979,3.069 16.156,7.719 l 87.747,97.688 c 2.942,3.277 7.746,3.897 11.422,1.47 3.678,-2.426 4.999,-7.086 3.141,-11.084 z M 152.9,299.676 c -0.321,6.234 -3.051,11.97 -7.686,16.151 -9.568,8.632 -24.377,7.869 -33.007,-1.699 L 78.042,276.253 c -4.182,-4.635 -6.308,-10.621 -5.987,-16.855 0.321,-6.234 3.051,-11.97 7.686,-16.151 4.33,-3.906 9.838,-6.018 15.626,-6.018 0.408,0 0.818,0.011 1.229,0.032 6.233,0.321 11.97,3.05 16.15,7.686 l 34.166,37.875 c 4.182,4.634 6.308,10.619 5.988,16.854 z"
       id="path1244"
       style="fill:#d5e5ff" />
    <path
       d="m 447.557,203.814 -0.514,-0.41 c -14.16,-11.279 -34.583,-10.225 -47.507,2.449 l -48.167,47.24 c -4.853,-0.324 -9.695,-0.373 -14.51,-0.184 v -55.3 c 0,-4.142 -3.357,-7.5 -7.5,-7.5 -4.143,0 -7.5,3.358 -7.5,7.5 v 56.709 c -32.984,4.934 -63.609,21.7 -85.472,47.609 l -10.435,12.365 c -2.672,3.166 -2.271,7.897 0.895,10.569 3.166,2.671 7.897,2.271 10.568,-0.895 l 10.436,-12.365 c 25.304,-29.988 63.78,-46.251 102.922,-43.513 3.984,0.277 7.92,-1.167 10.776,-3.968 l 48.49,-47.557 c 7.522,-7.379 19.413,-7.992 27.651,-1.43 l 0.514,0.41 c 8.636,6.879 10.829,19.118 5.102,28.469 -17.718,28.935 -49.208,80.386 -71.906,117.474 -4.061,6.635 -8.561,13.201 -13.374,19.513 -2.512,3.294 -1.878,8 1.416,10.512 1.358,1.036 2.957,1.537 4.542,1.537 2.26,0 4.494,-1.017 5.97,-2.953 5.123,-6.718 9.914,-13.709 14.241,-20.779 22.696,-37.087 54.187,-88.538 71.903,-117.471 9.676,-15.797 6.001,-36.447 -8.541,-48.031 z"
       id="path1246"
       style="fill:#d5e5ff" />
    <path
       d="m 337.649,404.305 c -10.396,10.395 -21.812,19.823 -33.937,28.024 l -0.303,0.205 c -4.215,2.852 -6.73,7.554 -6.73,12.58 v 59.066 c 0,4.142 3.357,7.5 7.5,7.5 4.143,0 7.5,-3.358 7.5,-7.5 v -59.066 c 0,-0.056 0.086,-0.123 0.138,-0.158 l 0.302,-0.205 c 12.91,-8.733 25.068,-18.772 36.136,-29.839 2.93,-2.929 2.93,-7.678 10e-4,-10.607 -2.93,-2.928 -7.679,-2.929 -10.607,0 z"
       id="path1248"
       style="fill:#d5e5ff" />
    <path
       d="m 117.988,431.428 c -4.256,-8.263 -7.673,-17.008 -10.157,-25.993 -1.103,-3.993 -5.236,-6.335 -9.227,-5.231 -3.992,1.104 -6.334,5.235 -5.23,9.227 2.757,9.977 6.552,19.688 11.279,28.867 l 1.15,2.233 c 1.432,2.778 2.188,5.898 2.188,9.024 v 54.626 c 0,4.142 3.357,7.5 7.5,7.5 4.143,0 7.5,-3.358 7.5,-7.5 v -54.626 c 0,-5.504 -1.332,-10.999 -3.853,-15.894 z"
       id="path1250"
       style="fill:#d5e5ff" />
  </g>
</svg>
