<?xml version="1.0" encoding="UTF-8" standalone="no"?>
<svg
   xmlns:dc="http://purl.org/dc/elements/1.1/"
   xmlns:cc="http://creativecommons.org/ns#"
   xmlns:rdf="http://www.w3.org/1999/02/22-rdf-syntax-ns#"
   xmlns:svg="http://www.w3.org/2000/svg"
   xmlns="http://www.w3.org/2000/svg"
   xmlns:sodipodi="http://sodipodi.sourceforge.net/DTD/sodipodi-0.dtd"
   xmlns:inkscape="http://www.inkscape.org/namespaces/inkscape"
   inkscape:version="1.0 (4035a4fb49, 2020-05-01)"
   sodipodi:docname="counting-sub.svg"
   version="1.1"
   viewBox="0 0 130 130"
   height="130"
   width="130"
   data-name="Layer 1"
   id="Layer_1">
  <metadata
     id="metadata2745">
    <rdf:RDF>
      <cc:Work
         rdf:about="">
        <dc:format>image/svg+xml</dc:format>
        <dc:type
           rdf:resource="http://purl.org/dc/dcmitype/StillImage" />
        <dc:title>Finance</dc:title>
      </cc:Work>
    </rdf:RDF>
  </metadata>
  <sodipodi:namedview
     inkscape:current-layer="Layer_1"
     inkscape:window-maximized="0"
     inkscape:window-y="0"
     inkscape:window-x="76"
     inkscape:cy="71.076496"
     inkscape:cx="62.603792"
     inkscape:zoom="3.9615385"
     showgrid="false"
     id="namedview2743"
     inkscape:window-height="728"
     inkscape:window-width="1274"
     inkscape:pageshadow="2"
     inkscape:pageopacity="0"
     guidetolerance="10"
     gridtolerance="10"
     objecttolerance="10"
     borderopacity="1"
     bordercolor="#666666"
     pagecolor="#ffffff"
     inkscape:document-rotation="0" />
  <defs
     id="defs2715">
    <style
       id="style2713">.cls-1{fill:#fff;}</style>
  </defs>
  <title
     id="title2717">Finance</title>
  <ellipse
     ry="62.60194"
     rx="62.223301"
     cy="65.378639"
     cx="65"
     id="path2747"
     style="fill:#0055d4;stroke:#00ccff;stroke-width:1.178;stroke-linejoin:round;stroke-miterlimit:4;stroke-dasharray:none" />
  <g
     transform="matrix(1.0467866,0,0,1.0467866,-1.4937255,-4.7124894)"
     id="g134">
    <path
       id="path887"
       d="m 50.270639,43.733706 c 3.544096,0 6.4272,-2.88368 6.4272,-6.4272 0,-3.54409 -2.883104,-6.427199 -6.4272,-6.427199 -3.543518,0 -6.427201,2.883109 -6.427201,6.427199 0,3.54352 2.883683,6.4272 6.427201,6.4272 z m 0,-9.889463 c 1.909204,0 3.462263,1.553066 3.462263,3.462263 0,1.908626 -1.553059,3.461686 -3.462263,3.461686 -1.90862,0 -3.461688,-1.55306 -3.461688,-3.461686 0,-1.909197 1.553068,-3.462263 3.461688,-3.462263 z m 0,0"
       style="fill:#d5e5ff;stroke-width:0.147526" />
    <path
       id="path889"
       d="m 67.854531,30.879307 c -3.544089,0 -6.427198,2.883109 -6.427198,6.427199 0,3.54352 2.883109,6.4272 6.427198,6.4272 3.544096,0 6.427205,-2.88368 6.427205,-6.4272 0,-3.54409 -2.883686,-6.427199 -6.427205,-6.427199 z m 0,9.888885 c -1.909198,0 -3.462261,-1.55306 -3.462261,-3.461686 0,-1.909197 1.553063,-3.462263 3.462261,-3.462263 1.908626,0 3.461691,1.553066 3.461691,3.462263 0,1.908626 -1.553065,3.461686 -3.461691,3.461686 z m 0,0"
       style="fill:#d5e5ff;stroke-width:0.147526" />
    <path
       id="path891"
       d="m 85.437853,43.733706 c 3.54409,0 6.427199,-2.88368 6.427199,-6.4272 0,-3.54409 -2.883109,-6.427199 -6.427199,-6.427199 -3.544097,0 -6.4272,2.883109 -6.4272,6.427199 0,3.54352 2.883103,6.4272 6.4272,6.4272 z m 0,-9.889463 c 1.90862,0 3.462263,1.553066 3.462263,3.462263 0,1.908626 -1.553643,3.461686 -3.462263,3.461686 -1.909204,0 -3.462264,-1.55306 -3.462264,-3.461686 0,-1.909197 1.55306,-3.462263 3.462264,-3.462263 z m 0,0"
       style="fill:#d5e5ff;stroke-width:0.147526" />
    <path
       id="path893"
       d="m 67.854531,46.167319 c -3.544089,0 -6.427198,2.883108 -6.427198,6.427199 0,3.544096 2.883109,6.427205 6.427198,6.427205 3.544096,0 6.427205,-2.883109 6.427205,-6.427205 0,-3.544091 -2.883686,-6.427199 -6.427205,-6.427199 z m 0,9.889462 c -1.909198,0 -3.462261,-1.553059 -3.462261,-3.462263 0,-1.908625 1.553063,-3.461685 3.462261,-3.461685 1.908626,0 3.461691,1.55306 3.461691,3.461685 0,1.909204 -1.553065,3.462263 -3.461691,3.462263 z m 0,0"
       style="fill:#d5e5ff;stroke-width:0.147526" />
    <path
       id="path895"
       d="m 85.437853,46.167319 c -3.544097,0 -6.4272,2.883108 -6.4272,6.427199 0,3.544096 2.883103,6.427205 6.4272,6.427205 3.54409,0 6.427199,-2.883109 6.427199,-6.427205 0,-3.544091 -2.883109,-6.427199 -6.427199,-6.427199 z m 0,9.889462 c -1.909204,0 -3.462264,-1.553059 -3.462264,-3.462263 0,-1.908625 1.55306,-3.461685 3.462264,-3.461685 1.90862,0 3.462263,1.55306 3.462263,3.461685 0,1.909204 -1.553643,3.462263 -3.462263,3.462263 z m 0,0"
       style="fill:#d5e5ff;stroke-width:0.147526" />
    <path
       id="path897"
       d="m 85.437853,61.455331 c -3.544097,0 -6.4272,2.883686 -6.4272,6.427204 0,3.544091 2.883103,6.427195 6.4272,6.427195 3.54409,0 6.427199,-2.883104 6.427199,-6.427195 0,-3.543518 -2.883109,-6.427204 -6.427199,-6.427204 z m 0,9.889462 c -1.909204,0 -3.462264,-1.55306 -3.462264,-3.462258 0,-1.909202 1.55306,-3.46169 3.462264,-3.46169 1.90862,0 3.462263,1.552488 3.462263,3.46169 0,1.909198 -1.553643,3.462258 -3.462263,3.462258 z m 0,0"
       style="fill:#d5e5ff;stroke-width:0.147526" />
    <path
       id="path899"
       d="m 71.074184,91.104704 0.563596,-0.777395 c 0.913974,-1.260312 1.479877,-2.389234 1.479877,-4.118063 0,-0.818884 -0.663867,-1.482756 -1.482179,-1.482756 -0.81889,0 -1.482758,0.663872 -1.482758,1.482756 0,0.864988 -0.205155,1.398044 -0.915127,2.377714 l -0.564172,0.777396 c -0.662142,0.913973 -1.012514,1.993339 -1.012514,3.122261 v 3.975149 h -18.51631 v -3.165482 c 0,-1.72076 -0.670204,-3.338364 -1.886724,-4.554884 l -2.708497,-2.708494 c -1.026343,-1.026348 -1.591674,-2.390965 -1.591674,-3.842028 v -1.513873 c 0,-2.762667 -0.53248,-5.45906 -1.583604,-8.013694 l -2.438791,-5.931027 c -0.112378,-0.272579 -0.08533,-0.583765 0.0726,-0.83214 0.217261,-0.343458 0.640247,-0.50136 1.029227,-0.384952 1.270686,0.381495 2.315478,1.234382 2.943616,2.402495 l 0.539394,1.003869 c 0.783155,1.457977 1.335231,3.022567 1.64008,4.649393 l 0.271425,1.446451 c 0.140617,0.752615 0.832144,1.274723 1.593975,1.203266 0.762423,-0.07089 1.345607,-0.71055 1.345607,-1.476422 V 50.597728 c 0,-0.402243 0.149833,-0.786618 0.422411,-1.082823 l 0.01961,-0.02191 c 0.289291,-0.314643 0.684614,-0.498474 1.112215,-0.515765 0.42932,-0.01788 0.836173,0.131967 1.151394,0.421835 0.3279,0.301965 0.515771,0.731291 0.515771,1.17733 v 19.098344 c 0,0.81889 0.663867,1.482758 1.482756,1.482758 0.818885,0 1.482757,-0.663868 1.482757,-1.482758 v -9.003726 c 0,-0.383227 0.169998,-0.742244 0.467357,-0.984854 0.683461,-0.557835 1.661978,-0.500783 2.276866,0.131967 0.30773,0.316375 0.47715,0.734176 0.47715,1.175598 v 9.540244 c 0,0.818885 0.663874,1.482758 1.482763,1.482758 0.818307,0 1.48218,-0.663873 1.48218,-1.482758 v -5.845165 c 0,-0.56936 0.136,-1.083971 0.403968,-1.531165 0.206304,-0.344606 0.533632,-0.586644 0.921464,-0.681156 0.368816,-0.0899 0.746278,-0.03171 1.060922,0.161935 l 0.107763,0.06742 c 0.401665,0.251255 0.641394,0.683467 0.641394,1.15716 v 8.217692 c 0,0.818884 0.663873,1.482757 1.482756,1.482757 0.81889,0 1.482757,-0.663873 1.482757,-1.482757 v -2.629546 c 0,-0.540546 0.16309,-1.060921 0.471397,-1.505229 0.363052,-0.522684 0.970443,-0.791806 1.547872,-0.68462 0.2818,0.05188 0.545157,0.180952 0.760688,0.373428 0.335391,0.29909 0.52729,0.727839 0.52729,1.176752 v 5.712622 c 0,0.81889 0.663867,1.482758 1.482756,1.482758 0.818313,0 1.48218,-0.663868 1.48218,-1.482758 v -5.712622 c 0,-1.293161 -0.553225,-2.528691 -1.518485,-3.389652 -0.621225,-0.553801 -1.380177,-0.926069 -2.195609,-1.07648 -0.874211,-0.161359 -1.761672,-0.04723 -2.558089,0.297359 v -0.779127 c 0,-1.502927 -0.761259,-2.875612 -2.035403,-3.672023 l -0.122168,-0.07607 c -0.997532,-0.614312 -2.176593,-0.798719 -3.321079,-0.519227 -0.263934,0.06396 -0.518645,0.151559 -0.762409,0.259322 -0.19651,-0.785463 -0.597598,-1.509264 -1.175026,-2.103982 -1.305269,-1.343299 -3.206398,-1.744959 -4.871255,-1.156006 v -6.019197 c 0,-1.272419 -0.537094,-2.496425 -1.472963,-3.358534 -0.898414,-0.826958 -2.064219,-1.255707 -3.28362,-1.203265 -1.219395,0.05071 -2.346015,0.573395 -3.171818,1.472387 l -0.01965,0.02191 c -0.776814,0.844825 -1.204421,1.942052 -1.204421,3.089412 v 15.588251 c -1.016545,-1.698282 -2.607646,-2.938424 -4.51684,-3.511241 -1.656219,-0.497327 -3.46054,0.17634 -4.386031,1.63835 -0.671941,1.059773 -0.787767,2.385783 -0.310043,3.546399 l 2.439382,5.931027 c 0.902439,2.195611 1.360585,4.512238 1.360585,6.88592 v 1.513874 c 0,2.242862 0.873627,4.352032 2.459542,5.938518 l 2.709071,2.709071 c 0.656376,0.656377 1.018273,1.529434 1.018273,2.457817 v 3.206404 h -0.854041 c -0.393592,5.48e-4 -0.771046,0.156747 -1.048813,0.435663 -0.278348,0.278337 -0.433939,0.655799 -0.433365,1.049396 l 0.01092,6.94527 c 9.1e-4,0.81773 0.664445,1.48045 1.482761,1.48045 h 5.55e-4 l 25.731853,-0.007 c 0.393598,-5.5e-4 0.771053,-0.15674 1.04882,-0.43567 0.278343,-0.27833 0.433937,-0.6558 0.433359,-1.04939 l -0.01093,-6.945271 c -0.0011,-0.817735 -0.664445,-1.480449 -1.482757,-1.480449 l -0.432205,5.5e-4 v -4.008796 c 5.54e-4,-0.500212 0.155593,-0.977945 0.448341,-1.382491 z m -24.256581,12.342666 -0.0064,-3.97975 22.766913,-0.007 0.0064,3.98034 z m 0,0"
       style="fill:#d5e5ff;stroke-width:0.147526" />
    <path
       id="path901"
       d="m 39.097811,45.198601 2.28321,1.317941 c 0.233381,0.134847 0.488104,0.198814 0.739352,0.198814 0.512885,0 1.010796,-0.265659 1.285669,-0.741091 0.40974,-0.709394 0.166553,-1.615872 -0.542842,-2.025605 l -2.283201,-1.317941 c -0.70883,-0.409733 -1.615308,-0.166547 -2.025039,0.542271 -0.409158,0.709396 -0.166543,1.615878 0.542851,2.025611 z m 0,0"
       style="fill:#d5e5ff;stroke-width:0.147526" />
    <path
       id="path903"
       d="m 39.014253,52.955844 c 0.09739,0 0.195928,-0.0098 0.295051,-0.02941 l 2.58402,-0.521524 c 0.80276,-0.161936 1.322558,-0.943365 1.160618,-1.746119 -0.161931,-0.802747 -0.94394,-1.321398 -1.74669,-1.160039 l -2.58402,0.520953 c -0.80275,0.16193 -1.322549,0.943936 -1.160618,1.746113 0.141762,0.703636 0.760685,1.190008 1.451639,1.190008 z m 0,0"
       style="fill:#d5e5ff;stroke-width:0.147526" />
    <path
       id="path905"
       d="m 73.00298,79.770522 c -0.306581,-0.758958 -1.170993,-1.125466 -1.92995,-0.818313 -0.759528,0.306581 -1.126041,1.170416 -0.818884,1.92995 l 0.01384,0.03401 c 0.232816,0.576851 0.788344,0.927229 1.374418,0.927229 0.185562,0 0.373427,-0.03513 0.555527,-0.108339 0.758957,-0.307159 1.125471,-1.170994 0.818889,-1.930528 z m 0,0"
       style="fill:#d5e5ff;stroke-width:0.147526" />
  </g>
</svg>
