<?xml version="1.0" encoding="UTF-8" standalone="no"?>
<svg
   xmlns:dc="http://purl.org/dc/elements/1.1/"
   xmlns:cc="http://creativecommons.org/ns#"
   xmlns:rdf="http://www.w3.org/1999/02/22-rdf-syntax-ns#"
   xmlns:svg="http://www.w3.org/2000/svg"
   xmlns="http://www.w3.org/2000/svg"
   xmlns:sodipodi="http://sodipodi.sourceforge.net/DTD/sodipodi-0.dtd"
   xmlns:inkscape="http://www.inkscape.org/namespaces/inkscape"
   inkscape:version="1.0 (4035a4fb49, 2020-05-01)"
   sodipodi:docname="crud-detail.svg"
   xml:space="preserve"
   style="enable-background:new 0 0 80 80;"
   viewBox="0 0 80 80"
   height="80px"
   width="80px"
   y="0px"
   x="0px"
   id="Layer_1"
   version="1.1"><metadata
   id="metadata1376"><rdf:RDF><cc:Work
       rdf:about=""><dc:format>image/svg+xml</dc:format><dc:type
         rdf:resource="http://purl.org/dc/dcmitype/StillImage" /><dc:title>Accuracy</dc:title></cc:Work></rdf:RDF></metadata><defs
   id="defs1374" /><sodipodi:namedview
   inkscape:current-layer="Layer_1"
   inkscape:window-maximized="1"
   inkscape:window-y="-8"
   inkscape:window-x="-8"
   inkscape:cy="29.181835"
   inkscape:cx="38.915985"
   inkscape:zoom="4.7552931"
   showgrid="false"
   id="namedview1372"
   inkscape:window-height="705"
   inkscape:window-width="1366"
   inkscape:pageshadow="2"
   inkscape:pageopacity="0"
   guidetolerance="10"
   gridtolerance="10"
   objecttolerance="10"
   borderopacity="1"
   bordercolor="#666666"
   pagecolor="#ffffff"
   inkscape:document-rotation="0" />
<style
   id="style1347"
   type="text/css">
	.st0{fill:#808285;}
	.st1{fill:#0E9DD8;}
</style>
<title
   id="title1349">Accuracy</title>










<g
   transform="matrix(0.18827743,0,0,0.18827743,25.166779,25.366927)"
   id="g1435" /><g
   transform="matrix(0.18827743,0,0,0.18827743,25.166779,25.366927)"
   id="g1437" /><g
   transform="matrix(0.18827743,0,0,0.18827743,25.166779,25.366927)"
   id="g1439" /><g
   transform="matrix(0.18827743,0,0,0.18827743,25.166779,25.366927)"
   id="g1441" /><g
   transform="matrix(0.18827743,0,0,0.18827743,25.166779,25.366927)"
   id="g1443" /><g
   transform="matrix(0.18827743,0,0,0.18827743,25.166779,25.366927)"
   id="g1445" /><g
   transform="matrix(0.18827743,0,0,0.18827743,25.166779,25.366927)"
   id="g1447" /><g
   transform="matrix(0.18827743,0,0,0.18827743,25.166779,25.366927)"
   id="g1449" /><g
   transform="matrix(0.18827743,0,0,0.18827743,25.166779,25.366927)"
   id="g1451" /><g
   transform="matrix(0.18827743,0,0,0.18827743,25.166779,25.366927)"
   id="g1453" /><g
   transform="matrix(0.18827743,0,0,0.18827743,25.166779,25.366927)"
   id="g1455" /><g
   transform="matrix(0.18827743,0,0,0.18827743,25.166779,25.366927)"
   id="g1457" /><g
   transform="matrix(0.18827743,0,0,0.18827743,25.166779,25.366927)"
   id="g1459" /><g
   transform="matrix(0.18827743,0,0,0.18827743,25.166779,25.366927)"
   id="g1461" /><g
   transform="matrix(0.18827743,0,0,0.18827743,25.166779,25.366927)"
   id="g1463" /><circle
   style="fill:#f2f2f2;stroke:#d7eef4;stroke-width:3.83848;stroke-linejoin:round"
   id="path1823"
   cx="40.060619"
   cy="39.85033"
   r="36.646587" /><g
   transform="matrix(1.5346843,0,0,1.5346843,-21.597433,-21.451718)"
   id="g3589"><polygon
     style="fill:#b3b3b3"
     points="0,139.075 73.298,139.075 73.298,124.141 14.935,124.141 14.935,26.219 131.662,26.219 131.662,75.18 146.596,75.18 146.596,11.284 0,11.284 "
     id="polygon1425"
     transform="matrix(0.18827743,0,0,0.18827743,25.861389,25.846803)" /><g
     id="g2591"
     style="fill:#7f2aff"
     transform="matrix(0.28736427,0,0,0.28736427,28.118428,31.006499)"><g
       transform="matrix(0.10315985,0,0,0.10315985,48.819914,33.708749)"
       id="g2412"
       style="fill:#7f2aff"><g
         id="g2410"
         style="fill:#7f2aff"><path
           d="M 467,61 H 165 c -24.82,0 -45,20.19 -45,45 0,24.82 20.18,45 45,45 h 302 c 24.81,0 45,-20.18 45,-45 0,-24.81 -20.19,-45 -45,-45 z"
           id="path2408"
           style="fill:#7f2aff" /></g></g><g
       transform="matrix(0.10315985,0,0,0.10315985,48.819914,33.708749)"
       id="g2418"
       style="fill:#7f2aff"><g
         id="g2416"
         style="fill:#7f2aff"><path
           d="M 467,211 H 165 c -24.82,0 -45,20.19 -45,45 0,24.82 20.18,45 45,45 h 302 c 24.81,0 45,-20.18 45,-45 0,-24.81 -20.19,-45 -45,-45 z"
           id="path2414"
           style="fill:#7f2aff" /></g></g><g
       transform="matrix(0.10315985,0,0,0.10315985,48.819914,33.708749)"
       id="g2424"
       style="fill:#7f2aff"><g
         id="g2422"
         style="fill:#7f2aff"><path
           d="M 467,361 H 165 c -24.82,0 -45,20.19 -45,45 0,24.82 20.18,45 45,45 h 302 c 24.81,0 45,-20.18 45,-45 0,-24.81 -20.19,-45 -45,-45 z"
           id="path2420"
           style="fill:#7f2aff" /></g></g><g
       transform="matrix(0.10315985,0,0,0.10315985,48.819914,33.708749)"
       id="g2430"
       style="fill:#7f2aff"><g
         id="g2428"
         style="fill:#7f2aff"><path
           d="M 45,61 C 20.18,61 0,81.19 0,106 c 0,24.82 20.18,45 45,45 24.81,0 45,-20.18 45,-45 C 90,81.19 69.81,61 45,61 Z"
           id="path2426"
           style="fill:#7f2aff" /></g></g><g
       transform="matrix(0.10315985,0,0,0.10315985,48.819914,33.708749)"
       id="g2436"
       style="fill:#7f2aff"><g
         id="g2434"
         style="fill:#7f2aff"><path
           d="m 45,211 c -24.82,0 -45,20.19 -45,45 0,24.82 20.18,45 45,45 24.81,0 45,-20.18 45,-45 0,-24.81 -20.19,-45 -45,-45 z"
           id="path2432"
           style="fill:#7f2aff" /></g></g><g
       transform="matrix(0.10315985,0,0,0.10315985,48.819914,33.708749)"
       id="g2442"
       style="fill:#7f2aff"><g
         id="g2440"
         style="fill:#7f2aff"><path
           d="m 45,361 c -24.82,0 -45,20.19 -45,45 0,24.82 20.18,45 45,45 24.81,0 45,-20.18 45,-45 0,-24.81 -20.19,-45 -45,-45 z"
           id="path2438"
           style="fill:#7f2aff" /></g></g></g></g></svg>
