<?xml version="1.0" encoding="UTF-8" standalone="no"?>
<svg
   xmlns:dc="http://purl.org/dc/elements/1.1/"
   xmlns:cc="http://creativecommons.org/ns#"
   xmlns:rdf="http://www.w3.org/1999/02/22-rdf-syntax-ns#"
   xmlns:svg="http://www.w3.org/2000/svg"
   xmlns="http://www.w3.org/2000/svg"
   xmlns:sodipodi="http://sodipodi.sourceforge.net/DTD/sodipodi-0.dtd"
   xmlns:inkscape="http://www.inkscape.org/namespaces/inkscape"
   version="1.1"
   id="Layer_1"
   x="0px"
   y="0px"
   width="80px"
   height="80px"
   viewBox="0 0 80 80"
   style="enable-background:new 0 0 80 80;"
   xml:space="preserve"
   sodipodi:docname="crud-unsearch.svg"
   inkscape:version="1.0 (4035a4fb49, 2020-05-01)"><metadata
   id="metadata1376"><rdf:RDF><cc:Work
       rdf:about=""><dc:format>image/svg+xml</dc:format><dc:type
         rdf:resource="http://purl.org/dc/dcmitype/StillImage" /><dc:title>Accuracy</dc:title></cc:Work></rdf:RDF></metadata><defs
   id="defs1374" /><sodipodi:namedview
   showguides="false"
   inkscape:document-rotation="0"
   pagecolor="#ffffff"
   bordercolor="#666666"
   borderopacity="1"
   objecttolerance="10"
   gridtolerance="10"
   guidetolerance="10"
   inkscape:pageopacity="0"
   inkscape:pageshadow="2"
   inkscape:window-width="1366"
   inkscape:window-height="705"
   id="namedview1372"
   showgrid="false"
   inkscape:zoom="4.7552931"
   inkscape:cx="53.165"
   inkscape:cy="41.776352"
   inkscape:window-x="-8"
   inkscape:window-y="-8"
   inkscape:window-maximized="1"
   inkscape:current-layer="Layer_1"><sodipodi:guide
     id="guide3109"
     orientation="-0.70710678,-0.70710678"
     position="112.29592,75.583868" /></sodipodi:namedview>
<style
   type="text/css"
   id="style1347">
	.st0{fill:#808285;}
	.st1{fill:#0E9DD8;}
</style>
<title
   id="title1349">Accuracy</title>










<g
   id="g1435"
   transform="matrix(0.18827743,0,0,0.18827743,25.166779,25.366927)" /><g
   id="g1437"
   transform="matrix(0.18827743,0,0,0.18827743,25.166779,25.366927)" /><g
   id="g1439"
   transform="matrix(0.18827743,0,0,0.18827743,25.166779,25.366927)" /><g
   id="g1441"
   transform="matrix(0.18827743,0,0,0.18827743,25.166779,25.366927)" /><g
   id="g1443"
   transform="matrix(0.18827743,0,0,0.18827743,25.166779,25.366927)" /><g
   id="g1445"
   transform="matrix(0.18827743,0,0,0.18827743,25.166779,25.366927)" /><g
   id="g1447"
   transform="matrix(0.18827743,0,0,0.18827743,25.166779,25.366927)" /><g
   id="g1449"
   transform="matrix(0.18827743,0,0,0.18827743,25.166779,25.366927)" /><g
   id="g1451"
   transform="matrix(0.18827743,0,0,0.18827743,25.166779,25.366927)" /><g
   id="g1453"
   transform="matrix(0.18827743,0,0,0.18827743,25.166779,25.366927)" /><g
   id="g1455"
   transform="matrix(0.18827743,0,0,0.18827743,25.166779,25.366927)" /><g
   id="g1457"
   transform="matrix(0.18827743,0,0,0.18827743,25.166779,25.366927)" /><g
   id="g1459"
   transform="matrix(0.18827743,0,0,0.18827743,25.166779,25.366927)" /><g
   id="g1461"
   transform="matrix(0.18827743,0,0,0.18827743,25.166779,25.366927)" /><g
   id="g1463"
   transform="matrix(0.18827743,0,0,0.18827743,25.166779,25.366927)" /><circle
   r="36.646587"
   cy="39.85033"
   cx="40.060619"
   id="path1823"
   style="fill:#f2f2f2;stroke:#d7eef4;stroke-width:3.83848;stroke-linejoin:round" /><polygon
   transform="matrix(0.28951488,0,0,0.28951488,18.091635,18.20855)"
   id="polygon1425"
   points="73.298,124.141 14.935,124.141 14.935,26.219 131.662,26.219 131.662,75.18 146.596,75.18 146.596,11.284 0,11.284 0,139.075 73.298,139.075 "
   style="fill:#cccccc" /><path
   id="path848"
   d="m 28.045102,40.481051 c 0.423419,6.384893 5.962427,11.234943 12.34732,10.811523 2.872528,-0.190493 5.434035,-1.416815 7.344751,-3.28933 l 1.455274,1.274263 -1.176016,1.343072 7.067099,6.188072 c 1.110879,0.972705 2.805987,0.860292 3.778751,-0.25059 0.972645,-1.110875 0.860352,-2.805992 -0.250591,-3.778752 l -7.067099,-6.188072 -1.175953,1.343127 -1.455274,-1.274263 c 1.603801,-2.14131 2.481075,-4.842319 2.290581,-7.714847 -0.423419,-6.384893 -5.962427,-11.234942 -12.34732,-10.811523 -6.384893,0.423419 -11.234942,5.962427 -10.811523,12.34732 z m 29.390524,13.641512 c 0.370234,0.324239 0.407696,0.889137 0.08352,1.259426 -0.324239,0.370233 -0.889196,0.407699 -1.259425,0.08352 l -5.723842,-5.011949 1.17585,-1.342881 z m -8.01313,-15.05917 c 0.358277,5.402601 -3.745611,10.089454 -9.148212,10.447732 -5.402602,0.358278 -10.089455,-3.74561 -10.447733,-9.148212 -0.358278,-5.402602 3.74561,-10.089455 9.148212,-10.447733 5.402602,-0.358277 10.089455,3.745611 10.447733,9.148213 z"
   style="fill:#000080;stroke-width:0.0595121" /><path
   id="path852"
   d="m 33.731503,37.081786 3.416901,2.991894 -2.991897,3.416901 2.416098,2.115678 2.991897,-3.416901 3.4169,2.991895 2.115562,-2.416197 -3.416901,-2.991896 2.991898,-3.4169 -2.416093,-2.11557 -2.991894,3.416901 -3.416901,-2.991898 z"
   style="fill:#0000ff;stroke-width:0.107048" /></svg>
