<?xml version="1.0" encoding="UTF-8" standalone="no"?>
<svg
   xmlns:dc="http://purl.org/dc/elements/1.1/"
   xmlns:cc="http://creativecommons.org/ns#"
   xmlns:rdf="http://www.w3.org/1999/02/22-rdf-syntax-ns#"
   xmlns:svg="http://www.w3.org/2000/svg"
   xmlns="http://www.w3.org/2000/svg"
   xmlns:sodipodi="http://sodipodi.sourceforge.net/DTD/sodipodi-0.dtd"
   xmlns:inkscape="http://www.inkscape.org/namespaces/inkscape"
   inkscape:version="1.0 (4035a4fb49, 2020-05-01)"
   sodipodi:docname="crud-confirm.svg"
   xml:space="preserve"
   style="enable-background:new 0 0 80 80;"
   viewBox="0 0 80 80"
   height="80px"
   width="80px"
   y="0px"
   x="0px"
   id="Layer_1"
   version="1.1"><metadata
   id="metadata1376"><rdf:RDF><cc:Work
       rdf:about=""><dc:format>image/svg+xml</dc:format><dc:type
         rdf:resource="http://purl.org/dc/dcmitype/StillImage" /><dc:title>Accuracy</dc:title></cc:Work></rdf:RDF></metadata><defs
   id="defs1374" /><sodipodi:namedview
   inkscape:current-layer="Layer_1"
   inkscape:window-maximized="1"
   inkscape:window-y="-8"
   inkscape:window-x="-8"
   inkscape:cy="29.181835"
   inkscape:cx="38.915985"
   inkscape:zoom="4.7552931"
   showgrid="false"
   id="namedview1372"
   inkscape:window-height="705"
   inkscape:window-width="1366"
   inkscape:pageshadow="2"
   inkscape:pageopacity="0"
   guidetolerance="10"
   gridtolerance="10"
   objecttolerance="10"
   borderopacity="1"
   bordercolor="#666666"
   pagecolor="#ffffff"
   inkscape:document-rotation="0" />
<style
   id="style1347"
   type="text/css">
	.st0{fill:#808285;}
	.st1{fill:#0E9DD8;}
</style>
<title
   id="title1349">Accuracy</title>










<g
   transform="matrix(0.18827743,0,0,0.18827743,25.166779,25.366927)"
   id="g1435" /><g
   transform="matrix(0.18827743,0,0,0.18827743,25.166779,25.366927)"
   id="g1437" /><g
   transform="matrix(0.18827743,0,0,0.18827743,25.166779,25.366927)"
   id="g1439" /><g
   transform="matrix(0.18827743,0,0,0.18827743,25.166779,25.366927)"
   id="g1441" /><g
   transform="matrix(0.18827743,0,0,0.18827743,25.166779,25.366927)"
   id="g1443" /><g
   transform="matrix(0.18827743,0,0,0.18827743,25.166779,25.366927)"
   id="g1445" /><g
   transform="matrix(0.18827743,0,0,0.18827743,25.166779,25.366927)"
   id="g1447" /><g
   transform="matrix(0.18827743,0,0,0.18827743,25.166779,25.366927)"
   id="g1449" /><g
   transform="matrix(0.18827743,0,0,0.18827743,25.166779,25.366927)"
   id="g1451" /><g
   transform="matrix(0.18827743,0,0,0.18827743,25.166779,25.366927)"
   id="g1453" /><g
   transform="matrix(0.18827743,0,0,0.18827743,25.166779,25.366927)"
   id="g1455" /><g
   transform="matrix(0.18827743,0,0,0.18827743,25.166779,25.366927)"
   id="g1457" /><g
   transform="matrix(0.18827743,0,0,0.18827743,25.166779,25.366927)"
   id="g1459" /><g
   transform="matrix(0.18827743,0,0,0.18827743,25.166779,25.366927)"
   id="g1461" /><g
   transform="matrix(0.18827743,0,0,0.18827743,25.166779,25.366927)"
   id="g1463" /><circle
   style="fill:#f2f2f2;stroke:#d7eef4;stroke-width:3.83848;stroke-linejoin:round"
   id="path1823"
   cx="40.060619"
   cy="39.85033"
   r="36.646587" /><g
   id="g2145"
   transform="matrix(1.5490244,0,0,1.5490244,-21.99426,-21.878802)"><polygon
     style="fill:#b3b3b3"
     points="131.662,26.219 131.662,75.18 146.596,75.18 146.596,11.284 0,11.284 0,139.075 73.298,139.075 73.298,124.141 14.935,124.141 14.935,26.219 "
     id="polygon1425-4"
     transform="matrix(0.18827743,0,0,0.18827743,25.861389,25.846803)" /><g
     id="g2130"
     transform="matrix(0.07576562,0,0,0.07576562,30.555602,27.260281)"
     style="fill:#55ff99"><path
       d="m 204.832,336.595 -37.233,-44.799 c -5.619,-6.761 -4.694,-16.798 2.068,-22.417 l 10.438,-8.675 c 6.761,-5.619 16.797,-4.693 22.417,2.068 l 18.758,22.57 c 4.482,5.393 12.666,5.671 17.503,0.593 l 95.896,-93.564 c 6.064,-6.366 16.14,-6.61 22.505,-0.546 l 9.828,9.362 c 6.365,6.064 6.61,16.14 0.546,22.505 L 251.726,338.183 c -12.96,13.604 -34.885,12.862 -46.894,-1.588 z"
       fill="#67b59f"
       id="path2128"
       style="fill:#55ff99" /></g><g
     id="g2144"
     transform="matrix(0.07576562,0,0,0.07576562,30.555602,27.260281)"
     style="fill:#008066"><path
       d="m 228.983,355.427 c -0.438,0 -0.875,-0.007 -1.314,-0.022 -11.088,-0.376 -21.514,-5.484 -28.605,-14.016 L 161.831,296.59 c -8.253,-9.931 -6.889,-24.725 3.042,-32.979 l 10.438,-8.675 c 9.932,-8.253 24.724,-6.889 32.979,3.042 l 18.758,22.57 c 1.054,1.268 2.398,1.497 3.105,1.521 0.7,0.024 2.062,-0.113 3.2,-1.308 0.063,-0.066 0.127,-0.131 0.193,-0.195 l 95.806,-93.476 c 4.304,-4.463 10.082,-7.001 16.285,-7.152 6.244,-0.156 12.192,2.141 16.721,6.455 l 9.827,9.362 c 9.35,8.906 9.71,23.758 0.804,33.108 -0.052,0.055 -0.105,0.108 -0.158,0.161 l -50.911,50.321 c -2.947,2.913 -7.696,2.884 -10.606,-0.062 -2.912,-2.946 -2.884,-7.695 0.061,-10.606 l 50.818,-50.23 c 3.135,-3.365 2.984,-8.653 -0.354,-11.833 l -9.828,-9.362 c -1.628,-1.551 -3.764,-2.381 -6.011,-2.321 -2.248,0.055 -4.34,0.981 -5.891,2.609 -0.064,0.066 -0.128,0.131 -0.193,0.195 l -95.81,93.479 c -3.773,3.899 -9.055,6.031 -14.462,5.842 -5.479,-0.185 -10.63,-2.709 -14.133,-6.925 l -18.758,-22.57 c -2.967,-3.57 -8.286,-4.06 -11.855,-1.094 l -10.439,8.675 c -3.57,2.967 -4.06,8.285 -1.094,11.855 l 37.233,44.799 c 4.357,5.243 10.764,8.382 17.577,8.612 6.807,0.236 13.417,-2.467 18.119,-7.403 0.052,-0.055 0.105,-0.108 0.158,-0.161 l 64.923,-64.167 c 22.874,-22.605 -0.061,10.606 -0.061,10.606 2.912,2.946 17.40613,-6.21922 14.46113,-3.30822 L 257.074,343.437 c -7.343,7.666 -17.512,11.99 -28.091,11.99 z"
       id="path2142"
       style="fill:#008066"
       sodipodi:nodetypes="sccccccccscccccccccccccccccccccccccccccccs" /></g></g></svg>
