<?xml version="1.0" encoding="UTF-8" standalone="no"?>
<svg
   xmlns:dc="http://purl.org/dc/elements/1.1/"
   xmlns:cc="http://creativecommons.org/ns#"
   xmlns:rdf="http://www.w3.org/1999/02/22-rdf-syntax-ns#"
   xmlns:svg="http://www.w3.org/2000/svg"
   xmlns="http://www.w3.org/2000/svg"
   xmlns:sodipodi="http://sodipodi.sourceforge.net/DTD/sodipodi-0.dtd"
   xmlns:inkscape="http://www.inkscape.org/namespaces/inkscape"
   version="1.1"
   id="Layer_1"
   x="0px"
   y="0px"
   width="80px"
   height="80px"
   viewBox="0 0 80 80"
   style="enable-background:new 0 0 80 80;"
   xml:space="preserve"
   sodipodi:docname="crud-reset.svg"
   inkscape:version="1.0 (4035a4fb49, 2020-05-01)"><metadata
   id="metadata1376"><rdf:RDF><cc:Work
       rdf:about=""><dc:format>image/svg+xml</dc:format><dc:type
         rdf:resource="http://purl.org/dc/dcmitype/StillImage" /><dc:title>Accuracy</dc:title></cc:Work></rdf:RDF></metadata><defs
   id="defs1374" /><sodipodi:namedview
   inkscape:document-rotation="0"
   pagecolor="#ffffff"
   bordercolor="#666666"
   borderopacity="1"
   objecttolerance="10"
   gridtolerance="10"
   guidetolerance="10"
   inkscape:pageopacity="0"
   inkscape:pageshadow="2"
   inkscape:window-width="1366"
   inkscape:window-height="705"
   id="namedview1372"
   showgrid="false"
   inkscape:zoom="4.7552931"
   inkscape:cx="38.915985"
   inkscape:cy="29.181835"
   inkscape:window-x="-8"
   inkscape:window-y="-8"
   inkscape:window-maximized="1"
   inkscape:current-layer="Layer_1" />
<style
   type="text/css"
   id="style1347">
	.st0{fill:#808285;}
	.st1{fill:#0E9DD8;}
</style>
<title
   id="title1349">Accuracy</title>










<g
   id="g1435"
   transform="matrix(0.18827743,0,0,0.18827743,25.166779,25.366927)" /><g
   id="g1437"
   transform="matrix(0.18827743,0,0,0.18827743,25.166779,25.366927)" /><g
   id="g1439"
   transform="matrix(0.18827743,0,0,0.18827743,25.166779,25.366927)" /><g
   id="g1441"
   transform="matrix(0.18827743,0,0,0.18827743,25.166779,25.366927)" /><g
   id="g1443"
   transform="matrix(0.18827743,0,0,0.18827743,25.166779,25.366927)" /><g
   id="g1445"
   transform="matrix(0.18827743,0,0,0.18827743,25.166779,25.366927)" /><g
   id="g1447"
   transform="matrix(0.18827743,0,0,0.18827743,25.166779,25.366927)" /><g
   id="g1449"
   transform="matrix(0.18827743,0,0,0.18827743,25.166779,25.366927)" /><g
   id="g1451"
   transform="matrix(0.18827743,0,0,0.18827743,25.166779,25.366927)" /><g
   id="g1453"
   transform="matrix(0.18827743,0,0,0.18827743,25.166779,25.366927)" /><g
   id="g1455"
   transform="matrix(0.18827743,0,0,0.18827743,25.166779,25.366927)" /><g
   id="g1457"
   transform="matrix(0.18827743,0,0,0.18827743,25.166779,25.366927)" /><g
   id="g1459"
   transform="matrix(0.18827743,0,0,0.18827743,25.166779,25.366927)" /><g
   id="g1461"
   transform="matrix(0.18827743,0,0,0.18827743,25.166779,25.366927)" /><g
   id="g1463"
   transform="matrix(0.18827743,0,0,0.18827743,25.166779,25.366927)" /><circle
   r="36.646587"
   cy="39.85033"
   cx="40.060619"
   id="path1823"
   style="fill:#f2f2f2;stroke:#d7eef4;stroke-width:3.83848;stroke-linejoin:round" /><polygon
   transform="matrix(0.28990737,0,0,0.28990737,18.091634,18.20412)"
   id="polygon1425-63"
   points="146.596,75.18 146.596,11.284 0,11.284 0,139.075 73.298,139.075 73.298,124.141 14.935,124.141 14.935,26.219 131.662,26.219 131.662,75.18 "
   style="fill:#b3b3b3" /><path
   style="fill:#d40000;stroke-width:0.0431195"
   id="path898"
   d="m 51.30575,51.741996 1.841202,1.841202 2.690656,-2.690656 1.979184,-1.979184 1.979185,-1.841202 -6.649025,-6.653337 -1.841202,1.698908 3.678093,3.397816 h -3.54011 c 0,0 0,0 -0.142295,0 h -0.142294 c -2.406068,0 -4.66984,1.134041 -6.226453,2.828637 -1.41432,1.556613 -2.121479,3.54011 -2.121479,5.661589 0.0043,4.66984 3.824698,8.490226 8.494538,8.490226 2.263773,0 4.247269,-0.849454 5.661589,-2.263773 l -1.979184,-1.983497 c -0.991748,0.849455 -2.263774,1.41432 -3.678093,1.41432 -3.113226,0 -5.661587,-2.548361 -5.661587,-5.661588 0,-3.113228 2.548361,-5.661589 5.661587,-5.661589 h 0.142295 3.820386 l -0.849454,0.849454 z"
   class="st0" /></svg>
