<?xml version="1.0" encoding="UTF-8" standalone="no"?>
<svg
   xmlns:dc="http://purl.org/dc/elements/1.1/"
   xmlns:cc="http://creativecommons.org/ns#"
   xmlns:rdf="http://www.w3.org/1999/02/22-rdf-syntax-ns#"
   xmlns:svg="http://www.w3.org/2000/svg"
   xmlns="http://www.w3.org/2000/svg"
   xmlns:sodipodi="http://sodipodi.sourceforge.net/DTD/sodipodi-0.dtd"
   xmlns:inkscape="http://www.inkscape.org/namespaces/inkscape"
   inkscape:version="1.0 (4035a4fb49, 2020-05-01)"
   sodipodi:docname="inbox.svg"
   version="1.1"
   viewBox="0 0 130 130"
   height="130"
   width="130"
   data-name="Layer 1"
   id="Layer_1">
  <metadata
     id="metadata2745">
    <rdf:RDF>
      <cc:Work
         rdf:about="">
        <dc:format>image/svg+xml</dc:format>
        <dc:type
           rdf:resource="http://purl.org/dc/dcmitype/StillImage" />
        <dc:title>Finance</dc:title>
      </cc:Work>
    </rdf:RDF>
  </metadata>
  <sodipodi:namedview
     inkscape:current-layer="Layer_1"
     inkscape:window-maximized="0"
     inkscape:window-y="0"
     inkscape:window-x="76"
     inkscape:cy="71.076496"
     inkscape:cx="62.603792"
     inkscape:zoom="3.9615385"
     showgrid="false"
     id="namedview2743"
     inkscape:window-height="728"
     inkscape:window-width="1274"
     inkscape:pageshadow="2"
     inkscape:pageopacity="0"
     guidetolerance="10"
     gridtolerance="10"
     objecttolerance="10"
     borderopacity="1"
     bordercolor="#666666"
     pagecolor="#ffffff"
     inkscape:document-rotation="0" />
  <defs
     id="defs2715">
    <style
       id="style2713">.cls-1{fill:#fff;}</style>
  </defs>
  <title
     id="title2717">Finance</title>
  <ellipse
     ry="62.60194"
     rx="62.223301"
     cy="65.378639"
     cx="65"
     id="path2747"
     style="fill:#0055d4;stroke:#00ccff;stroke-width:1.178;stroke-linejoin:round;stroke-miterlimit:4;stroke-dasharray:none" />
  <g
     transform="matrix(0.17284403,0,0,0.17284403,28.533969,26.761468)"
     style="fill:#d5e5ff;stroke-width:0;stroke-miterlimit:4;stroke-dasharray:none"
     id="g3424">
    <path
       style="fill:#d5e5ff;stroke-width:0;stroke-miterlimit:4;stroke-dasharray:none"
       d="M 417.457,230.42 352.151,58.535 C 346.235,42.268 330.799,31.421 313.49,31.368 H 104.51 C 87.201,31.42 71.764,42.268 65.849,58.535 L 0.543,230.42 c -0.429,1.169 -0.607,2.415 -0.522,3.657 v 110.237 c -0.002,23.169 18.628,42.032 41.796,42.318 h 334.367 c 23.167,-0.286 41.798,-19.149 41.796,-42.318 V 234.077 c 0.084,-1.242 -0.094,-2.488 -0.523,-3.657 z M 85.179,65.849 c 3.138,-7.993 10.747,-13.34 19.331,-13.584 h 208.98 c 8.584,0.244 16.192,5.59 19.331,13.584 l 60.082,158.824 h -48.065 v -70.531 c 0,-5.747 -4.18,-7.837 -9.927,-7.837 h -21.42 V 91.449 c 0,-5.747 -4.18,-7.837 -9.927,-7.837 H 114.437 c -5.747,0 -9.927,2.09 -9.927,7.837 v 54.857 H 88.314 c -5.747,0 -9.927,2.09 -9.927,7.837 v 70.531 h -53.29 z m 207.935,101.355 h 30.825 v 57.469 h -44.931 c -5.044,-0.102 -9.441,3.416 -10.449,8.359 0,2.09 -10.449,49.633 -59.559,49.633 -49.11,0 -59.559,-47.543 -59.559,-49.633 -1.008,-4.944 -5.405,-8.461 -10.449,-8.359 H 99.286 V 167.204 Z M 125.408,146.306 V 104.51 h 167.184 v 41.796 z m 271.673,198.008 c 0.003,11.629 -9.272,21.137 -20.898,21.42 H 41.816 C 30.19,365.45 20.915,355.943 20.918,344.314 v -98.743 h 110.237 c 7.837,23.51 30.825,57.992 77.845,57.992 47.02,0 70.008,-34.482 77.845,-57.992 h 110.237 v 98.743 z"
       id="path3422" />
  </g>
</svg>
