<?xml version="1.0" encoding="UTF-8" standalone="no"?>
<svg
   xmlns:dc="http://purl.org/dc/elements/1.1/"
   xmlns:cc="http://creativecommons.org/ns#"
   xmlns:rdf="http://www.w3.org/1999/02/22-rdf-syntax-ns#"
   xmlns:svg="http://www.w3.org/2000/svg"
   xmlns="http://www.w3.org/2000/svg"
   xmlns:sodipodi="http://sodipodi.sourceforge.net/DTD/sodipodi-0.dtd"
   xmlns:inkscape="http://www.inkscape.org/namespaces/inkscape"
   inkscape:version="1.0 (4035a4fb49, 2020-05-01)"
   sodipodi:docname="job-shift.svg"
   version="1.1"
   viewBox="0 0 130 130"
   height="130"
   width="130"
   data-name="Layer 1"
   id="Layer_1">
  <metadata
     id="metadata2745">
    <rdf:RDF>
      <cc:Work
         rdf:about="">
        <dc:format>image/svg+xml</dc:format>
        <dc:type
           rdf:resource="http://purl.org/dc/dcmitype/StillImage" />
        <dc:title>Finance</dc:title>
      </cc:Work>
    </rdf:RDF>
  </metadata>
  <sodipodi:namedview
     inkscape:current-layer="Layer_1"
     inkscape:window-maximized="0"
     inkscape:window-y="0"
     inkscape:window-x="76"
     inkscape:cy="71.076496"
     inkscape:cx="62.603792"
     inkscape:zoom="3.9615385"
     showgrid="false"
     id="namedview2743"
     inkscape:window-height="728"
     inkscape:window-width="1274"
     inkscape:pageshadow="2"
     inkscape:pageopacity="0"
     guidetolerance="10"
     gridtolerance="10"
     objecttolerance="10"
     borderopacity="1"
     bordercolor="#666666"
     pagecolor="#ffffff"
     inkscape:document-rotation="0" />
  <defs
     id="defs2715">
    <style
       id="style2713">.cls-1{fill:#fff;}</style>
  </defs>
  <title
     id="title2717">Finance</title>
  <ellipse
     ry="62.60194"
     rx="62.223301"
     cy="65.378639"
     cx="65"
     id="path2747"
     style="fill:#0055d4;stroke:#00ccff;stroke-width:1.178;stroke-linejoin:round;stroke-miterlimit:4;stroke-dasharray:none" />
  <path
     style="fill:#d5e5ff;stroke-width:0.146677"
     d="m 83.127265,103.01776 c -7.929385,-0.80209 -14.434347,-6.777854 -15.928459,-14.6326 -0.353504,-1.858449 -0.326155,-4.989227 0.0593,-6.787468 1.555449,-7.256669 6.852374,-12.553603 14.109045,-14.109048 1.020024,-0.218638 1.943731,-0.299401 3.446915,-0.301391 3.198104,-0.0042 5.179735,0.455138 8.067243,1.870115 4.975391,2.438096 8.435191,6.940955 9.635391,12.540324 0.38546,1.798241 0.41279,4.929019 0.0593,6.787468 -1.02953,5.412446 -4.656797,10.281059 -9.474666,12.71716 -3.057204,1.54584 -6.704106,2.2462 -9.974046,1.91544 z m 4.546989,-2.41318 c 6.507374,-1.16876 11.708862,-6.468259 12.752836,-12.993123 0.33818,-2.113663 0.10379,-5.345296 -0.526246,-7.25541 -1.831185,-5.551729 -6.570486,-9.708873 -12.22659,-10.724748 -1.466652,-0.263415 -4.037828,-0.258292 -5.568614,0.01108 -5.740016,1.01015 -10.569369,5.310612 -12.297049,10.950315 -0.726418,2.371278 -0.804176,6.063719 -0.177137,8.412183 1.580822,5.920741 6.470326,10.50632 12.34689,11.579373 1.413162,0.25805 4.31471,0.26841 5.69591,0.0204 z m -5.305185,-1.400655 c -4.428319,-0.801409 -8.299583,-3.743543 -10.297343,-7.825894 -1.131932,-2.313103 -1.338719,-3.280207 -1.338485,-6.260079 2.94e-4,-3.02254 0.238351,-4.112129 1.395301,-6.384522 1.469744,-2.886775 3.637889,-5.032703 6.499609,-6.433013 2.308487,-1.129589 3.27876,-1.336829 6.259241,-1.336829 2.269643,0 2.702719,0.04013 3.740269,0.346664 4.146351,1.224954 7.502636,4.075271 9.248723,7.854437 0.96622,2.091269 1.160721,3.086773 1.163163,5.953263 0.002,2.269767 -0.03771,2.70265 -0.343214,3.740263 -1.451215,4.930019 -5.102261,8.6002 -9.995334,10.047715 -0.879845,0.260277 -1.555236,0.335095 -3.373577,0.373685 -1.25042,0.02656 -2.581677,-0.0071 -2.958353,-0.07562 z m 1.344903,-2.43642 c 0,-0.463586 0.733117,-1.235488 1.17342,-1.235488 0.441955,0 1.173422,0.771902 1.173422,1.238286 0,0.317143 0.05515,0.369438 0.330017,0.313028 1.384506,-0.284139 2.04536,-0.45498 2.713139,-0.70137 0.673443,-0.2485 0.751364,-0.318168 0.623368,-0.557331 -0.672684,-1.256906 0.901711,-2.400397 1.813315,-1.317015 l 0.372215,0.44235 0.743204,-0.660065 c 0.408758,-0.363041 1.040228,-0.994511 1.40327,-1.403268 l 0.660073,-0.743206 -0.44236,-0.37222 c -1.082163,-0.910577 0.06153,-2.48524 1.317027,-1.813318 0.239983,0.128436 0.311142,0.0452 0.583461,-0.68263 0.170569,-0.455902 0.376311,-1.165275 0.45718,-1.576387 0.08089,-0.411102 0.178273,-0.895973 0.216426,-1.077482 0.05788,-0.275318 0.0061,-0.330028 -0.311406,-0.330028 -0.466374,0 -1.238275,-0.731465 -1.238275,-1.173409 0,-0.441954 0.771901,-1.173431 1.238275,-1.173431 0.31764,0 0.369266,-0.05466 0.311406,-0.330016 -0.03822,-0.18152 -0.135545,-0.666379 -0.216426,-1.077493 -0.08089,-0.411101 -0.286611,-1.120485 -0.45718,-1.576387 -0.272319,-0.727816 -0.343478,-0.811065 -0.583461,-0.682629 -1.255326,0.671825 -2.400648,-0.901505 -1.318882,-1.811747 l 0.440506,-0.370661 -0.745253,-0.852466 C 93.56056,76.774265 92.927835,76.144559 92.564408,75.843782 L 91.903624,75.296904 91.53603,75.73378 c -0.884264,1.050881 -2.440686,0.0054 -1.793141,-1.204887 0.124203,-0.232098 0.115689,-0.332242 -0.03659,-0.430912 -0.328344,-0.212654 -2.354487,-0.816706 -3.022032,-0.900968 -0.58707,-0.07415 -0.62338,-0.05746 -0.62338,0.285337 0,0.449669 -0.74145,1.221512 -1.17342,1.221512 -0.441945,0 -1.173412,-0.771896 -1.173412,-1.238268 0,-0.31764 -0.05473,-0.369273 -0.330027,-0.31141 -0.181515,0.03821 -0.666379,0.135549 -1.077489,0.21642 -0.41111,0.08093 -1.125242,0.288402 -1.586964,0.461153 -0.670403,0.250824 -0.818498,0.362913 -0.735236,0.556432 0.269967,0.627426 0.241534,1.069348 -0.09164,1.423965 -0.486405,0.517756 -1.179787,0.485064 -1.653541,-0.07791 l -0.367238,-0.436446 -0.784938,0.646203 c -0.431716,0.355413 -1.062152,0.986982 -1.400967,1.403486 l -0.61602,0.757292 0.435073,0.366077 c 0.561626,0.472592 0.59379,1.1665 0.07663,1.652394 -0.354619,0.333147 -0.796534,0.361578 -1.423967,0.09158 -0.193528,-0.08329 -0.305609,0.0649 -0.556439,0.735232 -0.172748,0.461723 -0.380264,1.175863 -0.461143,1.586965 -0.08089,0.411113 -0.178273,0.895973 -0.216416,1.077493 -0.05788,0.275307 -0.0061,0.330016 0.311406,0.330016 0.466364,0 1.238265,0.731476 1.238265,1.173431 0,0.431946 -0.771851,1.17341 -1.22152,1.17341 -0.342808,0 -0.359432,0.03627 -0.285335,0.623378 0.08423,0.667532 0.688316,2.693687 0.900961,3.022034 0.09863,0.152358 0.198829,0.160871 0.430916,0.03659 0.465766,-0.249262 0.929221,-0.193358 1.302268,0.157103 0.498618,0.468428 0.456876,1.169666 -0.09741,1.636048 l -0.436857,0.367594 0.546868,0.660785 c 0.300783,0.36343 0.930479,0.99615 1.399336,1.406047 l 0.852467,0.745251 0.370664,-0.440506 c 0.909222,-1.080547 2.482825,0.06488 1.811752,1.318872 -0.12851,0.240136 -0.04389,0.311903 0.696718,0.591024 0.67086,0.252805 2.181536,0.631063 2.859806,0.716038 0.06051,0.0071 0.110002,-0.156307 0.110002,-0.364188 z m 5.86144,-7.659348 c -0.279253,-0.144879 -1.048802,-0.577697 -1.710133,-0.96181 -1.168557,-0.678725 -1.212803,-0.691584 -1.571536,-0.456526 -0.203016,0.133021 -0.75101,0.273604 -1.217759,0.31241 -1.08799,0.0904 -1.971444,-0.332286 -2.606806,-1.247371 -0.384958,-0.55443 -0.441946,-0.764082 -0.44161,-1.624737 2.94e-4,-0.828467 0.06457,-1.08521 0.39777,-1.588654 0.218564,-0.330263 0.597916,-0.718951 0.843008,-0.863732 l 0.445626,-0.263231 0.002,-2.865253 c 0.002,-3.080995 0.06953,-3.421795 0.749884,-3.803679 0.532689,-0.29899 1.224429,-0.0075 1.438596,0.607484 0.08849,0.25389 0.158607,1.662122 0.161769,3.24971 l 0.0051,2.801644 0.59074,0.40881 c 0.672237,0.465199 1.150147,1.368661 1.155023,2.183473 0.003,0.532036 0.02372,0.550428 1.636714,1.465858 0.898426,0.509889 1.729322,1.073306 1.84643,1.252041 0.424895,0.648463 -0.131846,1.656988 -0.914695,1.656988 -0.166666,0 -0.531522,-0.118536 -0.810754,-0.263425 z m -4.24799,-3.550187 c 0.353128,-0.35312 0.358866,-0.427901 0.06498,-0.847417 -0.271428,-0.387525 -0.60258,-0.415936 -0.970204,-0.08329 -0.360842,0.32655 -0.338106,0.718411 0.05778,0.995686 0.419512,0.293837 0.4943,0.288102 0.847429,-0.065 z M 44.184469,93.555403 C 42.187823,93.117117 40.633483,92.23267 39.047386,90.632308 38.200773,89.778077 37.700273,89.115689 37.263598,88.271511 36.12823,86.076619 36.146488,86.232519 36.0535,77.940066 l -0.08296,-7.3979 -2.105357,2.67763 c -1.157944,1.472701 -2.266183,2.750903 -2.462752,2.840469 -0.750564,0.341983 -1.673569,-0.427211 -1.47275,-1.227333 0.12211,-0.486528 6.334417,-8.365167 6.783524,-8.603089 0.519226,-0.275056 1.036463,-0.07705 1.586192,0.607033 3.86057,4.80451 6.10508,7.784296 6.10508,8.105068 0,0.79473 -0.591015,1.31549 -1.313005,1.156911 -0.319704,-0.07017 -0.895167,-0.698191 -2.491201,-2.718523 -1.141504,-1.44497 -2.142645,-2.668741 -2.224755,-2.719481 -0.100769,-0.06231 -0.132274,2.236591 -0.09693,7.072406 0.04674,6.395616 0.08053,7.251267 0.314894,7.971399 0.925467,2.843817 3.044382,4.847395 5.898421,5.577332 1.06346,0.27199 1.647841,0.289747 9.531403,0.289747 4.619162,0 8.510224,0.04293 8.646804,0.09534 0.652927,0.250555 0.697143,1.622025 0.06325,1.961285 -0.436126,0.233398 -17.458222,0.166487 -18.548884,-0.07297 z m 48.534136,-28.85551 c -0.24933,-0.2659 -1.339793,-1.605529 -2.423232,-2.976955 -3.860813,-4.887026 -3.941207,-4.998912 -3.941207,-5.484804 0,-0.612264 0.452184,-1.042337 1.095918,-1.042337 0.549576,0 0.91139,0.388267 3.744151,4.017881 0.604891,0.775048 1.153908,1.409166 1.22004,1.409166 0.06609,0 0.09559,-3.217716 0.06548,-7.150509 -0.04875,-6.361999 -0.08352,-7.239472 -0.315947,-7.957228 -0.691335,-2.135111 -2.253323,-4.003993 -4.115809,-4.924487 -1.857235,-0.917896 -2.024824,-0.931738 -11.347534,-0.937451 -5.19285,-0.0035 -8.509481,-0.06008 -8.675194,-0.148736 -0.689288,-0.368896 -0.567892,-1.800192 0.168328,-1.984704 0.186584,-0.04675 4.365544,-0.06555 9.286563,-0.04176 l 8.947311,0.04325 1.128416,0.399527 c 2.699342,0.955734 4.856824,2.842968 6.053913,5.295609 1.062761,2.177414 1.104929,2.578368 1.104929,10.506508 0,3.795005 0.04947,6.898029 0.110013,6.895587 0.06051,-0.0021 0.932941,-1.064388 1.938754,-2.359894 1.005812,-1.295517 1.976228,-2.514608 2.156487,-2.709106 0.654763,-0.7065 1.955185,-0.24977 1.955185,0.686697 0,0.423402 -0.10621,0.577526 -2.42017,3.511124 -4.236668,5.371209 -4.21384,5.345414 -4.771129,5.392677 -0.4193,0.03562 -0.594004,-0.04413 -0.965297,-0.440028 z M 44.404483,64.039936 c -4.13219,-0.325055 -8.200448,-2.209719 -11.155442,-5.167884 -2.005194,-2.007343 -3.14311,-3.740328 -4.152386,-6.323883 -0.82242,-2.105217 -1.156679,-3.93671 -1.16312,-6.37302 -0.0131,-4.963053 1.761917,-9.283971 5.244503,-12.766554 3.482584,-3.482589 7.803505,-5.257619 12.766556,-5.244508 2.436308,0.0064 4.267802,0.340702 6.373023,1.163121 2.58355,1.009281 4.316539,2.14719 6.32388,4.152383 6.726094,6.718886 6.944415,17.695977 0.492559,24.765099 -3.705772,4.060314 -9.217448,6.228839 -14.729573,5.795246 z m 5.280381,-2.685496 c 2.90061,-0.763685 5.159978,-2.059429 7.269784,-4.16924 2.127659,-2.127653 3.406016,-4.368075 4.189899,-7.343115 0.302363,-1.147539 0.347016,-1.646055 0.341573,-3.813611 -0.0051,-2.16534 -0.05211,-2.657605 -0.354782,-3.740274 -1.622023,-5.802382 -5.612032,-9.834062 -11.284463,-11.402303 -1.270595,-0.351278 -1.660526,-0.390101 -3.97562,-0.395799 -2.381767,-0.0056 -2.672611,0.02352 -4.033621,0.407345 -5.50179,1.551634 -9.61911,5.66896 -11.170747,11.170743 -0.383951,1.361419 -0.413179,1.651144 -0.406911,4.033625 0.006,2.291689 0.04744,2.716231 0.386289,3.960278 1.658722,6.089845 6.647851,10.608386 12.804818,11.597034 1.397107,0.224341 4.86895,0.05466 6.233781,-0.304683 z m -6.160442,-1.118172 c -4.73443,-0.922499 -8.695264,-3.967412 -10.642156,-8.181202 -0.966223,-2.09126 -1.160731,-3.086785 -1.163172,-5.953255 -0.0019,-2.256627 0.03904,-2.708664 0.33896,-3.740263 1.198812,-4.123483 4.077824,-7.508952 7.864455,-9.247927 2.123639,-0.975254 3.100519,-1.166398 5.948746,-1.163969 2.22744,0.0021 2.719975,0.04626 3.724873,0.33541 4.920806,1.415973 8.614918,5.107767 10.082817,10.076486 0.307275,1.040088 0.346308,1.465051 0.343559,3.740263 -0.0036,3.026619 -0.244098,4.129112 -1.392396,6.384512 -1.468419,2.884171 -3.62594,5.020854 -6.496818,6.434077 -2.13637,1.051646 -3.156195,1.283337 -5.89534,1.339349 -1.290758,0.02637 -2.511848,0.01582 -2.713528,-0.02346 z m 1.173418,-2.484907 c 0,-0.463574 0.733116,-1.235468 1.173415,-1.235468 0.44195,0 1.173419,0.771894 1.173419,1.238266 0,0.317641 0.05472,0.369273 0.330024,0.311399 0.181512,-0.03809 0.666384,-0.135527 1.077491,-0.216409 0.411107,-0.08092 1.125241,-0.288392 1.586967,-0.461153 0.670402,-0.250835 0.818497,-0.362901 0.735228,-0.556432 -0.269964,-0.627437 -0.241534,-1.069348 0.09162,-1.423965 0.485891,-0.517208 1.179804,-0.485043 1.652388,0.07662 l 0.366088,0.435067 0.757287,-0.616017 c 0.416507,-0.33882 1.048076,-0.969246 1.403486,-1.400968 l 0.646201,-0.78494 -0.436442,-0.367239 c -0.563029,-0.473754 -0.59572,-1.167135 -0.07796,-1.653544 0.354618,-0.333149 0.796533,-0.361568 1.423965,-0.09159 0.193524,0.08329 0.305602,-0.0649 0.556433,-0.735221 0.172753,-0.461734 0.380271,-1.175863 0.46115,-1.586974 0.08088,-0.411103 0.178265,-0.895974 0.216416,-1.077484 0.05786,-0.275317 0.0063,-0.330028 -0.311404,-0.330028 -0.466374,0 -1.238268,-0.731475 -1.238268,-1.173419 0,-0.431958 0.77185,-1.17342 1.221515,-1.17342 0.342816,0 0.359436,-0.03627 0.285336,-0.623379 -0.08426,-0.667543 -0.688315,-2.693678 -0.900963,-3.022025 -0.09867,-0.152358 -0.198823,-0.160879 -0.430915,-0.03664 -0.465765,0.249268 -0.929219,0.193363 -1.302269,-0.157102 -0.498615,-0.468424 -0.456874,-1.169671 0.0974,-1.636045 l 0.436845,-0.367581 -0.54687,-0.660782 c -0.300779,-0.363435 -0.930483,-0.99615 -1.399338,-1.406042 l -0.852469,-0.745254 -0.370656,0.440501 c -0.909226,1.080551 -2.482829,-0.065 -1.811753,-1.318875 0.128438,-0.239995 0.04519,-0.311145 -0.682636,-0.583462 -0.455902,-0.170572 -1.165274,-0.376309 -1.57638,-0.457186 -0.411108,-0.08088 -0.89598,-0.178273 -1.077491,-0.21642 -0.275307,-0.05783 -0.330024,-0.0064 -0.330024,0.311406 0,0.466374 -0.731469,1.238265 -1.173419,1.238265 -0.441947,0 -1.173415,-0.771891 -1.173415,-1.238265 0,-0.317645 -0.05472,-0.369268 -0.330025,-0.311406 -0.181514,0.03811 -0.666384,0.135541 -1.077492,0.21642 -0.411106,0.08088 -1.120477,0.286614 -1.576379,0.457186 -0.727825,0.272317 -0.811074,0.343467 -0.682637,0.583462 0.671039,1.253846 -0.901321,2.400859 -1.810306,1.320589 l -0.36922,-0.438787 -0.756753,0.645951 c -0.416213,0.355274 -1.047431,0.986492 -1.402705,1.402708 l -0.645954,0.756751 0.438787,0.369213 c 0.540001,0.454379 0.58916,1.117568 0.119865,1.617113 -0.341117,0.363099 -0.75796,0.424682 -1.350281,0.199482 -0.348868,-0.132641 -0.383915,-0.098 -0.667374,0.65961 -0.294809,0.787951 -0.503524,1.588892 -0.657707,2.523938 -0.07153,0.433819 -0.04493,0.476704 0.295704,0.476704 0.459929,0 1.231807,0.735283 1.231807,1.173407 0,0.441955 -0.771894,1.173421 -1.238267,1.173421 -0.317641,0 -0.369271,0.05477 -0.311404,0.330026 0.03816,0.18151 0.135538,0.666381 0.216418,1.077494 0.08088,0.411103 0.286612,1.120474 0.457188,1.576376 0.272312,0.727828 0.343468,0.811077 0.583457,0.682642 1.255322,-0.671838 2.400641,0.901502 1.318878,1.811745 l -0.440502,0.370661 0.745255,0.852465 c 0.409892,0.468857 1.042609,1.098565 1.406041,1.399343 l 0.660783,0.546865 0.367595,-0.436865 c 0.474119,-0.563449 1.167332,-0.596303 1.653899,-0.07834 0.333146,0.354617 0.361577,0.796529 0.09161,1.423964 -0.08332,0.19366 0.06721,0.306944 0.749312,0.563988 0.679344,0.25599 2.188696,0.634592 2.870392,0.720005 0.06049,0.0075 0.110009,-0.156309 0.110009,-0.364195 z m -0.129008,-9.034205 c -0.353308,-0.174882 -0.815342,-0.564837 -1.02674,-0.866563 l -0.384363,-0.548599 -2.001884,-0.05005 c -2.313915,-0.0579 -2.618448,-0.191625 -2.618448,-1.150143 0,-0.960432 0.303164,-1.09271 2.629779,-1.147387 l 2.013218,-0.04735 0.257585,-0.436058 c 0.141671,-0.239824 0.48228,-0.581571 0.756906,-0.759411 l 0.499322,-0.323355 0.0018,-2.801644 c 10e-4,-1.598205 0.06892,-2.994113 0.158012,-3.249718 0.33211,-0.952682 1.702332,-0.952682 2.034441,0 0.08851,0.253907 0.158609,1.662133 0.161763,3.249718 l 0.0056,2.801644 0.560146,0.387019 c 0.325748,0.225072 0.698979,0.673817 0.891918,1.072372 1.196602,2.471842 -1.470173,5.091545 -3.93904,3.869483 z m 1.767575,-2.124705 c 0.370382,-0.335193 0.335498,-0.733166 -0.08862,-1.011054 -0.658363,-0.431377 -1.323018,0.24667 -0.889846,0.907778 0.266056,0.406044 0.604438,0.44176 0.978467,0.103308 z"
     id="path3538" />
</svg>
