<?xml version="1.0" encoding="UTF-8" standalone="no"?>
<svg
   xmlns:dc="http://purl.org/dc/elements/1.1/"
   xmlns:cc="http://creativecommons.org/ns#"
   xmlns:rdf="http://www.w3.org/1999/02/22-rdf-syntax-ns#"
   xmlns:svg="http://www.w3.org/2000/svg"
   xmlns="http://www.w3.org/2000/svg"
   xmlns:sodipodi="http://sodipodi.sourceforge.net/DTD/sodipodi-0.dtd"
   xmlns:inkscape="http://www.inkscape.org/namespaces/inkscape"
   id="Layer_1"
   data-name="Layer 1"
   width="130"
   height="130"
   viewBox="0 0 130 130"
   version="1.1"
   sodipodi:docname="login-sso.svg"
   inkscape:version="1.0 (4035a4fb49, 2020-05-01)">
  <metadata
     id="metadata2745">
    <rdf:RDF>
      <cc:Work
         rdf:about="">
        <dc:format>image/svg+xml</dc:format>
        <dc:type
           rdf:resource="http://purl.org/dc/dcmitype/StillImage" />
        <dc:title>Finance</dc:title>
      </cc:Work>
    </rdf:RDF>
  </metadata>
  <sodipodi:namedview
     inkscape:document-rotation="0"
     pagecolor="#ffffff"
     bordercolor="#666666"
     borderopacity="1"
     objecttolerance="10"
     gridtolerance="10"
     guidetolerance="10"
     inkscape:pageopacity="0"
     inkscape:pageshadow="2"
     inkscape:window-width="1274"
     inkscape:window-height="728"
     id="namedview2743"
     showgrid="false"
     inkscape:zoom="3.9615385"
     inkscape:cx="62.603792"
     inkscape:cy="71.076496"
     inkscape:window-x="76"
     inkscape:window-y="0"
     inkscape:window-maximized="0"
     inkscape:current-layer="Layer_1" />
  <defs
     id="defs2715">
    <style
       id="style2713">.cls-1{fill:#fff;}</style>
  </defs>
  <title
     id="title2717">Finance</title>
  <ellipse
     style="fill:#0055d4;stroke:#00ccff;stroke-width:1.178;stroke-linejoin:round;stroke-miterlimit:4;stroke-dasharray:none"
     id="path2747"
     cx="65"
     cy="65.378639"
     rx="62.223301"
     ry="62.60194" />
  <path
     id="path96"
     d="M 62.093341,105.94764 C 50.090061,105.01044 39.141581,98.643062 32.141937,88.528628 27.343463,81.594862 24.73533,72.354107 25.233532,64.051797 c 0.564005,-9.398938 3.756609,-17.420391 9.68379,-24.330639 1.261915,-1.471218 3.762194,-3.900667 5.222459,-5.074522 1.345051,-1.081233 4.376808,-3.115373 5.831901,-3.912861 5.463805,-2.994555 11.428071,-4.646071 17.637244,-4.883795 2.170128,-0.08311 2.242374,-0.07743 2.515509,0.195674 l 0.281213,0.281215 v 39.594815 c 0,39.420586 -0.0011,39.595956 -0.261353,39.856156 -0.235752,0.23576 -0.418127,0.25912 -1.86213,0.23852 -0.880431,-0.0124 -1.865401,-0.0435 -2.188824,-0.0687 z M 64.51085,93.949889 V 83.889634 l -5.276744,-0.03416 -5.27674,-0.03416 0.08825,0.687539 c 0.194533,1.515759 1.424614,6.260781 2.176918,8.397424 1.532715,4.353143 3.191086,7.345373 5.142138,9.278013 1.041508,1.03167 2.493899,1.9515 2.944391,1.86473 0.179857,-0.0347 0.201797,-1.13256 0.201797,-10.099122 z m -4.769676,9.398611 c 0,-0.0424 -0.257641,-0.38055 -0.572536,-0.75137 -1.775408,-2.09073 -3.761727,-6.061735 -5.043514,-10.082899 -0.716492,-2.24773 -2.093831,-7.925429 -2.093831,-8.631237 0,-0.03233 -2.587382,-0.05875 -5.749742,-0.05875 -3.162358,0 -5.749743,0.04866 -5.749743,0.10815 0,0.426767 1.920966,4.406567 2.962668,6.137974 2.589704,4.304342 6.070531,8.022503 9.740739,10.404882 1.340073,0.86987 3.943901,2.14666 5.329875,2.61357 1.044696,0.35191 1.176084,0.3809 1.176084,0.25964 z m -8.75529,-2.06321 c 0,-0.0273 -0.523906,-0.46793 -1.164235,-0.97925 -4.419218,-3.528857 -8.368994,-9.030454 -10.800793,-15.044314 l -0.55483,-1.372092 -3.483027,-0.03478 -3.483025,-0.03479 0.488388,0.884205 c 0.268611,0.486326 0.897575,1.501662 1.397692,2.256308 3.146567,4.748021 7.014779,8.497302 11.896534,11.530779 2.297868,1.427865 5.703296,3.096154 5.703296,2.793984 z M 37.65594,81.751686 c -5.18e-4,-0.11782 -0.120659,-0.596454 -0.26691,-1.063613 -0.946299,-3.022755 -1.687053,-7.388938 -2.02302,-11.924185 L 35.2813,67.620473 h -4.043324 c -3.254739,0 -4.056403,0.03408 -4.110379,0.174736 -0.127609,0.332548 0.458819,4.77771 0.85913,6.512264 0.668998,2.898778 2.192711,7.277974 2.631905,7.564175 0.06147,0.04009 1.670236,0.07761 3.575033,0.08354 3.12692,0.0092 3.463167,-0.0102 3.462266,-0.203511 z m 13.926877,0.09812 c 0.04004,-0.06476 -0.0477,-0.984819 -0.195004,-2.044522 -0.387021,-2.784382 -0.642669,-5.802917 -0.729669,-8.615505 -0.04182,-1.352192 -0.106406,-2.708446 -0.143513,-3.013897 l -0.06746,-0.555374 h -6.580239 c -4.482109,0 -6.594832,0.04381 -6.626005,0.137294 -0.08225,0.246743 0.151852,3.151871 0.415405,5.155078 0.387467,2.945052 1.677738,8.387513 2.11273,8.91165 0.114658,0.138139 1.289316,0.16932 5.941934,0.157621 3.284761,-0.0082 5.830586,-0.06558 5.871826,-0.132345 z m 12.830021,-0.02847 c 0.12707,-0.09322 0.163342,-1.637586 0.163342,-6.953607 0,-3.758595 -0.03569,-6.926814 -0.07936,-7.040504 -0.0707,-0.184331 -0.728392,-0.206698 -6.076429,-0.206698 h -5.99712 v 1.442479 c 0,3.331025 0.853436,12.347097 1.209334,12.775925 0.118024,0.142218 1.129846,0.168291 5.381098,0.13868 2.902774,-0.02019 5.308519,-0.08986 5.399084,-0.156275 z M 35.350125,63.798198 c 0.182536,-4.232839 0.854065,-8.487769 1.925468,-12.200109 0.20974,-0.726728 0.381344,-1.417683 0.381344,-1.535443 0,-0.192971 -0.338595,-0.213909 -3.430244,-0.212103 -1.886633,8.92e-4 -3.495397,0.04518 -3.575032,0.098 -0.262399,0.173995 -1.111561,2.250378 -1.802827,4.408315 -0.975625,3.045612 -1.582433,6.456239 -1.737899,9.76803 l -0.07822,1.666121 h 4.115732 4.115732 z m 15.115756,1.502774 c 0.0068,-1.217116 0.268025,-6.80825 0.395459,-8.461267 0.07758,-1.006203 0.284338,-2.917344 0.459478,-4.246967 0.175143,-1.329635 0.318441,-2.491009 0.318443,-2.580857 4e-6,-0.238402 -11.666889,-0.238402 -11.863624,0 -0.198445,0.240485 -1.133159,3.573387 -1.53006,5.455729 -0.189432,0.898395 -0.454121,2.456698 -0.588198,3.46291 -0.293112,2.199695 -0.594011,6.356653 -0.481371,6.650191 0.07269,0.189444 0.735617,0.2103 6.683937,0.2103 h 6.603236 z M 64.51085,57.819774 v -7.905895 l -5.373198,-0.03408 c -4.234817,-0.02685 -5.402548,8.92e-4 -5.511774,0.132869 -0.192465,0.231916 -0.903402,6.334375 -1.06726,9.161056 -0.07442,1.283688 -0.135297,3.29832 -0.135297,4.47695 v 2.142965 l 6.043761,-0.03399 6.043768,-0.03399 z M 38.831023,47.006343 c 2.535919,-6.197171 6.352665,-11.638623 10.638847,-15.167575 0.49582,-0.408221 1.054458,-0.877842 1.241422,-1.043609 l 0.339931,-0.301374 -0.326689,0.082 c -0.179681,0.04508 -1.11006,0.462696 -2.067513,0.927985 -5.390624,2.619653 -9.887676,6.281796 -13.701358,11.157601 -0.719449,0.919821 -2.35221,3.397843 -3.035088,4.606328 l -0.424586,0.751388 h 3.460308 3.460307 z m 13.321681,0.294016 c 0.07697,-0.39529 0.203796,-1.056839 0.281847,-1.470098 0.190582,-1.009135 0.843685,-3.629512 1.245788,-4.998354 1.457105,-4.960311 3.339542,-8.943246 5.449519,-11.530313 0.336223,-0.41225 0.611316,-0.780894 0.611316,-0.819216 0,-0.112543 -0.637731,0.07514 -1.889832,0.556062 -6.536146,2.510682 -12.018424,7.865731 -15.819513,15.452392 -0.680558,1.358334 -1.500021,3.220762 -1.500021,3.409151 0,0.06992 2.37271,0.119097 5.740477,0.119097 h 5.740478 z m 12.391621,-9.379787 c 0.02999,-8.972885 0.01203,-10.041408 -0.169596,-10.111096 -0.408998,-0.156951 -1.917624,0.771821 -3.004393,1.849627 -2.293926,2.275008 -4.26701,6.164247 -5.873896,11.57831 -0.668245,2.251505 -1.504921,5.895367 -1.504986,6.55447 -2e-5,0.216522 0.311717,0.228139 5.259686,0.196005 l 5.25971,-0.03416 z m 21.93772,60.37608 c -0.177979,-0.16172 -1.651368,-1.78004 -3.274185,-3.596278 L 80.257301,91.398117 V 77.437655 63.477179 l -0.882064,-0.591515 c -1.692585,-1.135047 -3.346382,-2.911954 -4.428018,-4.757613 -0.655237,-1.118097 -1.330966,-2.869008 -1.635364,-4.237557 -0.412773,-1.855741 -0.420107,-4.603542 -0.01692,-6.336537 1.348213,-5.794928 5.86746,-10.242838 11.569618,-11.386996 1.582783,-0.317595 4.513678,-0.287934 6.050601,0.0612 3.890203,0.883781 7.153576,3.155097 9.306846,6.47759 3.24082,5.000554 3.09749,11.628607 -0.357282,16.522453 -0.88654,1.25585 -2.457693,2.819553 -3.632282,3.61508 l -0.947403,0.641666 -2.97e-4,4.517918 -2.96e-4,4.51792 -1.763863,2.205496 c -0.970131,1.21301 -1.763863,2.237851 -1.763863,2.277411 0,0.03959 0.793844,0.878493 1.764119,1.864289 1.541268,1.565947 1.764127,1.846426 1.764127,2.220439 0,0.374595 -0.220412,0.650514 -1.764127,2.20845 -0.970275,0.979208 -1.764119,1.823176 -1.764119,1.875512 0,0.05233 0.793844,1.085798 1.764119,2.296587 1.377364,1.718811 1.764127,2.286776 1.764127,2.590633 0,0.331674 -0.552431,0.966501 -3.739192,4.296755 -2.056541,2.149194 -3.864774,3.979009 -4.018284,4.066316 -0.413049,0.234891 -0.684215,0.202194 -1.045509,-0.126035 z m 3.653248,-5.189057 c 1.572654,-1.650134 2.874866,-3.046736 2.893796,-3.103559 0.01897,-0.05682 -0.759441,-1.101926 -1.729692,-2.322445 -1.404212,-1.766404 -1.764109,-2.301372 -1.764109,-2.622255 0,-0.341892 0.257968,-0.663079 1.698797,-2.115128 0.93432,-0.941603 1.698788,-1.758243 1.698788,-1.814761 0,-0.05651 -0.764468,-0.874762 -1.698788,-1.818342 -1.518124,-1.533141 -1.698439,-1.763087 -1.695441,-2.162125 0.0031,-0.377063 0.307764,-0.827746 1.960141,-2.897128 l 1.956785,-2.450599 v -4.613594 c 0,-3.497459 0.03948,-4.661811 0.163344,-4.812898 0.08976,-0.10962 0.665376,-0.527901 1.278956,-0.929515 1.985063,-1.299265 3.952252,-3.65416 4.794523,-5.739405 0.645967,-1.599266 0.958777,-3.186674 0.964007,-4.892116 0.005,-1.74652 -0.0464,-2.168384 -0.43148,-3.513366 -0.682837,-2.3853 -1.824895,-4.272131 -3.607169,-5.959465 -2.532372,-2.397459 -5.36561,-3.517086 -8.887798,-3.512267 -1.784223,0.0018 -2.872866,0.179615 -4.327354,0.704279 -4.298488,1.550553 -7.657394,5.517781 -8.363489,9.878201 -0.19997,1.234875 -0.170175,3.599145 0.06069,4.816178 0.631971,3.3315 2.650211,6.323398 5.542712,8.21667 0.614662,0.402319 1.191063,0.821186 1.280905,0.930806 0.128336,0.156594 0.164658,3.211139 0.169453,14.254665 l 0.0062,14.055346 2.444059,2.706914 c 1.344237,1.488788 2.509034,2.708973 2.588462,2.711512 0.07946,0.0031 1.431119,-1.34548 3.003772,-2.995603 z m -3.60238,-37.841366 c -1.440074,-0.403291 -2.599681,-1.395931 -3.249103,-2.781277 -0.301726,-0.643627 -0.346993,-0.905627 -0.342659,-1.983029 0.004,-1.138898 0.03999,-1.309189 0.428502,-2.061941 0.555358,-1.076011 1.28784,-1.789736 2.356267,-2.295939 0.790183,-0.37437 0.981974,-0.411217 2.110592,-0.405463 1.126262,0.0055 1.314645,0.04399 2.030888,0.412821 3.159395,1.626745 3.732726,5.645133 1.143102,8.011896 -1.185188,1.083202 -2.974337,1.523906 -4.477589,1.102932 z m 2.563358,-2.028982 c 0.760042,-0.367938 1.30618,-1.028664 1.553518,-1.879511 0.339966,-1.169447 -0.0092,-2.277914 -0.97832,-3.107621 -1.589433,-1.360485 -3.85132,-0.760303 -4.71682,1.251589 -0.603411,1.402685 0.130315,3.171618 1.575102,3.797431 0.676432,0.29299 1.894067,0.263632 2.56652,-0.06185 z"
     style="fill:#d5e5ff;stroke-width:0.130677" />
</svg>
