<?xml version="1.0" encoding="UTF-8" standalone="no"?>
<svg
   xmlns:dc="http://purl.org/dc/elements/1.1/"
   xmlns:cc="http://creativecommons.org/ns#"
   xmlns:rdf="http://www.w3.org/1999/02/22-rdf-syntax-ns#"
   xmlns:svg="http://www.w3.org/2000/svg"
   xmlns="http://www.w3.org/2000/svg"
   xmlns:sodipodi="http://sodipodi.sourceforge.net/DTD/sodipodi-0.dtd"
   xmlns:inkscape="http://www.inkscape.org/namespaces/inkscape"
   inkscape:version="1.0 (4035a4fb49, 2020-05-01)"
   sodipodi:docname="product-classification.svg"
   version="1.1"
   viewBox="0 0 130 130"
   height="130"
   width="130"
   data-name="Layer 1"
   id="Layer_1">
  <metadata
     id="metadata2745">
    <rdf:RDF>
      <cc:Work
         rdf:about="">
        <dc:format>image/svg+xml</dc:format>
        <dc:type
           rdf:resource="http://purl.org/dc/dcmitype/StillImage" />
        <dc:title>Finance</dc:title>
      </cc:Work>
    </rdf:RDF>
  </metadata>
  <sodipodi:namedview
     inkscape:current-layer="Layer_1"
     inkscape:window-maximized="0"
     inkscape:window-y="0"
     inkscape:window-x="76"
     inkscape:cy="65.959447"
     inkscape:cx="84.773946"
     inkscape:zoom="3.9615385"
     showgrid="false"
     id="namedview2743"
     inkscape:window-height="728"
     inkscape:window-width="1274"
     inkscape:pageshadow="2"
     inkscape:pageopacity="0"
     guidetolerance="10"
     gridtolerance="10"
     objecttolerance="10"
     borderopacity="1"
     bordercolor="#666666"
     pagecolor="#ffffff"
     inkscape:document-rotation="0" />
  <defs
     id="defs2715">
    <style
       id="style2713">.cls-1{fill:#fff;}</style>
  </defs>
  <title
     id="title2717">Finance</title>
  <ellipse
     ry="62.60194"
     rx="62.223301"
     cy="65.378639"
     cx="65"
     id="path2747"
     style="fill:#0055d4;stroke:#00ccff;stroke-width:1.178;stroke-linejoin:round;stroke-miterlimit:4;stroke-dasharray:none" />
  <path
     style="fill:#d5e5ff;stroke-width:0.355809"
     d="m 61.1897,105.94675 c -2.628333,-1.32601 -3.291228,-1.81579 -3.291228,-2.43175 0,-1.16798 0.925112,-1.28662 2.776784,-0.35606 0.918951,0.46183 2.031077,0.95126 2.47139,1.08763 l 0.800571,0.24797 V 93.330415 82.166295 L 55.496765,78.14419 C 50.849014,75.932038 46.846168,74.043074 46.60155,73.9465 46.25143,73.808273 46.156789,76.159462 46.156789,84.99591 v 11.225001 l 4.829646,2.322465 c 4.284821,2.060464 4.816655,2.413634 4.714463,3.130724 -0.06337,0.44454 -0.370205,0.85682 -0.681899,0.91617 -0.311697,0.0592 -2.915505,-1.01026 -5.786242,-2.3769 l -5.219523,-2.48479 0.09331,-13.275048 0.09329,-13.275054 5.248178,-2.563964 5.248178,-2.563963 v -2.862118 -2.862116 h -2.28365 c -1.256012,0 -2.536921,-0.09719 -2.846469,-0.215975 -0.729589,-0.279966 -0.729589,-1.778745 0,-2.058713 1.042092,-0.399889 6.392205,-0.234805 6.838003,0.210998 0.267398,0.267398 0.426972,1.597186 0.426972,3.558086 0,1.722112 0.07438,3.131115 0.165301,3.131115 0.09091,0 1.793454,-0.800569 3.783411,-1.779042 1.98996,-0.978475 3.923376,-1.779044 4.29648,-1.779044 0.373103,0 1.312447,0.323483 2.087431,0.718848 l 1.409057,0.718851 V 49.659288 36.487141 H 64.12512 59.677512 v 2.855277 c 0,2.737556 -0.03764,2.86958 -0.912684,3.202273 -1.393691,0.529882 -12.334969,0.447223 -13.081738,-0.09884 -0.545695,-0.399016 -0.599532,-1.174194 -0.512767,-7.383024 l 0.09696,-6.937198 h 7.116172 7.11617 l 0.177906,3.024372 0.177904,3.024373 5.322269,0.09888 c 3.711128,0.06895 5.405901,0.230519 5.598537,0.533714 0.151947,0.239154 0.27872,6.92622 0.281714,14.860152 l 0.0055,14.425325 3.088547,1.408158 c 1.6987,0.774482 3.219784,1.461525 3.380182,1.526755 0.160395,0.06524 0.291633,-3.94562 0.291633,-8.913006 0,-6.550172 0.117308,-9.148915 0.426971,-9.458577 0.296058,-0.296057 2.150666,-0.42697 6.048744,-0.42697 h 5.621779 V 45.80615 c 0,-3.785679 -0.280947,-3.658458 7.82886,-3.54513 l 6.937209,0.09695 0.10119,6.404554 c 0.0558,3.522507 0.0126,6.764813 -0.0957,7.205126 -0.19588,0.796022 -0.23631,0.800567 -7.115985,0.800567 -8.02023,0 -7.655621,0.176818 -7.655621,-3.712598 v -2.33614 H 84.933796 79.94626 l 0.09518,8.779282 0.09516,8.779281 2.846468,1.450215 2.846469,1.450216 v 3.735987 3.735994 h -0.889564 c -0.85178,0 -0.894016,-0.103241 -0.995451,-2.433262 -0.07484,-1.719371 -0.231435,-2.383571 -0.533712,-2.263886 -0.235283,0.09316 -4.230489,1.97556 -8.87824,4.183113 l -8.450453,4.013741 v 11.172186 c 0,10.933224 0.01493,11.167434 0.697196,10.950904 0.383457,-0.1217 3.545706,-1.59268 7.027222,-3.26885 3.481509,-1.67617 7.167272,-3.41839 8.190576,-3.871627 l 1.860555,-0.824055 0.09639,-7.227991 0.09639,-7.227994 h 0.889521 0.889521 v 7.985234 7.985243 l -10.282652,4.91282 c -5.655455,2.70204 -10.458871,4.90343 -10.674256,4.89197 -0.215386,-0.0119 -1.87266,-0.76807 -3.682836,-1.68126 z M 63.947217,71.901747 V 64.263519 L 60.522574,65.853 c -1.883551,0.87422 -3.484688,1.589486 -3.558086,1.589486 -0.07339,0 -0.133437,1.965367 -0.133437,4.367486 v 4.367482 l 3.291228,1.660399 c 1.810175,0.913225 3.411313,1.669793 3.558085,1.681266 0.146777,0.01149 0.266858,-3.416344 0.266858,-7.617372 z m 3.575754,7.095382 1.049755,-0.542851 v -6.507421 -6.507422 l -1.245329,-0.593856 -1.24533,-0.593854 v 7.644128 c 0,4.204266 0.08801,7.644127 0.195573,7.644127 0.107562,0 0.667964,-0.244284 1.245331,-0.542851 z m 7.083295,-3.421721 3.217485,-1.473917 -0.0057,-2.173122 -0.0057,-2.173126 -3.066243,-1.423234 c -1.686431,-0.782777 -3.204944,-1.476606 -3.374477,-1.541836 -0.16955,-0.06523 -0.308258,2.216389 -0.308258,5.070272 0,2.853879 0.0732,5.188873 0.16269,5.188873 0.08949,0 1.610569,-0.663258 3.380183,-1.47391 z m -19.91007,-3.685315 c 0,-2.191823 -0.122432,-3.01945 -0.444763,-3.006503 -0.244619,0.0098 -1.784953,0.701779 -3.422959,1.537669 l -2.978204,1.519798 2.978204,1.45901 c 1.638006,0.802457 3.17834,1.471472 3.422959,1.486705 0.3231,0.02013 0.444763,-0.799613 0.444763,-2.996679 z m 26.573524,0.506904 1.001637,-0.382617 -0.889521,-0.494295 c -1.242544,-0.690467 -1.423235,-0.64349 -1.423235,0.370008 0,1.021497 -0.0179,1.01458 1.311119,0.506904 z M 102.37453,53.38805 v -1.245334 h -4.981308 -4.981319 v 1.245334 1.24533 h 4.981319 4.981308 z m 2e-5,-3.839696 c -1e-5,-0.138657 -2e-5,-1.372903 -2e-5,-2.742766 v -2.490657 h -4.981308 -4.981319 l -4e-6,2.757516 -4e-6,2.757515 4.981345,-0.01476 c 2.73974,-0.0081 4.98133,-0.128204 4.98131,-0.266856 z m -6.987509,-1.853241 c -0.444822,-1.159185 0.144464,-1.601141 2.134854,-1.601141 2.043565,0 2.805935,0.637481 1.968756,1.646237 -0.575934,0.693946 -3.833754,0.658143 -4.10361,-0.04512 z M 57.542663,39.145935 v -1.255097 l -5.070272,0.09873 -5.070273,0.09872 -0.111504,1.156378 -0.111503,1.156377 h 5.181768 5.181768 z m 0,-6.023387 v -2.652977 l -2.579612,-0.104539 c -1.418787,-0.05749 -3.740436,-0.05185 -5.159223,0.01249 l -2.579612,0.117069 v 2.640454 2.640455 h 5.159223 5.159224 v -2.652978 z m -7.338186,0.353575 c -0.35673,-0.929625 0.551959,-1.614912 2.133576,-1.609043 1.779151,0.0064 2.470371,0.391908 2.300738,1.282513 -0.104116,0.546658 -0.50167,0.688518 -2.174161,0.775819 -1.596028,0.08332 -2.09374,-0.0156 -2.260153,-0.449289 z M 25.32268,65.919345 C 25.22651,65.6687 25.191489,62.426395 25.2449,58.714224 l 0.09708,-6.74941 6.937198,-0.09696 c 8.109805,-0.113328 7.82886,-0.24055 7.82886,3.545129 v 2.422655 h 2.461559 c 3.010338,0 3.587186,0.200259 3.587186,1.24533 0,1.045071 -0.576848,1.245332 -3.587186,1.245332 h -2.461559 v 2.336144 c 0,3.890213 0.367107,3.712599 -7.673572,3.712599 -5.310249,0 -6.977922,-0.106861 -7.111791,-0.455715 z m 12.294704,-2.924464 v -1.245332 h -4.981322 -4.981321 v 1.245332 1.24533 h 4.981321 4.981322 z m 0,-6.226651 v -2.846468 h -4.953213 -4.953208 l -0.117057,2.699799 c -0.0644,1.484885 -0.05035,2.765798 0.03118,2.846468 0.08153,0.08067 2.363164,0.146663 5.070273,0.146663 h 4.922022 z m -7.064965,0.595417 c -0.230611,-0.277871 -0.316507,-0.773078 -0.190878,-1.100463 0.183315,-0.47771 0.623621,-0.574434 2.229941,-0.489858 1.869654,0.09844 2.001527,0.163986 2.001527,0.994904 0,0.818463 -0.144643,0.897956 -1.810649,0.99508 -1.236547,0.07208 -1.943589,-0.05464 -2.229941,-0.399663 z"
     id="path8547" />
</svg>
