<?xml version="1.0" encoding="UTF-8" standalone="no"?>
<svg
   xmlns:dc="http://purl.org/dc/elements/1.1/"
   xmlns:cc="http://creativecommons.org/ns#"
   xmlns:rdf="http://www.w3.org/1999/02/22-rdf-syntax-ns#"
   xmlns:svg="http://www.w3.org/2000/svg"
   xmlns="http://www.w3.org/2000/svg"
   xmlns:sodipodi="http://sodipodi.sourceforge.net/DTD/sodipodi-0.dtd"
   xmlns:inkscape="http://www.inkscape.org/namespaces/inkscape"
   id="Layer_1"
   data-name="Layer 1"
   width="130"
   height="130"
   viewBox="0 0 130 130"
   version="1.1"
   sodipodi:docname="product-bases.svg"
   inkscape:version="1.0 (4035a4fb49, 2020-05-01)">
  <metadata
     id="metadata2745">
    <rdf:RDF>
      <cc:Work
         rdf:about="">
        <dc:format>image/svg+xml</dc:format>
        <dc:type
           rdf:resource="http://purl.org/dc/dcmitype/StillImage" />
        <dc:title>Finance</dc:title>
      </cc:Work>
    </rdf:RDF>
  </metadata>
  <sodipodi:namedview
     inkscape:document-rotation="0"
     pagecolor="#ffffff"
     bordercolor="#666666"
     borderopacity="1"
     objecttolerance="10"
     gridtolerance="10"
     guidetolerance="10"
     inkscape:pageopacity="0"
     inkscape:pageshadow="2"
     inkscape:window-width="1274"
     inkscape:window-height="728"
     id="namedview2743"
     showgrid="false"
     inkscape:zoom="3.9615385"
     inkscape:cx="56.960145"
     inkscape:cy="67.469438"
     inkscape:window-x="76"
     inkscape:window-y="0"
     inkscape:window-maximized="0"
     inkscape:current-layer="Layer_1" />
  <defs
     id="defs2715">
    <style
       id="style2713">.cls-1{fill:#fff;}</style>
  </defs>
  <title
     id="title2717">Finance</title>
  <ellipse
     style="fill:#0055d4;stroke:#00ccff;stroke-width:1.178;stroke-linejoin:round;stroke-miterlimit:4;stroke-dasharray:none"
     id="path2747"
     cx="65"
     cy="65.378639"
     rx="62.223301"
     ry="62.60194" />
  <path
     sodipodi:nodetypes="ccccccccccccccccccccccccsccccccccccccccccccccccccccccccccsccccccccccccccccccccc"
     id="path9147"
     d="m 31.004351,84.470746 v -9.846019 l 5.890035,9.49e-4 5.890036,9.48e-4 1.054931,2.020956 1.054932,2.020956 5.186755,0.09728 5.186743,0.09729 v 7.726768 7.72676 H 43.136073 31.004351 v -9.846035 z m 21.098635,2.10987 v -4.571367 h -4.682527 -4.682542 l -1.014287,-2.122123 -1.014279,-2.122124 -3.182193,0.10021 -3.182194,0.10021 -0.09649,6.141424 c -0.05319,3.377769 -0.01848,6.344766 0.07682,6.593309 0.134868,0.351467 2.129891,0.451915 8.975553,0.451915 h 8.802136 z m 24.263432,-2.10987 v -9.846019 h 5.79707 5.797063 l 1.065058,2.10986 1.06505,2.109861 h 5.269598 5.269593 v 7.736168 7.736177 H 88.498144 76.366418 Z m 21.021234,2.021961 0.09835,-4.483458 H 92.73337 87.98073 l -1.06506,-2.10987 -1.06505,-2.109861 h -3.15967 -3.159735 v 6.68728 6.68726 l 8.879008,-0.094 8.879017,-0.094 z M 41.905325,66.888565 v -4.571381 l 10.285579,-0.03734 c 5.657065,-0.02059 10.602065,-0.06009 10.988873,-0.08784 0.628616,-0.04517 0.714173,-0.339245 0.805879,-2.769592 l 0.102602,-2.719058 c 0.769516,-7.141143 2.858636,-6.810249 3.48697,0 v 2.807004 2.806995 H 78.652015 89.728792 V 66.888734 71.4601 H 88.146438 86.564033 V 68.471119 65.48214 H 65.817223 45.070238 v 2.988979 2.988971 h -1.582407 -1.582388 z m 8.087798,-39.051862 c -33.328749,-18.557802 -16.664374,-9.278901 0,0 z"
     style="fill:#d5e5ff;stroke-width:0.351643" />
  <g
     id="g491"
     transform="matrix(0.22044013,0,0,0.22044013,13.114136,-10.051671)"
     style="fill:#d5e5ff">
    <path
       style="stroke-width:0.882019"
       id="path489"
       d="m 317.37074,200.5542 c -0.0732,-0.21698 -0.16053,-0.42866 -0.26108,-0.63506 -0.11731,-0.35633 -0.26108,-0.70297 -0.43043,-1.03725 -0.14994,-0.2258 -0.31223,-0.44189 -0.48687,-0.64917 -0.18434,-0.28048 -0.38985,-0.54773 -0.61389,-0.79734 -0.20904,-0.18523 -0.42866,-0.35987 -0.65622,-0.52216 -0.22403,-0.20374 -0.45953,-0.39426 -0.70562,-0.57155 l -70.56154,-42.33692 c -2.23592,-1.34332 -5.03192,-1.34332 -7.26784,0 l -70.56155,42.33692 c -0.26107,0.172 -0.50892,0.36251 -0.74089,0.57155 -0.23021,0.16229 -0.4516,0.33693 -0.66328,0.52216 -0.21962,0.24961 -0.42249,0.51333 -0.60683,0.79029 -0.17905,0.20815 -0.34399,0.42689 -0.49393,0.65622 -0.16582,0.32546 -0.30694,0.6624 -0.42337,1.00903 -0.10055,0.21874 -0.19052,0.44277 -0.26813,0.67033 -0.16494,0.59537 -0.24785,1.21013 -0.24697,1.82755 v 70.56154 c 8.8e-4,2.47671 1.29922,4.77173 3.42224,6.04713 l 70.56154,42.33693 0.0776,0.0353 0.0776,0.0564 c 0.37044,0.19228 0.75765,0.35104 1.15721,0.47276 0.16229,0.0564 0.31752,0.14818 0.48687,0.19757 1.20131,0.32899 2.46877,0.32899 3.6692,0 0.16935,-0.0494 0.32458,-0.14112 0.48688,-0.19757 0.39955,-0.12172 0.78676,-0.28048 1.1572,-0.47276 l 0.0776,-0.0564 0.0776,-0.0353 70.56155,-42.33693 c 2.12302,-1.2754 3.42135,-3.57042 3.42223,-6.04713 V 202.3888 c 8.8e-4,-0.61918 -0.0829,-1.23659 -0.24696,-1.8346 z M 240,168.27935 l 21.56361,12.94098 -56.84438,34.10946 -21.56361,-12.94099 z m -7.05615,134.5397 -56.44924,-33.86955 v -54.09953 l 56.44924,33.86954 z M 240,236.49825 l -21.56361,-12.94099 56.84438,-34.10945 21.56361,12.94099 z m 63.50539,32.45831 -56.44923,33.86954 v -54.10659 l 56.44923,-33.86954 z" />
  </g>
</svg>
