<?xml version="1.0" encoding="UTF-8" standalone="no"?>
<svg
   xmlns:dc="http://purl.org/dc/elements/1.1/"
   xmlns:cc="http://creativecommons.org/ns#"
   xmlns:rdf="http://www.w3.org/1999/02/22-rdf-syntax-ns#"
   xmlns:svg="http://www.w3.org/2000/svg"
   xmlns="http://www.w3.org/2000/svg"
   xmlns:sodipodi="http://sodipodi.sourceforge.net/DTD/sodipodi-0.dtd"
   xmlns:inkscape="http://www.inkscape.org/namespaces/inkscape"
   id="Layer_1"
   data-name="Layer 1"
   width="130"
   height="130"
   viewBox="0 0 130 130"
   version="1.1"
   sodipodi:docname="production-line.svg"
   inkscape:version="1.0 (4035a4fb49, 2020-05-01)">
  <metadata
     id="metadata2745">
    <rdf:RDF>
      <cc:Work
         rdf:about="">
        <dc:format>image/svg+xml</dc:format>
        <dc:type
           rdf:resource="http://purl.org/dc/dcmitype/StillImage" />
        <dc:title>Finance</dc:title>
      </cc:Work>
    </rdf:RDF>
  </metadata>
  <sodipodi:namedview
     inkscape:document-rotation="0"
     pagecolor="#ffffff"
     bordercolor="#666666"
     borderopacity="1"
     objecttolerance="10"
     gridtolerance="10"
     guidetolerance="10"
     inkscape:pageopacity="0"
     inkscape:pageshadow="2"
     inkscape:window-width="1274"
     inkscape:window-height="728"
     id="namedview2743"
     showgrid="false"
     inkscape:zoom="3.9615385"
     inkscape:cx="50.405699"
     inkscape:cy="59.567488"
     inkscape:window-x="76"
     inkscape:window-y="0"
     inkscape:window-maximized="0"
     inkscape:current-layer="Layer_1" />
  <defs
     id="defs2715">
    <style
       id="style2713">.cls-1{fill:#fff;}</style>
  </defs>
  <title
     id="title2717">Finance</title>
  <ellipse
     style="fill:#0055d4;stroke:#00ccff;stroke-width:1.178;stroke-linejoin:round;stroke-miterlimit:4;stroke-dasharray:none"
     id="path2747"
     cx="65"
     cy="65.378639"
     rx="62.223301"
     ry="62.60194" />
  <g
     id="g3323"
     transform="matrix(0.17801631,0,0,0.17801631,23.789224,20.18466)"
     style="fill:#d5e5ff">
    <path
       id="path3303"
       d="M 423.5,316 H 423 v -24.5 c 0,-4.143 -3.358,-7.5 -7.5,-7.5 H 407 v -54.396 c 0,-13.989 -9.395,-26.444 -22.847,-30.289 L 359,192.129 v -11.531 c 5.054,-4.43 8,-10.831 8,-17.66 V 139 h 8.5 c 4.142,0 7.5,-3.357 7.5,-7.5 0,-4.143 -3.358,-7.5 -7.5,-7.5 H 375 v -0.5 C 375,99.861 357.64,80.205 335,76.598 V 75.5 c 0,-4.143 -3.358,-7.5 -7.5,-7.5 -4.142,0 -7.5,3.357 -7.5,7.5 v 1.098 c -22.64,3.607 -40,23.263 -40,46.902 v 0.5 h -0.5 c -4.142,0 -7.5,3.357 -7.5,7.5 0,4.143 3.358,7.5 7.5,7.5 h 8.5 v 23.937 c 0,6.829 2.945,13.23 8,17.659 v 11.532 l -25.155,7.187 C 257.395,203.159 248,215.614 248,229.604 V 316 h -9 v -40.5 c 0,-4.143 -3.358,-7.5 -7.5,-7.5 H 215 v -38.396 c 0,-13.989 -9.395,-26.444 -22.847,-30.289 L 167,192.129 v -11.531 c 5.054,-4.43 8,-10.831 8,-17.66 V 139 h 8.5 c 4.142,0 7.5,-3.357 7.5,-7.5 0,-4.143 -3.358,-7.5 -7.5,-7.5 H 183 v -0.5 C 183,99.861 165.64,80.205 143,76.598 V 75.5 c 0,-4.143 -3.358,-7.5 -7.5,-7.5 -4.142,0 -7.5,3.357 -7.5,7.5 v 1.098 C 105.36,80.205 88,99.861 88,123.5 v 0.5 h -0.5 c -4.142,0 -7.5,3.357 -7.5,7.5 0,4.143 3.358,7.5 7.5,7.5 H 96 v 23.937 c 0,6.829 2.945,13.23 8,17.659 v 11.532 l -25.155,7.187 C 65.395,203.159 56,215.614 56,229.604 V 316 H 39.5 C 17.72,316 0,333.72 0,355.5 0,377.28 17.72,395 39.5,395 h 384 C 445.28,395 463,377.28 463,355.5 463,333.72 445.28,316 423.5,316 Z m -15.5,0 h -81 v -17 h 81 z m -113,0 v -72.5 c 0,-0.275 0.224,-0.5 0.5,-0.5 h 64 c 0.276,0 0.5,0.225 0.5,0.5 V 284 h -40.5 c -4.142,0 -7.5,3.357 -7.5,7.5 V 316 Z m 16.312,-124.945 c 3.873,2.581 8.38,3.945 13.035,3.945 h 6.312 c 4.654,0 9.162,-1.365 13.037,-3.947 l 0.306,-0.204 v 6.955 c 0,0.072 -0.002,0.145 0,0.216 v 1.983 c -1.424,1.289 -6.962,3.997 -16.5,3.997 -9.538,0 -15.076,-2.708 -16.5,-3.997 v -9.156 z M 303,228 v -15.215 c 5.588,3.898 14.175,6.215 24.5,6.215 10.325,0 18.912,-2.317 24.5,-6.215 V 228 Z m 89,1.604 V 284 h -17 v -40.5 c 0,-5.827 -3.235,-10.908 -8,-13.555 v -19.931 l 13.033,3.723 c 7.046,2.014 11.967,8.538 11.967,15.867 z M 360,123.5 V 124 H 359.5 335 V 91.883 c 14.315,3.396 25,16.278 25,31.617 z m -65,0 c 0,-15.339 10.685,-28.221 25,-31.617 V 124 H 295.5 295 Z m 57,15.5 v 23.938 c 0,2.848 -1.415,5.492 -3.785,7.072 l -12.841,8.562 c -1.402,0.935 -3.033,1.429 -4.716,1.429 h -6.312 c -1.684,0 -3.314,-0.493 -4.715,-1.427 l -12.846,-8.563 c -2.371,-1.58 -3.786,-4.225 -3.786,-7.073 V 139 Z m -89,90.604 c 0,-7.328 4.921,-13.853 11.967,-15.866 L 288,210.013 v 19.932 c -4.765,2.647 -8,7.728 -8,13.555 V 316 H 263 Z M 224,316 h -81 v -33 h 81 z m -121,0 v -72.5 c 0,-0.275 0.224,-0.5 0.5,-0.5 h 64 c 0.276,0 0.5,0.225 0.5,0.5 V 268 h -32.5 c -4.142,0 -7.5,3.357 -7.5,7.5 V 316 Z m 16.312,-124.945 c 3.873,2.581 8.38,3.945 13.035,3.945 h 6.312 c 4.654,0 9.162,-1.365 13.037,-3.947 l 0.306,-0.204 v 6.955 c 0,0.072 -0.002,0.145 0,0.216 v 1.983 c -1.424,1.289 -6.962,3.997 -16.5,3.997 -9.538,0 -15.076,-2.708 -16.5,-3.997 v -9.156 z M 111,228 v -15.215 c 5.588,3.898 14.175,6.215 24.5,6.215 10.325,0 18.912,-2.317 24.5,-6.215 V 228 Z m 89,1.604 V 268 h -17 v -24.5 c 0,-5.827 -3.235,-10.908 -8,-13.555 v -19.931 l 13.033,3.723 c 7.046,2.014 11.967,8.538 11.967,15.867 z M 168,123.5 V 124 H 167.5 143 V 91.883 c 14.315,3.396 25,16.278 25,31.617 z m -65,0 c 0,-15.339 10.685,-28.221 25,-31.617 V 124 H 103.5 103 Z m 57,15.5 v 23.938 c 0,2.848 -1.415,5.492 -3.785,7.072 l -12.841,8.562 c -1.402,0.935 -3.033,1.429 -4.716,1.429 h -6.312 c -1.684,0 -3.314,-0.493 -4.715,-1.427 l -12.846,-8.563 c -2.371,-1.58 -3.786,-4.225 -3.786,-7.073 V 139 Z m -89,90.604 c 0,-7.328 4.921,-13.853 11.967,-15.866 L 96,210.013 v 19.932 c -4.765,2.647 -8,7.728 -8,13.555 V 316 H 71 Z M 423.5,380 H 39.5 C 25.991,380 15,369.01 15,355.5 15,341.99 25.991,331 39.5,331 h 384 c 13.509,0 24.5,10.99 24.5,24.5 0,13.51 -10.991,24.5 -24.5,24.5 z"
       style="fill:#d5e5ff" />
    <path
       id="path3305"
       d="m 231.5,341 c -7.995,0 -14.5,6.505 -14.5,14.5 0,7.995 6.505,14.5 14.5,14.5 7.995,0 14.5,-6.505 14.5,-14.5 0,-7.995 -6.505,-14.5 -14.5,-14.5 z"
       style="fill:#d5e5ff" />
    <path
       id="path3307"
       d="m 183.5,341 c -7.995,0 -14.5,6.505 -14.5,14.5 0,7.995 6.505,14.5 14.5,14.5 7.995,0 14.5,-6.505 14.5,-14.5 0,-7.995 -6.505,-14.5 -14.5,-14.5 z"
       style="fill:#d5e5ff" />
    <path
       id="path3309"
       d="m 135.5,341 c -7.995,0 -14.5,6.505 -14.5,14.5 0,7.995 6.505,14.5 14.5,14.5 7.995,0 14.5,-6.505 14.5,-14.5 0,-7.995 -6.505,-14.5 -14.5,-14.5 z"
       style="fill:#d5e5ff" />
    <path
       id="path3311"
       d="M 39.5,341 C 31.505,341 25,347.505 25,355.5 25,363.495 31.505,370 39.5,370 47.495,370 54,363.495 54,355.5 54,347.505 47.495,341 39.5,341 Z"
       style="fill:#d5e5ff" />
    <path
       id="path3313"
       d="m 87.5,341 c -7.995,0 -14.5,6.505 -14.5,14.5 0,7.995 6.505,14.5 14.5,14.5 7.995,0 14.5,-6.505 14.5,-14.5 0,-7.995 -6.505,-14.5 -14.5,-14.5 z"
       style="fill:#d5e5ff" />
    <path
       id="path3315"
       d="m 423.5,341 c -7.995,0 -14.5,6.505 -14.5,14.5 0,7.995 6.505,14.5 14.5,14.5 7.995,0 14.5,-6.505 14.5,-14.5 0,-7.995 -6.505,-14.5 -14.5,-14.5 z"
       style="fill:#d5e5ff" />
    <path
       id="path3317"
       d="m 375.5,341 c -7.995,0 -14.5,6.505 -14.5,14.5 0,7.995 6.505,14.5 14.5,14.5 7.995,0 14.5,-6.505 14.5,-14.5 0,-7.995 -6.505,-14.5 -14.5,-14.5 z"
       style="fill:#d5e5ff" />
    <path
       id="path3319"
       d="m 279.5,341 c -7.995,0 -14.5,6.505 -14.5,14.5 0,7.995 6.505,14.5 14.5,14.5 7.995,0 14.5,-6.505 14.5,-14.5 0,-7.995 -6.505,-14.5 -14.5,-14.5 z"
       style="fill:#d5e5ff" />
    <path
       id="path3321"
       d="m 327.5,341 c -7.995,0 -14.5,6.505 -14.5,14.5 0,7.995 6.505,14.5 14.5,14.5 7.995,0 14.5,-6.505 14.5,-14.5 0,-7.995 -6.505,-14.5 -14.5,-14.5 z"
       style="fill:#d5e5ff" />
  </g>
</svg>
