<?xml version="1.0" encoding="UTF-8" standalone="no"?>
<svg
   xmlns:dc="http://purl.org/dc/elements/1.1/"
   xmlns:cc="http://creativecommons.org/ns#"
   xmlns:rdf="http://www.w3.org/1999/02/22-rdf-syntax-ns#"
   xmlns:svg="http://www.w3.org/2000/svg"
   xmlns="http://www.w3.org/2000/svg"
   xmlns:sodipodi="http://sodipodi.sourceforge.net/DTD/sodipodi-0.dtd"
   xmlns:inkscape="http://www.inkscape.org/namespaces/inkscape"
   inkscape:version="1.0 (4035a4fb49, 2020-05-01)"
   sodipodi:docname="quality-control.svg"
   version="1.1"
   viewBox="0 0 130 130"
   height="130"
   width="130"
   data-name="Layer 1"
   id="Layer_1">
  <metadata
     id="metadata2745">
    <rdf:RDF>
      <cc:Work
         rdf:about="">
        <dc:format>image/svg+xml</dc:format>
        <dc:type
           rdf:resource="http://purl.org/dc/dcmitype/StillImage" />
        <dc:title>Finance</dc:title>
      </cc:Work>
    </rdf:RDF>
  </metadata>
  <sodipodi:namedview
     inkscape:current-layer="Layer_1"
     inkscape:window-maximized="0"
     inkscape:window-y="0"
     inkscape:window-x="76"
     inkscape:cy="64.680184"
     inkscape:cx="74.566245"
     inkscape:zoom="3.9615385"
     showgrid="false"
     id="namedview2743"
     inkscape:window-height="728"
     inkscape:window-width="1274"
     inkscape:pageshadow="2"
     inkscape:pageopacity="0"
     guidetolerance="10"
     gridtolerance="10"
     objecttolerance="10"
     borderopacity="1"
     bordercolor="#666666"
     pagecolor="#ffffff"
     inkscape:document-rotation="0" />
  <defs
     id="defs2715">
    <style
       id="style2713">.cls-1{fill:#fff;}</style>
  </defs>
  <title
     id="title2717">Finance</title>
  <ellipse
     ry="62.60194"
     rx="62.223301"
     cy="65.378639"
     cx="65"
     id="path2747"
     style="fill:#0055d4;stroke:#00ccff;stroke-width:1.178;stroke-linejoin:round;stroke-miterlimit:4;stroke-dasharray:none" />
  <path
     id="path3839"
     d="M 40.230974,102.39609 C 38.694916,102.0888 37.185646,100.85436 36.464223,99.3153 L 36.048151,98.427669 V 65.393597 32.359524 l 0.433081,-0.881895 c 0.590451,-1.202349 1.499285,-2.091704 2.736534,-2.677885 l 1.037555,-0.491568 5.551029,-0.05088 c 5.545256,-0.05084 5.551191,-0.05125 5.707261,-0.393776 0.25792,-0.566068 0.98603,-1.350397 1.661946,-1.790269 0.617116,-0.401607 0.717798,-0.415594 3.356682,-0.466351 l 2.720484,-0.05233 0.895528,-0.829099 c 2.763607,-2.558611 6.53442,-2.558394 9.298377,5.44e-4 l 0.894941,0.828559 2.720484,0.05233 c 2.638883,0.05076 2.739556,0.06475 3.356681,0.466352 0.675917,0.439871 1.404028,1.2242 1.661947,1.790269 0.156061,0.342532 0.162003,0.34294 5.707251,0.393774 l 5.551027,0.05088 0.924041,0.432737 c 1.410493,0.660546 2.182561,1.37648 2.768954,2.567624 l 0.514178,1.044448 V 65.46824 98.583487 l -0.389115,0.761962 c -0.613267,1.200911 -1.465901,2.055551 -2.615309,2.621421 l -1.040252,0.51215 -24.311427,0.0232 c -13.371282,0.0128 -24.602857,-0.035 -24.959055,-0.10625 z m 49.415025,-2.843667 c 0.818355,-0.463492 1.287307,-1.193102 1.404009,-2.184419 0.05242,-0.445608 0.0746,-15.114568 0.04919,-32.597692 l -0.04617,-31.787503 -0.426302,-0.725185 c -0.296045,-0.503601 -0.632464,-0.82498 -1.100988,-1.051793 -0.64344,-0.311482 -0.914174,-0.326609 -5.845496,-0.326609 H 78.50944 v 1.480302 1.480301 h 4.413738 4.413741 l 0.377758,0.402098 0.377758,0.402096 0.04009,30.530619 c 0.04455,33.939893 0.123147,31.448792 -1.001547,31.761095 -0.823466,0.228662 -43.832042,0.232037 -44.654941,0.0038 -1.144995,-0.31798 -1.058871,2.372439 -1.014245,-31.683419 l 0.04011,-30.611801 0.377758,-0.402097 0.377762,-0.402096 h 4.41374 4.413736 v -1.486126 -1.486126 l -5.348569,0.04478 -5.348571,0.04478 -0.564327,0.386878 c -0.310379,0.212781 -0.725832,0.668558 -0.923227,1.012839 l -0.358902,0.62596 -0.04078,32.153621 c -0.02773,21.856487 0.01101,32.345981 0.120964,32.754292 0.199091,0.739369 0.758683,1.425172 1.434811,1.758434 0.463494,0.228454 2.749636,0.2518 24.740861,0.252691 l 24.230178,9.43e-4 0.61868,-0.350401 z M 85.521345,65.393597 V 36.332962 h -3.570516 -3.570521 l -0.468921,0.762092 c -0.547613,0.889982 -1.259267,1.474658 -2.198098,1.805899 -1.006154,0.354994 -20.826132,0.354994 -21.832286,0 -0.93884,-0.331241 -1.650494,-0.915917 -2.198107,-1.805899 L 51.213975,36.332962 H 47.643464 44.072938 V 65.393597 94.454226 H 64.79714 85.521345 Z M 53.344293,84.4911 c -0.171399,-0.06966 -1.345899,-1.158583 -2.610001,-2.41985 -2.073953,-2.069299 -2.298362,-2.34574 -2.298362,-2.831167 0,-0.637212 0.575757,-1.30289 1.126904,-1.30289 0.512339,0 0.926043,0.320576 2.671409,2.070086 l 1.538912,1.54255 3.135724,-3.113 c 1.724643,-1.71215 3.289984,-3.15968 3.478531,-3.216737 0.886201,-0.268174 1.759197,0.825675 1.368897,1.715201 -0.199353,0.454335 -6.660458,6.961178 -7.394892,7.44723 -0.42489,0.281201 -0.557499,0.295352 -1.017122,0.108577 z M 65.654164,84.46 C 64.87329,84.026687 64.726461,83.204141 65.309062,82.526812 l 0.356109,-0.413989 6.383153,1.41e-4 c 8.932154,1.52e-4 8.370542,-0.02218 8.769012,0.349074 0.429792,0.400405 0.450447,1.226619 0.04323,1.729648 l -0.297789,0.367862 -7.298495,0.03669 c -5.119965,0.02578 -7.391508,-0.01488 -7.610134,-0.13624 z m 0.427451,-5.442722 c -0.750456,-0.100164 -1.116222,-0.467765 -1.123692,-1.12933 -0.01421,-1.260338 0.367416,-1.353189 5.561927,-1.353189 h 4.273813 l 0.455481,0.45548 c 0.548921,0.54892 0.58334,1.092522 0.10443,1.64929 l -0.351044,0.408122 -4.128807,0.0291 c -2.270842,0.01601 -4.427297,-0.01072 -4.792104,-0.05944 z M 50.817769,68.387588 c -2.207823,-2.20782 -2.381839,-2.423678 -2.381839,-2.954532 0,-0.735262 0.47827,-1.208117 1.221966,-1.208117 0.477994,0 0.739154,0.19657 2.277185,1.714031 0.955503,0.942717 1.779425,1.714031 1.830936,1.714031 0.05147,0 1.492263,-1.402388 3.201654,-3.11642 2.849841,-2.857583 3.152967,-3.116423 3.649617,-3.116423 0.933115,0 1.55679,1.092718 1.06725,1.869854 -0.232911,0.369732 -7.055005,7.177805 -7.351704,7.336599 -0.762171,0.407893 -1.054102,0.221943 -3.515065,-2.239023 z m 14.474002,2.021196 c -0.649421,-0.691278 -0.301248,-1.8258 0.631108,-2.056468 0.195012,-0.04825 3.545001,-0.06757 7.444423,-0.04291 6.799939,0.04296 7.104203,0.05737 7.44046,0.352118 0.476146,0.41737 0.481141,1.350865 0.0096,1.790197 -0.3333,0.310519 -0.509135,0.317712 -7.763892,0.317712 h -7.422865 z m 0.04371,-5.47557 c -0.241092,-0.24109 -0.38248,-0.560499 -0.38248,-0.864096 0,-0.303598 0.141388,-0.623007 0.38248,-0.864099 l 0.382469,-0.382471 h 4.611236 4.611247 l 0.382119,0.412306 c 0.500289,0.539823 0.489777,1.15156 -0.02873,1.670031 l -0.410803,0.410801 h -4.58255 -4.58256 z M 53.069949,56.771436 c -0.236609,-0.156022 -1.376055,-1.236114 -2.532089,-2.400201 -1.925041,-1.938436 -2.10189,-2.164182 -2.10189,-2.682978 0,-0.393662 0.116673,-0.683127 0.38247,-0.948925 0.761972,-0.761974 1.214513,-0.522425 3.550168,1.879249 l 1.361587,1.400077 3.079311,-3.060893 c 1.693619,-1.683487 3.235479,-3.140079 3.426348,-3.236865 0.267076,-0.135428 0.468667,-0.125158 0.874891,0.04457 0.669111,0.279572 0.934082,0.928654 0.648881,1.589485 -0.108369,0.251091 -1.844691,2.086808 -3.858498,4.079369 -3.887495,3.846498 -3.971104,3.904247 -4.831179,3.33711 z m 12.584255,0.0963 c -0.551518,-0.318448 -0.7012,-0.555956 -0.7012,-1.112619 0,-0.403387 0.106789,-0.629194 0.410568,-0.868145 0.402178,-0.316355 0.560703,-0.322952 7.761672,-0.322952 7.182543,0 7.358928,0.0073 7.692133,0.317713 0.506972,0.472318 0.471129,1.427179 -0.06957,1.852474 -0.402092,0.316279 -0.558977,0.322854 -7.596282,0.318211 -5.141103,-0.0035 -7.274381,-0.05593 -7.497348,-0.184682 z m 0.233727,-5.369807 c -1.192531,-0.459179 -1.251057,-1.941616 -0.09405,-2.381522 0.257244,-0.09781 2.12393,-0.161946 4.712875,-0.161946 h 4.286925 l 0.45548,0.455476 c 0.557034,0.557039 0.582487,1.093435 0.07963,1.678375 l -0.375852,0.437197 -4.415646,0.03121 c -2.428611,0.01717 -4.520842,-0.0094 -4.649393,-0.05878 z m 8.92784,-14.993945 c 0.153872,-0.0084 0.45188,-0.187323 0.662239,-0.397681 0.382346,-0.382348 0.382469,-0.383531 0.382469,-3.731018 0,-3.314222 -0.0038,-3.353028 -0.375738,-3.785744 l -0.375749,-0.437197 -3.047812,-0.04819 -3.047811,-0.04819 -0.433014,-0.488811 C 67.050221,25.839874 66.32795,25.43229 64.797181,25.43229 c -1.530769,0 -2.25304,0.407584 -3.783165,2.13487 l -0.433022,0.488811 -3.047812,0.04817 -3.047801,0.04819 -0.375749,0.437198 c -0.37171,0.432501 -0.375749,0.472908 -0.375749,3.7614 0,3.725563 0.04646,3.900357 1.094504,4.120989 0.408471,0.08599 18.462826,0.114941 19.987384,0.03204 z M 63.873525,33.117611 c -0.285247,-0.362641 -0.322948,-0.62506 -0.322948,-2.248096 0,-1.799519 0.0085,-1.844212 0.410567,-2.160482 0.553688,-0.435531 1.314646,-0.419083 1.743763,0.03769 0.309042,0.328953 0.338806,0.525081 0.338806,2.232243 0,1.754895 -0.02246,1.892733 -0.360636,2.210408 -0.525999,0.494148 -1.391401,0.459829 -1.809552,-0.07175 z"
     style="fill:#d5e5ff;stroke-width:0.155821" />
</svg>
