<?xml version="1.0" encoding="UTF-8" standalone="no"?>
<svg
   xmlns:dc="http://purl.org/dc/elements/1.1/"
   xmlns:cc="http://creativecommons.org/ns#"
   xmlns:rdf="http://www.w3.org/1999/02/22-rdf-syntax-ns#"
   xmlns:svg="http://www.w3.org/2000/svg"
   xmlns="http://www.w3.org/2000/svg"
   xmlns:sodipodi="http://sodipodi.sourceforge.net/DTD/sodipodi-0.dtd"
   xmlns:inkscape="http://www.inkscape.org/namespaces/inkscape"
   inkscape:version="1.0 (4035a4fb49, 2020-05-01)"
   sodipodi:docname="reports.svg"
   version="1.1"
   viewBox="0 0 130 130"
   height="130"
   width="130"
   data-name="Layer 1"
   id="Layer_1">
  <metadata
     id="metadata2745">
    <rdf:RDF>
      <cc:Work
         rdf:about="">
        <dc:format>image/svg+xml</dc:format>
        <dc:type
           rdf:resource="http://purl.org/dc/dcmitype/StillImage" />
        <dc:title>Finance</dc:title>
      </cc:Work>
    </rdf:RDF>
  </metadata>
  <sodipodi:namedview
     inkscape:current-layer="Layer_1"
     inkscape:window-maximized="0"
     inkscape:window-y="0"
     inkscape:window-x="76"
     inkscape:cy="64.680184"
     inkscape:cx="74.566245"
     inkscape:zoom="3.9615385"
     showgrid="false"
     id="namedview2743"
     inkscape:window-height="728"
     inkscape:window-width="1274"
     inkscape:pageshadow="2"
     inkscape:pageopacity="0"
     guidetolerance="10"
     gridtolerance="10"
     objecttolerance="10"
     borderopacity="1"
     bordercolor="#666666"
     pagecolor="#ffffff"
     inkscape:document-rotation="0" />
  <defs
     id="defs2715">
    <style
       id="style2713">.cls-1{fill:#fff;}</style>
  </defs>
  <title
     id="title2717">Finance</title>
  <ellipse
     ry="62.60194"
     rx="62.223301"
     cy="65.378639"
     cx="65"
     id="path2747"
     style="fill:#0055d4;stroke:#00ccff;stroke-width:1.178;stroke-linejoin:round;stroke-miterlimit:4;stroke-dasharray:none" />
  <g
     style="fill:#d5e5ff"
     transform="matrix(0.13861629,0,0,0.13861629,29.646985,30.317682)"
     id="g3602">
    <g
       id="g3600">
      <path
         d="M 437.83,0 H 74.17 c -4.143,0 -7.5,3.358 -7.5,7.5 v 356.26 c 0,4.142 3.357,7.5 7.5,7.5 4.143,0 7.5,-3.358 7.5,-7.5 V 15 h 348.66 v 47.15 c 0,4.142 3.357,7.5 7.5,7.5 4.143,0 7.5,-3.358 7.5,-7.5 V 7.5 c 0,-4.142 -3.357,-7.5 -7.5,-7.5 z"
         id="path3570" />
      <path
         d="m 437.83,89.65 c -4.143,0 -7.5,3.358 -7.5,7.5 V 497 H 81.67 v -98.24 c 0,-4.142 -3.357,-7.5 -7.5,-7.5 -4.143,0 -7.5,3.358 -7.5,7.5 V 504.5 c 0,4.142 3.357,7.5 7.5,7.5 h 363.66 c 4.143,0 7.5,-3.358 7.5,-7.5 V 97.15 c 0,-4.142 -3.357,-7.5 -7.5,-7.5 z"
         id="path3572" />
      <path
         d="m 98.996,155.994 c 0,31.986 26.022,58.008 58.008,58.008 31.986,0 58.008,-26.022 58.008,-58.008 0,-31.986 -26.022,-58.008 -58.008,-58.008 -31.986,0 -58.008,26.022 -58.008,58.008 z m 58.008,43.008 c -23.715,0 -43.008,-19.293 -43.008,-43.008 0,-21.156 15.358,-38.78 35.508,-42.34 v 42.34 c 0,4.142 3.357,7.5 7.5,7.5 h 42.34 c -3.561,20.15 -21.184,35.508 -42.34,35.508 z m 42.34,-50.508 h -34.84 v -34.84 c 17.712,3.13 31.71,17.128 34.84,34.84 z"
         id="path3574" />
      <path
         d="m 110.536,432.35 c -4.143,0 -7.5,3.358 -7.5,7.5 v 32.325 c 0,4.142 3.357,7.5 7.5,7.5 h 48.488 c 4.143,0 7.5,-3.358 7.5,-7.5 V 439.85 c 0,-4.142 -3.357,-7.5 -7.5,-7.5 z m 40.988,32.325 H 118.036 V 447.35 h 33.488 z"
         id="path3576" />
      <path
         d="m 191.35,479.675 h 48.487 c 4.143,0 7.5,-3.358 7.5,-7.5 v -80.813 c 0,-4.142 -3.357,-7.5 -7.5,-7.5 H 191.35 c -4.143,0 -7.5,3.358 -7.5,7.5 v 80.813 c 0,4.142 3.357,7.5 7.5,7.5 z m 7.5,-80.813 h 33.487 v 65.813 H 198.85 Z"
         id="path3578" />
      <path
         d="m 272.163,323.252 c -4.143,0 -7.5,3.358 -7.5,7.5 v 141.423 c 0,4.142 3.357,7.5 7.5,7.5 h 48.487 c 4.143,0 7.5,-3.358 7.5,-7.5 V 330.752 c 0,-4.142 -3.357,-7.5 -7.5,-7.5 z M 313.15,464.675 H 279.663 V 338.252 h 33.487 z"
         id="path3580" />
      <path
         d="m 401.46,324.3 c 4.143,0 7.5,-3.358 7.5,-7.5 v -26.45 c 0,-4.142 -3.357,-7.5 -7.5,-7.5 h -48.48 c -4.143,0 -7.5,3.358 -7.5,7.5 v 181.82 c 0,4.142 3.357,7.5 7.5,7.5 h 48.479 c 4.143,0 7.5,-3.358 7.5,-7.5 V 351.8 c 0,-4.142 -3.357,-7.5 -7.5,-7.5 -4.143,0 -7.5,3.358 -7.5,7.5 V 464.67 H 360.48 V 297.85 h 33.479 v 18.95 c 10e-4,4.142 3.358,7.5 7.501,7.5 z"
         id="path3582" />
      <path
         d="M 336.813,32.325 H 175.187 c -4.143,0 -7.5,3.358 -7.5,7.5 V 72.15 c 0,4.142 3.357,7.5 7.5,7.5 h 161.627 c 4.143,0 7.5,-3.358 7.5,-7.5 V 39.825 c -0.001,-4.142 -3.358,-7.5 -7.501,-7.5 z m -7.5,32.325 H 182.687 V 47.325 H 329.314 V 64.65 Z"
         id="path3584" />
      <path
         d="M 405.504,97.986 H 256 c -4.143,0 -7.5,3.358 -7.5,7.5 0,4.142 3.357,7.5 7.5,7.5 h 149.504 c 4.143,0 7.5,-3.358 7.5,-7.5 0,-4.142 -3.358,-7.5 -7.5,-7.5 z"
         id="path3586" />
      <path
         d="M 405.504,131.658 H 256 c -4.143,0 -7.5,3.358 -7.5,7.5 0,4.142 3.357,7.5 7.5,7.5 h 149.504 c 4.143,0 7.5,-3.358 7.5,-7.5 0,-4.142 -3.358,-7.5 -7.5,-7.5 z"
         id="path3588" />
      <path
         d="m 413.004,172.83 c 0,-4.142 -3.357,-7.5 -7.5,-7.5 H 256 c -4.143,0 -7.5,3.358 -7.5,7.5 0,4.142 3.357,7.5 7.5,7.5 h 149.504 c 4.142,0 7.5,-3.358 7.5,-7.5 z"
         id="path3590" />
      <path
         d="m 352.395,206.502 c 0,-4.142 -3.357,-7.5 -7.5,-7.5 H 256 c -4.143,0 -7.5,3.358 -7.5,7.5 0,4.142 3.357,7.5 7.5,7.5 h 88.895 c 4.142,0 7.5,-3.358 7.5,-7.5 z"
         id="path3592" />
      <path
         d="M 256,248.5 H 119.628 c -4.143,0 -7.5,3.358 -7.5,7.5 0,4.142 3.357,7.5 7.5,7.5 H 256 c 4.143,0 7.5,-3.358 7.5,-7.5 0,-4.142 -3.357,-7.5 -7.5,-7.5 z"
         id="path3594" />
      <path
         d="m 263.5,289.672 c 0,-4.142 -3.357,-7.5 -7.5,-7.5 H 119.628 c -4.143,0 -7.5,3.358 -7.5,7.5 0,4.142 3.357,7.5 7.5,7.5 H 256 c 4.143,0 7.5,-3.358 7.5,-7.5 z"
         id="path3596" />
      <path
         d="m 202.891,323.344 c 0,-4.142 -3.357,-7.5 -7.5,-7.5 h -75.763 c -4.143,0 -7.5,3.358 -7.5,7.5 0,4.142 3.357,7.5 7.5,7.5 h 75.763 c 4.142,0 7.5,-3.358 7.5,-7.5 z"
         id="path3598" />
    </g>
  </g>
</svg>
