<?xml version="1.0" encoding="UTF-8" standalone="no"?>
<svg
   xmlns:dc="http://purl.org/dc/elements/1.1/"
   xmlns:cc="http://creativecommons.org/ns#"
   xmlns:rdf="http://www.w3.org/1999/02/22-rdf-syntax-ns#"
   xmlns:svg="http://www.w3.org/2000/svg"
   xmlns="http://www.w3.org/2000/svg"
   xmlns:sodipodi="http://sodipodi.sourceforge.net/DTD/sodipodi-0.dtd"
   xmlns:inkscape="http://www.inkscape.org/namespaces/inkscape"
   inkscape:version="1.0 (4035a4fb49, 2020-05-01)"
   sodipodi:docname="sampling.svg"
   version="1.1"
   viewBox="0 0 130 130"
   height="130"
   width="130"
   data-name="Layer 1"
   id="Layer_1">
  <metadata
     id="metadata2745">
    <rdf:RDF>
      <cc:Work
         rdf:about="">
        <dc:format>image/svg+xml</dc:format>
        <dc:type
           rdf:resource="http://purl.org/dc/dcmitype/StillImage" />
        <dc:title>Finance</dc:title>
      </cc:Work>
    </rdf:RDF>
  </metadata>
  <sodipodi:namedview
     inkscape:current-layer="Layer_1"
     inkscape:window-maximized="0"
     inkscape:window-y="0"
     inkscape:window-x="76"
     inkscape:cy="67.574527"
     inkscape:cx="82.436893"
     inkscape:zoom="3.9615385"
     showgrid="false"
     id="namedview2743"
     inkscape:window-height="728"
     inkscape:window-width="1274"
     inkscape:pageshadow="2"
     inkscape:pageopacity="0"
     guidetolerance="10"
     gridtolerance="10"
     objecttolerance="10"
     borderopacity="1"
     bordercolor="#666666"
     pagecolor="#ffffff"
     inkscape:document-rotation="0" />
  <defs
     id="defs2715">
    <style
       id="style2713">.cls-1{fill:#fff;}</style>
  </defs>
  <title
     id="title2717">Finance</title>
  <ellipse
     ry="62.60194"
     rx="62.223301"
     cy="65.378639"
     cx="65"
     id="path2747"
     style="fill:#0055d4;stroke:#00ccff;stroke-width:1.178;stroke-linejoin:round;stroke-miterlimit:4;stroke-dasharray:none" />
  <g
     transform="matrix(1.0301714,0,0,1.0301714,-100.4437,-1.7005048)"
     id="g13118">
    <path
       d="m 133.12307,42.903112 h 16.50365 v 7.220348 h -11.93567 v -4.789006 h -2.21031 v 41.259128 c 0,1.909414 1.5534,3.46282 3.46282,3.46282 h 9.43066 c 1.90941,0 3.46282,-1.553406 3.46282,-3.46282 V 67.732414 h -2.21032 v 5.967691 H 137.69105 V 59.406764 h 11.93567 v 5.967838 h 2.21032 v -22.47149 h 2.35766 V 31.262144 h -21.07163 z m 16.50365,33.007303 v 10.683167 c 0,0.690649 -0.562,1.25251 -1.2525,1.25251 h -9.43066 c -0.69065,0 -1.25251,-0.561861 -1.25251,-1.25251 V 75.910415 Z m 0,-18.713962 H 137.69105 V 52.33377 h 11.93567 z m -0.14735,-23.723999 h 2.50502 v 7.220348 h -2.50502 z m -4.71533,0 h 2.50502 v 7.220348 h -2.50502 z m -4.71533,0 h 2.50502 v 7.220348 h -2.50502 z m -4.71533,0 h 2.50502 v 7.220348 h -2.50502 z"
       id="path12464"
       style="fill:#d5e5ff;stroke-width:0.147354" />
    <path
       d="m 142.74956,62.388767 c -0.59899,0.867326 -2.55349,3.815585 -2.55349,5.343499 0,1.909414 1.5534,3.46282 3.46282,3.46282 1.90941,0 3.46282,-1.553406 3.46282,-3.46282 0,-1.527914 -1.95451,-4.476173 -2.5535,-5.343499 l -0.90932,-1.316461 z m 2.16184,5.343647 c 0,0.690501 -0.56187,1.252362 -1.25251,1.252362 -0.69065,0 -1.25251,-0.561861 -1.25251,-1.252362 0.003,-0.37089 0.52885,-1.467499 1.25251,-2.674034 0.72365,1.206535 1.24971,2.302996 1.25251,2.674034 z"
       id="path12466"
       style="fill:#d5e5ff;stroke-width:0.147354" />
    <path
       d="m 174.30852,40.692802 c -11.00955,0 -19.96647,8.956915 -19.96647,19.966471 0,8.93157 5.8952,16.511903 13.99864,19.055234 v 21.025063 c 0,3.20937 2.61111,5.82048 5.82048,5.82048 3.20937,0 5.82048,-2.61111 5.82048,-5.82048 V 79.803361 c 8.25463,-2.450497 14.29335,-10.104802 14.29335,-19.144088 0,-11.009556 -8.95692,-19.966471 -19.96648,-19.966471 z m 3.46282,60.046768 c 0,1.9906 -1.61942,3.61017 -3.61017,3.61017 -1.99075,0 -3.61017,-1.61957 -3.61017,-3.61017 V 85.341073 h 7.22034 z m 0,-17.608807 H 170.551 v -2.861174 c 1.21744,0.23282 2.47319,0.356155 3.75752,0.356155 1.18075,0 2.33778,-0.103737 3.46282,-0.301339 z m -3.46282,-4.715329 c -9.79079,0 -17.75616,-7.96537 -17.75616,-17.756161 0,-9.790791 7.96537,-17.756161 17.75616,-17.756161 9.7908,0 17.75617,7.96537 17.75617,17.756161 0,9.790791 -7.96537,17.756161 -17.75617,17.756161 z"
       id="path12468"
       style="fill:#d5e5ff;stroke-width:0.147354" />
    <path
       d="m 174.30852,45.408131 c -8.40949,0 -15.25114,6.841647 -15.25114,15.251142 0,8.409494 6.84165,15.251142 15.25114,15.251142 3.71952,0 7.30243,-1.354183 10.08816,-3.812933 l -1.46264,-1.657143 c -2.38168,2.102152 -5.44503,3.259766 -8.62552,3.259766 -7.19072,0 -13.04083,-5.850103 -13.04083,-13.040832 0,-7.190729 5.85011,-13.040832 13.04083,-13.040832 7.19073,0 13.04084,5.850103 13.04084,13.040832 0,2.997918 -0.9889,5.816211 -2.8597,8.150151 l 1.72448,1.382476 c 2.15726,-2.691421 3.34553,-6.076733 3.34553,-9.532627 0,-8.409495 -6.84165,-15.251142 -15.25115,-15.251142 z"
       id="path12470"
       style="fill:#d5e5ff;stroke-width:0.147354" />
    <path
       d="m 174.16117,59.554118 c -1.48415,0 -2.43134,-0.74178 -2.43134,-1.252509 h -2.21031 c 0,1.941831 2.03894,3.462819 4.64165,3.462819 2.60272,0 4.64165,-1.520988 4.64165,-3.462819 h -2.21031 c 0,0.510729 -0.94719,1.252509 -2.43134,1.252509 z"
       id="path12474"
       style="fill:#d5e5ff;stroke-width:0.147354" />
    <path
       d="m 171.95086,86.667259 h 2.35766 v 2.210311 h -2.35766 z"
       id="path12476"
       style="fill:#d5e5ff;stroke-width:0.147354" />
    <path
       d="m 174.30852,89.024924 h 2.35767 v 2.21031 h -2.35767 z"
       id="path12478"
       style="fill:#d5e5ff;stroke-width:0.147354" />
    <path
       d="m 138.94356,77.236601 h 2.35766 v 2.210311 h -2.35766 z"
       id="path12480"
       style="fill:#d5e5ff;stroke-width:0.147354" />
    <path
       d="m 141.30122,79.594266 h 2.35767 v 2.21031 h -2.35767 z"
       id="path12482"
       style="fill:#d5e5ff;stroke-width:0.147354" />
  </g>
</svg>
