<?xml version="1.0" encoding="UTF-8" standalone="no"?>
<svg
   xmlns:dc="http://purl.org/dc/elements/1.1/"
   xmlns:cc="http://creativecommons.org/ns#"
   xmlns:rdf="http://www.w3.org/1999/02/22-rdf-syntax-ns#"
   xmlns:svg="http://www.w3.org/2000/svg"
   xmlns="http://www.w3.org/2000/svg"
   xmlns:sodipodi="http://sodipodi.sourceforge.net/DTD/sodipodi-0.dtd"
   xmlns:inkscape="http://www.inkscape.org/namespaces/inkscape"
   inkscape:version="1.0 (4035a4fb49, 2020-05-01)"
   sodipodi:docname="scan-cartoon.svg"
   version="1.1"
   viewBox="0 0 130 130"
   height="130"
   width="130"
   data-name="Layer 1"
   id="Layer_1">
  <metadata
     id="metadata2745">
    <rdf:RDF>
      <cc:Work
         rdf:about="">
        <dc:format>image/svg+xml</dc:format>
        <dc:type
           rdf:resource="http://purl.org/dc/dcmitype/StillImage" />
        <dc:title>Finance</dc:title>
      </cc:Work>
    </rdf:RDF>
  </metadata>
  <sodipodi:namedview
     inkscape:current-layer="Layer_1"
     inkscape:window-maximized="0"
     inkscape:window-y="0"
     inkscape:window-x="76"
     inkscape:cy="67.574527"
     inkscape:cx="82.436893"
     inkscape:zoom="3.9615385"
     showgrid="false"
     id="namedview2743"
     inkscape:window-height="728"
     inkscape:window-width="1274"
     inkscape:pageshadow="2"
     inkscape:pageopacity="0"
     guidetolerance="10"
     gridtolerance="10"
     objecttolerance="10"
     borderopacity="1"
     bordercolor="#666666"
     pagecolor="#ffffff"
     inkscape:document-rotation="0" />
  <defs
     id="defs2715">
    <style
       id="style2713">.cls-1{fill:#fff;}</style>
  </defs>
  <title
     id="title2717">Finance</title>
  <ellipse
     ry="62.60194"
     rx="62.223301"
     cy="65.378639"
     cx="65"
     id="path2747"
     style="fill:#0055d4;stroke:#00ccff;stroke-width:1.178;stroke-linejoin:round;stroke-miterlimit:4;stroke-dasharray:none" />
  <path
     style="fill:#d5e5ff;stroke-width:0.138026"
     id="path3867"
     d="m 92.181746,31.337778 h -37.543 c -3.657409,0.0039 -6.621346,2.967838 -6.625235,6.625237 v 23.188348 h -8.833662 c -0.609817,0 -1.104192,0.494353 -1.104192,1.104195 v 9.603832 l -3.903362,5.855066 h -2.721874 c -0.609837,0 -1.104213,0.494353 -1.104213,1.104194 v 15.458899 c 0,0.609823 0.494376,1.104194 1.104213,1.104194 h 3.133173 l 3.142844,1.047615 c 0.112659,0.03734 0.23053,0.05645 0.349219,0.0566 v 2.208407 c 0,0.60984 0.494375,1.104212 1.104192,1.104212 h 15.458897 c 0.609848,0 1.104203,-0.494372 1.104203,-1.104212 v -3.312621 c 0,-0.609841 -0.494355,-1.104194 -1.104203,-1.104194 H 52.23985 c 0.320309,-0.901462 0.233695,-1.897525 -0.237388,-2.730152 1.484482,-0.944068 1.969777,-2.885252 1.104192,-4.416831 1.300642,-0.826787 1.857232,-2.442728 1.341622,-3.895085 h 4.607291 c 0.941989,0 1.839348,-0.401342 2.466531,-1.104213 h 30.659648 c 3.65742,-0.0039 6.621378,-2.967819 6.625257,-6.625237 V 37.963015 c -0.0041,-3.657399 -2.967837,-6.621355 -6.625257,-6.625237 z m -26.500943,2.208425 c -24.292528,-2.208425 -12.14627,-1.104213 0,0 z m -12.14627,62.939752 v 1.104213 H 40.284062 v -1.104213 z m 5.521034,-15.45888 H 45.805085 c -0.609817,0 -1.104192,0.494353 -1.104192,1.104193 0,0.609842 0.494375,1.104213 1.104192,1.104213 h 5.521043 c 0.609848,0 1.104203,0.494372 1.104203,1.104212 0,0.609823 -0.494355,1.104194 -1.104203,1.104194 h -5.521043 c -0.609817,0 -1.104192,0.494372 -1.104192,1.104213 0,0.60984 0.494375,1.104212 1.104192,1.104212 h 4.416831 c 0.609847,0 1.104212,0.494372 1.104212,1.104194 0,0.609841 -0.494365,1.104212 -1.104212,1.104212 h -4.416831 c -0.609817,0 -1.104192,0.494372 -1.104192,1.104213 0,0.609822 0.494375,1.104193 1.104192,1.104193 h 3.312618 c 0.609847,0 1.104213,0.494372 1.104213,1.104213 0,0.60984 -0.494366,1.104212 -1.104213,1.104212 H 38.255081 l -3.142844,-1.047615 c -0.112638,-0.03734 -0.23053,-0.05645 -0.349198,-0.0566 H 32.554613 V 79.922862 h 2.208426 c 0.369109,0 0.713724,-0.184784 0.919245,-0.491377 l 2.393373,-3.59143 v 1.874401 c 0,0.609823 0.494375,1.104194 1.104192,1.104194 h 19.875718 c 0.609837,0 1.104213,0.494372 1.104213,1.104212 0,0.609842 -0.494376,1.104213 -1.104213,1.104213 z M 40.284062,76.610244 V 63.35977 h 31.45193 l -0.473431,1.104212 h -0.06071 v 0.14216 l -5.14561,12.004102 z m 32.434682,-9.937856 h 1.307095 l -2.484466,6.625237 h -1.661816 z m 23.879833,8.833643 c -0.0031,2.438033 -1.978796,4.413634 -4.416831,4.416831 H 62.368185 c 1.03e-4,-0.376259 -0.06433,-0.749727 -0.190461,-1.104212 h 4.607292 c 0.441594,0 0.840605,-0.263488 1.014485,-0.669415 l 1.133194,-2.643204 h 3.373344 c 0.46016,0 0.871996,-0.285595 1.033827,-0.716345 l 3.312618,-8.833662 c 0.272068,-0.722038 -0.262212,-1.493151 -1.033828,-1.492042 h -1.953051 l 0.759132,-1.773645 C 74.736751,61.96194 74.202678,61.151733 73.410251,61.151363 H 50.221916 V 37.963015 c 0.0031,-2.438013 1.978805,-4.413615 4.41683,-4.416812 h 8.833652 c 11.911591,0.0314 5.515034,0.263174 19.875707,0 h 8.833641 c 2.438035,0.0031 4.413635,1.978799 4.416831,4.416812 z"
     sodipodi:nodetypes="ccccssccsssscccsssssscccccccccccccccccsssssssssssssssssssccccccccsssssccccccccccccccccccccccccccccccccccc" />
  <path
     style="fill:#d5e5ff;stroke-width:0.133446"
     id="path3869"
     d="M 92.230623,64.409351 H 79.41986 c -0.589603,0 -1.067569,0.477966 -1.067569,1.067569 v 6.405381 c 0,0.589604 0.477966,1.06757 1.067569,1.06757 h 12.810763 c 0.589604,0 1.06757,-0.477966 1.06757,-1.06757 V 65.47692 c 0,-0.589603 -0.477966,-1.067569 -1.06757,-1.067569 z m -1.067569,6.405381 H 80.48743 V 66.54449 h 10.675624 z"
     sodipodi:nodetypes="sssssssssccccc" />
</svg>
