<?xml version="1.0" encoding="UTF-8" standalone="no"?>
<svg
   xmlns:dc="http://purl.org/dc/elements/1.1/"
   xmlns:cc="http://creativecommons.org/ns#"
   xmlns:rdf="http://www.w3.org/1999/02/22-rdf-syntax-ns#"
   xmlns:svg="http://www.w3.org/2000/svg"
   xmlns="http://www.w3.org/2000/svg"
   xmlns:sodipodi="http://sodipodi.sourceforge.net/DTD/sodipodi-0.dtd"
   xmlns:inkscape="http://www.inkscape.org/namespaces/inkscape"
   inkscape:version="1.0 (4035a4fb49, 2020-05-01)"
   sodipodi:docname="scan-box.svg"
   version="1.1"
   viewBox="0 0 130 130"
   height="130"
   width="130"
   data-name="Layer 1"
   id="Layer_1">
  <metadata
     id="metadata2745">
    <rdf:RDF>
      <cc:Work
         rdf:about="">
        <dc:format>image/svg+xml</dc:format>
        <dc:type
           rdf:resource="http://purl.org/dc/dcmitype/StillImage" />
        <dc:title>Finance</dc:title>
      </cc:Work>
    </rdf:RDF>
  </metadata>
  <sodipodi:namedview
     inkscape:current-layer="Layer_1"
     inkscape:window-maximized="0"
     inkscape:window-y="0"
     inkscape:window-x="76"
     inkscape:cy="67.574527"
     inkscape:cx="82.436893"
     inkscape:zoom="3.9615385"
     showgrid="false"
     id="namedview2743"
     inkscape:window-height="728"
     inkscape:window-width="1274"
     inkscape:pageshadow="2"
     inkscape:pageopacity="0"
     guidetolerance="10"
     gridtolerance="10"
     objecttolerance="10"
     borderopacity="1"
     bordercolor="#666666"
     pagecolor="#ffffff"
     inkscape:document-rotation="0" />
  <defs
     id="defs2715">
    <style
       id="style2713">.cls-1{fill:#fff;}</style>
  </defs>
  <title
     id="title2717">Finance</title>
  <ellipse
     ry="62.60194"
     rx="62.223301"
     cy="65.378639"
     cx="65"
     id="path2747"
     style="fill:#0055d4;stroke:#00ccff;stroke-width:1.178;stroke-linejoin:round;stroke-miterlimit:4;stroke-dasharray:none" />
  <g
     transform="matrix(1.0405871,0,0,1.0405871,-1.2918927,-5.5575138)"
     id="g14406">
    <g
       id="g14392">
      <path
         sodipodi:nodetypes="csscssccsssscccssssssccccccccccccsssccscccscsssssssssssccccccccssssccccccccccccccccccccccccc"
         id="path3995"
         d="M 96.844046,42.471928 46.72033,42.739667 c -0.619395,0.0033 -2.549473,0.502126 -2.549473,2.906459 l 4e-6,16.84374 H 39.68474 c -0.619403,0 -1.121529,0.502126 -1.121529,1.121529 v 9.754499 l -3.964605,5.946908 h -2.764569 c -0.619403,0 -1.121529,0.502126 -1.121529,1.121529 v 15.701406 c 0,0.619403 0.502126,1.121529 1.121529,1.121529 h 3.182339 l 3.192152,1.064051 c 0.114413,0.03792 0.234149,0.05733 0.354683,0.05748 v 2.243053 c -1e-6,0.6194 0.502125,1.12153 1.121529,1.12153 h 15.701407 c 0.619404,0 1.12153,-0.50213 1.121529,-1.12153 v -3.364582 c 0,-0.619403 -0.502126,-1.121529 -1.121529,-1.121529 h -2.436522 c 0.32532,-0.915588 0.237346,-1.927287 -0.241129,-2.77298 1.507784,-0.958872 2.000693,-2.930507 1.121529,-4.486116 1.321037,-0.839748 1.886361,-2.48105 1.362658,-3.956194 h 4.67958 c 2.323021,0.0017 3.947789,-2.296773 3.171123,-4.486116 h 4.67958 c 0.448528,-2.1e-4 0.853797,-0.267632 1.030405,-0.679927 l 1.150969,-2.68466 h 3.426272 c 0.467371,-2.17e-4 0.885677,-0.290072 1.050031,-0.727592 l 2.084964,-5.442311 20.199946,-0.08925 c 1.591275,-0.007 2.462466,-0.591376 2.460226,-1.210775 l -0.08925,-24.667667 c -0.0087,-2.394303 -2.192486,-2.460226 -2.192486,-2.460226 z M 54.264618,98.378795 v 1.121529 H 40.806269 V 98.378795 Z M 59.872263,82.677389 H 46.413915 c -1.495371,0 -1.495371,2.243058 0,2.243058 h 5.607645 c 1.495371,0 1.495371,2.243058 0,2.243058 h -5.607645 c -1.495371,0 -1.495371,2.243058 0,2.243058 h 4.486116 c 1.495371,0 1.495371,2.243058 0,2.243058 h -4.486116 c -1.495371,0 -1.495371,2.243058 0,2.243058 h 3.364587 c 1.495371,0 1.495371,2.243058 0,2.243058 H 38.74546 l -3.192152,-1.06405 c -0.114413,-0.03792 -0.23415,-0.05733 -0.354684,-0.05748 H 32.955566 V 81.55586 h 2.243058 c 0.374895,-5.81e-4 0.724921,-0.187682 0.933673,-0.499081 l 2.430914,-3.647773 v 1.903796 c 0,0.619403 0.502126,1.121529 1.121529,1.121529 h 20.187523 c 1.495371,0 1.495371,2.243058 0,2.243058 z m 7.110494,-4.486116 H 40.806269 V 64.732924 h 31.945353 l -0.480855,1.121529 h -0.06168 v 0.144397 z m 5.571196,-3.364587 h -1.687902 l 2.883732,-6.729175 h 1.32761 z m 24.328768,-6.437644 -19.48672,-0.08925 0.349229,-0.929877 c 0.276336,-0.733366 -0.26633,-1.516574 -1.050031,-1.515466 h -1.983705 l 0.771051,-1.801456 c 0.316909,-0.739831 -0.225556,-1.562754 -1.030404,-1.563131 H 46.413915 V 44.893475 l 50.468806,-0.356986 z"
         style="fill:#d5e5ff;stroke-width:0.140191" />
    </g>
    <path
       style="fill:#d5e5ff;stroke-width:0.0780849"
       d="m 81.93055,58.125619 a 0.83467994,0.46751316 0 0 0 0.83468,-0.467513 v -9.350264 a 0.83468,0.46751319 0 0 0 -1.66936,0 v 9.350264 a 0.83467994,0.46751316 0 0 0 0.83468,0.467513 z"
       id="path3997" />
    <path
       style="fill:#d5e5ff;stroke-width:0.0780849"
       d="m 79.42651,58.125619 a 0.83467994,0.46751316 0 0 0 0.83468,-0.467513 v -9.350264 a 0.83468,0.46751319 0 0 0 -1.66936,0 v 9.350264 a 0.83467994,0.46751316 0 0 0 0.83468,0.467513 z"
       id="path3999" />
    <path
       style="fill:#d5e5ff;stroke-width:0.0780849"
       d="m 75.25311,58.125619 a 0.83467994,0.46751316 0 0 0 0.83468,-0.467513 v -9.350264 a 0.83468,0.46751319 0 0 0 -1.66936,0 v 9.350264 a 0.83467994,0.46751316 0 0 0 0.83468,0.467513 z"
       id="path4001" />
    <path
       style="fill:#d5e5ff;stroke-width:0.0780849"
       d="m 72.74907,58.125619 a 0.83467994,0.46751316 0 0 0 0.83468,-0.467513 v -9.350264 a 0.83468,0.46751319 0 0 0 -1.66936,0 v 9.350264 a 0.83467994,0.46751316 0 0 0 0.83468,0.467513 z"
       id="path4003" />
    <path
       style="fill:#d5e5ff;stroke-width:0.0780849"
       d="m 70.245031,58.125619 a 0.83467994,0.46751316 0 0 0 0.83468,-0.467513 v -9.350264 a 0.83468,0.46751319 0 0 0 -1.66936,0 v 9.350264 a 0.83467994,0.46751316 0 0 0 0.83468,0.467513 z"
       id="path4005" />
    <path
       style="fill:#d5e5ff;stroke-width:0.0780849"
       d="m 67.740991,58.125619 a 0.83467994,0.46751316 0 0 0 0.83468,-0.467513 v -9.350264 a 0.83468,0.46751319 0 0 0 -1.66936,0 v 9.350264 a 0.83467994,0.46751316 0 0 0 0.83468,0.467513 z"
       id="path4007" />
    <path
       style="fill:#d5e5ff;stroke-width:0.0780849"
       d="m 93.61607,58.125619 a 0.83467994,0.46751316 0 0 0 0.83468,-0.467513 v -9.350264 a 0.83468,0.46751319 0 0 0 -1.66936,0 v 9.350264 a 0.83467994,0.46751316 0 0 0 0.83468,0.467513 z"
       id="path4013" />
    <path
       style="fill:#d5e5ff;stroke-width:0.0780849"
       d="m 91.11203,58.125619 a 0.83467994,0.46751316 0 0 0 0.83468,-0.467513 v -9.350264 a 0.83468,0.46751319 0 0 0 -1.66936,0 v 9.350264 a 0.83467994,0.46751316 0 0 0 0.83468,0.467513 z"
       id="path4015" />
    <path
       style="fill:#d5e5ff;stroke-width:0.0780849"
       d="m 88.60799,58.125619 a 0.83467994,0.46751316 0 0 0 0.83468,-0.467513 v -9.350264 a 0.83468,0.46751319 0 0 0 -1.66936,0 v 9.350264 a 0.83467994,0.46751316 0 0 0 0.83468,0.467513 z"
       id="path4017" />
    <path
       style="fill:#d5e5ff;stroke-width:0.0780849"
       d="m 86.10395,58.125619 a 0.83467994,0.46751316 0 0 0 0.83468,-0.467513 v -9.350264 a 0.83468,0.46751319 0 0 0 -1.66936,0 v 9.350264 a 0.83467994,0.46751316 0 0 0 0.83468,0.467513 z"
       id="path4019" />
  </g>
</svg>
